<svg width="72" height="20" viewBox="0 0 72 20" fill="none" xmlns="http://www.w3.org/2000/svg">
<g clip-path="url(#clip0_15_425)">
<path fill-rule="evenodd" clip-rule="evenodd" d="M53.4159 15.2165C50.9445 15.2165 49.4087 13.8179 49.4087 11.5627C49.4087 9.22104 50.8235 7.76318 53.1041 7.76318H53.2949C53.5834 7.76318 53.979 7.77229 54.5143 7.83608V5.01147H56.1293V14.9614C56.1293 14.9614 54.598 15.2165 53.4159 15.2165ZM53.3973 9.00236C51.8381 9.00236 51.0795 9.82696 51.0795 11.5217C51.0795 13.0434 51.9964 13.991 53.4671 13.991C53.751 13.991 54.0721 13.9727 54.5143 13.9363V9.10715C54.0721 9.03425 53.7184 9.00236 53.3973 9.00236ZM31.3365 14.9887L26.9802 7.55817V14.9887H25.463V5.58095H27.5853L31.9416 12.9477V5.58095H33.4774V14.9887H31.3365ZM45.2059 15.1345C44.4706 15.1345 43.7073 15.0525 42.7997 14.8839L42.6973 14.8657V13.5491L42.8416 13.581C43.6468 13.7495 44.3403 13.8907 45.0337 13.8907C45.5922 13.8907 46.8954 13.8042 46.8954 12.9978C46.8954 12.3235 45.9925 12.155 45.2711 12.0183L45.2246 12.0092C45.0896 11.9864 44.9639 11.9591 44.8569 11.9317C43.7911 11.663 42.6601 11.2575 42.6601 9.86797C42.6601 8.51034 43.7585 7.73129 45.676 7.73129C46.5929 7.73129 47.2584 7.82696 47.7983 7.90897L48.0589 7.94542V9.22104L47.9193 9.19371C47.3096 9.08437 46.6022 8.97503 45.918 8.97503C45.1547 8.97503 44.2518 9.1117 44.2518 9.77229C44.2518 10.3235 44.9918 10.483 45.8482 10.6652C47.0443 10.9158 48.5244 11.2347 48.5244 12.8292C48.5244 14.2962 47.3189 15.1345 45.2059 15.1345ZM60.6531 15.1345C58.9823 15.1345 57.4417 14.8475 57.4417 12.7655C57.4417 10.4967 59.8293 10.4967 61.2582 10.4967C61.3978 10.4967 62.0726 10.5286 62.2774 10.5377C62.2728 9.2666 62.2588 8.96136 60.3739 8.96136C59.6245 8.96136 58.7961 9.10715 58.0608 9.23471L57.9211 9.25749V8.00464L58.0142 7.98186C58.8659 7.8133 59.6851 7.73129 60.5182 7.73129C62.3472 7.73129 63.8971 7.91353 63.8971 10.1276V14.9659L63.7854 14.9796C62.5194 15.1163 61.5141 15.1345 60.6531 15.1345ZM61.2163 11.6174C59.8386 11.6174 58.9869 11.8179 58.9869 12.8019C58.9869 13.9454 60.076 14.0411 61.0953 14.0411C61.4769 14.0411 62.1611 13.991 62.3752 13.9773V11.6584C62.0773 11.6447 61.3094 11.6174 61.2163 11.6174ZM38.0385 15.1345C36.3677 15.1345 34.8225 14.8475 34.8225 12.7655C34.8225 10.4967 37.2101 10.4967 38.6389 10.4967C38.7832 10.4967 39.4534 10.5286 39.6582 10.5377C39.6582 9.2666 39.6396 8.96136 37.7546 8.96136C37.0053 8.96136 36.1769 9.10715 35.4415 9.23471L35.3019 9.25749V8.00464L35.3996 7.98186C35.6044 7.94238 35.8107 7.90593 36.0186 7.87252C36.2265 7.84215 36.4344 7.81633 36.6423 7.79507C36.8533 7.77381 37.0627 7.75863 37.2706 7.74952C37.4816 7.73737 37.6926 7.73129 37.9035 7.73129C39.728 7.73129 41.2778 7.91353 41.2778 10.1276V14.9659L41.1661 14.9796C39.9002 15.1163 38.8949 15.1345 38.0385 15.1345ZM38.597 11.6174C37.2194 11.6174 36.3677 11.8179 36.3677 12.8019C36.3677 13.9454 37.4567 14.0411 38.4807 14.0411C38.8623 14.0411 39.5465 13.991 39.7559 13.9773V11.6584C39.458 11.6447 38.6901 11.6174 38.597 11.6174Z" fill="#FEFEFE"/>
<mask id="mask0_15_425" style="mask-type:luminance" maskUnits="userSpaceOnUse" x="64" y="7" width="8" height="12">
<path d="M64.948 7.30566H71.9646V18.2647H64.948V7.30566Z" fill="white"/>
</mask>
<g mask="url(#mask0_15_425)">
<path fill-rule="evenodd" clip-rule="evenodd" d="M70.3152 18.1868V15.1025C69.6869 15.1845 69.3518 15.1845 69.0818 15.1845C68.4442 15.1845 67.7321 15.0524 67.1829 14.8246C65.9542 14.3235 65.2235 13.0524 65.2235 11.426C65.2235 10.615 65.4236 9.12529 66.778 8.32802C67.4575 7.92711 68.2627 7.75854 69.4681 7.75854C69.9009 7.75854 70.4874 7.79044 71.0505 7.82233L71.9627 7.86788V17.4715L70.3152 18.1868ZM69.3518 9.00228C67.7135 9.00228 66.885 9.81777 66.885 11.426C66.885 13.4989 68.1231 13.9317 69.1656 13.9317C69.4169 13.9317 69.7008 13.9317 70.3338 13.8542V9.04328C69.8404 9.01139 69.6124 9.00228 69.3518 9.00228Z" fill="#FEFEFE"/>
</g>
<mask id="mask1_15_425" style="mask-type:luminance" maskUnits="userSpaceOnUse" x="11" y="0" width="14" height="16">
<path d="M11.7197 0.00732422H24.3264V15.0684H11.7197V0.00732422Z" fill="white"/>
</mask>
<g mask="url(#mask1_15_425)">
<path d="M24.0016 0.0090332L18.6679 14.3325C18.5283 14.7152 18.1513 14.9885 17.7091 14.9885H12.0729V14.984C12.1691 14.9749 12.2622 14.9521 12.3522 14.9156C12.4391 14.8822 12.5213 14.8367 12.5989 14.779C12.6733 14.7213 12.7385 14.6544 12.7943 14.5785C12.8533 14.5026 12.8983 14.4206 12.9293 14.3325L18.263 0.0090332H24.0016Z" fill="#0996C7"/>
</g>
<path d="M11.3375 14.7335C11.2444 14.7061 11.1607 14.6651 11.0815 14.615C11.0024 14.5649 10.9326 14.5057 10.8721 14.4328C10.8116 14.3644 10.7651 14.287 10.7278 14.2004L9.57825 11.1207L11.533 5.86329C11.5656 5.76762 11.6447 5.65828 11.6633 5.63095C11.7611 5.49427 11.896 5.38493 12.0543 5.3166C12.2125 5.24826 12.3847 5.22092 12.5569 5.23915C12.7291 5.25737 12.892 5.32115 13.027 5.42138C13.1666 5.52161 13.2737 5.65828 13.3388 5.81318L14.4837 8.88379L12.529 14.1412C12.4824 14.2596 12.4219 14.3462 12.4033 14.3735C12.2265 14.615 11.9426 14.7745 11.6121 14.7745C11.519 14.7745 11.426 14.7608 11.3375 14.7335Z" fill="#0996C7"/>
<mask id="mask2_15_425" style="mask-type:luminance" maskUnits="userSpaceOnUse" x="-1" y="4" width="14" height="16">
<path d="M-0.420288 4.56641H12.1865V19.9988H-0.420288V4.56641Z" fill="white"/>
</mask>
<g mask="url(#mask2_15_425)">
<path d="M12.031 5.01611C11.9286 5.02067 11.8309 5.03889 11.7378 5.07078C11.6401 5.10267 11.5516 5.15279 11.4679 5.20746C11.3887 5.26668 11.3143 5.33502 11.2538 5.41702C11.1933 5.49447 11.1467 5.58103 11.1141 5.67671L5.78046 20.0002H0.0418701L5.37089 5.67215C5.51517 5.28946 5.89216 5.01611 6.33431 5.01611H12.031Z" fill="#0996C7"/>
</g>
</g>
<defs>
<clipPath id="clip0_15_425">
<rect width="72" height="20" fill="white"/>
</clipPath>
</defs>
</svg>
