<svg width="30" height="31" viewBox="0 0 30 31" fill="none" xmlns="http://www.w3.org/2000/svg">
<path fill-rule="evenodd" clip-rule="evenodd" d="M13.7375 10.0552C13.7375 12.1302 12.075 13.8052 10 13.8052C7.925 13.8052 6.25 12.1302 6.25 10.0552C6.25 7.98018 7.925 6.30518 10 6.30518C12.075 6.30518 13.7375 7.98018 13.7375 10.0552ZM23.7375 10.0552C23.7375 12.1302 22.075 13.8052 20 13.8052C17.925 13.8052 16.25 12.1302 16.25 10.0552C16.25 7.98018 17.925 6.30518 20 6.30518C22.075 6.30518 23.7375 7.98018 23.7375 10.0552ZM10 16.3052C7.0875 16.3052 1.25 17.7677 1.25 20.6802V23.8052H18.75V20.6802C18.75 17.7677 12.9125 16.3052 10 16.3052ZM18.7875 16.3677C19.225 16.3302 19.6375 16.3052 20 16.3052C22.9125 16.3052 28.75 17.7677 28.75 20.6802V23.8052H21.25V20.6802C21.25 18.8302 20.2375 17.4177 18.7875 16.3677Z" fill="url(#paint0_linear_102_67143)"/>
<defs>
<linearGradient id="paint0_linear_102_67143" x1="2.51275" y1="23.8052" x2="16.1812" y2="23.8052" gradientUnits="userSpaceOnUse">
<stop stop-color="#01C7ED"/>
<stop offset="1" stop-color="#04F76E"/>
</linearGradient>
</defs>
</svg>
