<svg width="30" height="31" viewBox="0 0 30 31" fill="none" xmlns="http://www.w3.org/2000/svg">
<path fill-rule="evenodd" clip-rule="evenodd" d="M19.3625 12.0927C19.1375 8.60518 17.725 5.20518 15.075 2.55518C12.4 5.23018 10.925 8.63018 10.6375 12.0927C12.2375 12.9427 13.7125 14.0427 15 15.3802C16.2875 14.0552 17.7625 12.9552 19.3625 12.0927ZM11.1667 15.3561C11.1907 15.3723 11.2143 15.3886 11.2375 15.4052C11.2175 15.3909 11.1971 15.3769 11.1765 15.3632C11.1733 15.3608 11.17 15.3585 11.1667 15.3561ZM11.1667 15.3561C8.72113 13.5934 5.73257 12.5552 2.5 12.5552C2.5 19.2052 6.7 24.8302 12.5375 26.9177C13.325 27.2052 14.15 27.4177 15 27.5552C15.85 27.4052 16.6625 27.1927 17.4625 26.9177C23.3 24.8302 27.5 19.2052 27.5 12.5552C22.275 12.5552 17.6875 15.2677 15 19.3677C13.9774 17.8076 12.6797 16.4485 11.1765 15.3632C11.1122 15.3203 11.0453 15.2798 10.9774 15.2386C10.8768 15.1776 10.7742 15.1154 10.675 15.0427C10.7537 15.0951 10.8345 15.1453 10.9148 15.1952L10.9148 15.1952L10.9149 15.1953C11.0006 15.2485 11.0857 15.3014 11.1667 15.3561Z" fill="url(#paint0_linear_102_67138)"/>
<defs>
<linearGradient id="paint0_linear_102_67138" x1="3.64795" y1="27.5552" x2="16.0738" y2="27.5552" gradientUnits="userSpaceOnUse">
<stop stop-color="#01C7ED"/>
<stop offset="1" stop-color="#04F76E"/>
</linearGradient>
</defs>
</svg>
