<svg width="341" height="14" viewBox="0 0 341 14" fill="none" xmlns="http://www.w3.org/2000/svg">
<rect x="155.25" y="5.87634" width="22.5" height="2.10001" rx="1.05" fill="#99F3FF" stroke="#061178" stroke-width="0.5"/>
<rect x="216.25" y="5.87634" width="124.5" height="2.10001" rx="1.05" fill="url(#paint0_linear_102_66512)" stroke="#061178" stroke-width="0.5"/>
<rect x="29.25" y="0.677124" width="37.5" height="2.10001" rx="1.05" fill="#ED7CFF" stroke="#061178" stroke-width="0.5"/>
<rect x="136.25" y="0.677124" width="90.5" height="2.10001" rx="1.05" fill="#99F3FF" stroke="#061178" stroke-width="0.5"/>
<rect x="0.25" y="5.87634" width="89.5" height="2.10001" rx="1.05" fill="url(#paint1_linear_102_66512)" stroke="#061178" stroke-width="0.5"/>
<rect x="14.25" y="0.677124" width="4.5" height="2.10001" rx="1.05" fill="url(#paint2_linear_102_66512)" stroke="#061178" stroke-width="0.5"/>
<rect x="0.25" y="0.677124" width="4.5" height="2.10001" rx="1.05" fill="#ED7CFF" stroke="#061178" stroke-width="0.5"/>
<rect x="113.25" y="5.87634" width="5.5" height="2.10001" rx="1.05" fill="url(#paint3_linear_102_66512)" stroke="#061178" stroke-width="0.5"/>
<rect x="100.25" y="5.87634" width="4.5" height="2.10001" rx="1.05" fill="#ED7CFF" stroke="#061178" stroke-width="0.5"/>
<rect x="141.25" y="5.87634" width="4.5" height="2.10001" rx="1.05" fill="#ED7CFF" stroke="#061178" stroke-width="0.5"/>
<rect x="127.25" y="5.87634" width="4.5" height="2.10001" rx="1.05" fill="#ED7CFF" stroke="#061178" stroke-width="0.5"/>
<rect x="71.25" y="11.0756" width="4.5" height="2.10001" rx="1.05" fill="url(#paint4_linear_102_66512)" stroke="#061178" stroke-width="0.5"/>
<rect x="57.25" y="11.0756" width="4.5" height="2.10001" rx="1.05" fill="url(#paint5_linear_102_66512)" stroke="#061178" stroke-width="0.5"/>
<rect x="41.25" y="11.0756" width="6.5" height="2.10001" rx="1.05" fill="url(#paint6_linear_102_66512)" stroke="#061178" stroke-width="0.5"/>
<rect x="100.25" y="11.0756" width="4.5" height="2.10001" rx="1.05" fill="#ED7CFF" stroke="#061178" stroke-width="0.5"/>
<rect x="86.25" y="11.0756" width="3.5" height="2.10001" rx="1.05" fill="#ED7CFF" stroke="#061178" stroke-width="0.5"/>
<rect x="122.25" y="0.677124" width="4.5" height="2.10001" rx="1.05" fill="url(#paint7_linear_102_66512)" stroke="#061178" stroke-width="0.5"/>
<rect x="235.25" y="0.677124" width="7.5" height="2.10001" rx="1.05" fill="url(#paint8_linear_102_66512)" stroke="#061178" stroke-width="0.5"/>
<rect x="108.25" y="0.677124" width="4.5" height="2.10001" rx="1.05" fill="#ED7CFF" stroke="#061178" stroke-width="0.5"/>
<rect x="201.25" y="5.87634" width="4.5" height="2.10001" rx="1.05" fill="#ED7CFF" stroke="#061178" stroke-width="0.5"/>
<rect x="187.25" y="5.87634" width="4.5" height="2.10001" rx="1.05" fill="url(#paint9_linear_102_66512)" stroke="#061178" stroke-width="0.5"/>
<rect x="268.25" y="11.0756" width="23.5" height="2.10001" rx="1.05" fill="url(#paint10_linear_102_66512)" stroke="#061178" stroke-width="0.5"/>
<rect x="113.25" y="11.0756" width="89.5" height="2.10001" rx="1.05" fill="#99F3FF" stroke="#061178" stroke-width="0.5"/>
<rect x="227.25" y="11.0756" width="4.5" height="2.10001" rx="1.05" fill="url(#paint11_linear_102_66512)" stroke="#061178" stroke-width="0.5"/>
<rect x="213.25" y="11.0756" width="3.5" height="2.10001" rx="1.05" fill="url(#paint12_linear_102_66512)" stroke="#061178" stroke-width="0.5"/>
<rect x="254.25" y="11.0756" width="5.5" height="2.10001" rx="1.05" fill="url(#paint13_linear_102_66512)" stroke="#061178" stroke-width="0.5"/>
<rect x="241.25" y="11.0756" width="4.5" height="2.10001" rx="1.05" fill="#ED7CFF" stroke="#061178" stroke-width="0.5"/>
<rect x="317.25" y="11.0756" width="6.5" height="2.10001" rx="1.05" fill="url(#paint14_linear_102_66512)" stroke="#061178" stroke-width="0.5"/>
<rect x="300.25" y="11.0756" width="7.5" height="2.10001" rx="1.05" fill="#ED7CFF" stroke="#061178" stroke-width="0.5"/>
<rect x="76.25" y="0.677124" width="21.5" height="2.10001" rx="1.05" fill="url(#paint15_linear_102_66512)" stroke="#061178" stroke-width="0.5"/>
<rect x="0.25" y="11.0756" width="31.5" height="2.10001" rx="1.05" fill="url(#paint16_linear_102_66512)" stroke="#061178" stroke-width="0.5"/>
<defs>
<linearGradient id="paint0_linear_102_66512" x1="221.74" y1="8.22635" x2="283.869" y2="8.22636" gradientUnits="userSpaceOnUse">
<stop stop-color="#01C7ED"/>
<stop offset="1" stop-color="#04F76E"/>
</linearGradient>
<linearGradient id="paint1_linear_102_66512" x1="4.13264" y1="8.22635" x2="48.8657" y2="8.22636" gradientUnits="userSpaceOnUse">
<stop stop-color="#01C7ED"/>
<stop offset="1" stop-color="#04F76E"/>
</linearGradient>
<linearGradient id="paint2_linear_102_66512" x1="14.2296" y1="3.02713" x2="16.7148" y2="3.02713" gradientUnits="userSpaceOnUse">
<stop stop-color="#01C7ED"/>
<stop offset="1" stop-color="#04F76E"/>
</linearGradient>
<linearGradient id="paint3_linear_102_66512" x1="113.276" y1="8.22635" x2="116.258" y2="8.22635" gradientUnits="userSpaceOnUse">
<stop stop-color="#01C7ED"/>
<stop offset="1" stop-color="#04F76E"/>
</linearGradient>
<linearGradient id="paint4_linear_102_66512" x1="71.2296" y1="13.4256" x2="73.7148" y2="13.4256" gradientUnits="userSpaceOnUse">
<stop stop-color="#01C7ED"/>
<stop offset="1" stop-color="#04F76E"/>
</linearGradient>
<linearGradient id="paint5_linear_102_66512" x1="57.2296" y1="13.4256" x2="59.7148" y2="13.4256" gradientUnits="userSpaceOnUse">
<stop stop-color="#01C7ED"/>
<stop offset="1" stop-color="#04F76E"/>
</linearGradient>
<linearGradient id="paint6_linear_102_66512" x1="41.3214" y1="13.4256" x2="44.8007" y2="13.4256" gradientUnits="userSpaceOnUse">
<stop stop-color="#01C7ED"/>
<stop offset="1" stop-color="#04F76E"/>
</linearGradient>
<linearGradient id="paint7_linear_102_66512" x1="122.23" y1="3.02713" x2="124.715" y2="3.02713" gradientUnits="userSpaceOnUse">
<stop stop-color="#01C7ED"/>
<stop offset="1" stop-color="#04F76E"/>
</linearGradient>
<linearGradient id="paint8_linear_102_66512" x1="235.367" y1="3.02713" x2="239.344" y2="3.02713" gradientUnits="userSpaceOnUse">
<stop stop-color="#01C7ED"/>
<stop offset="1" stop-color="#04F76E"/>
</linearGradient>
<linearGradient id="paint9_linear_102_66512" x1="187.23" y1="8.22635" x2="189.715" y2="8.22635" gradientUnits="userSpaceOnUse">
<stop stop-color="#01C7ED"/>
<stop offset="1" stop-color="#04F76E"/>
</linearGradient>
<linearGradient id="paint10_linear_102_66512" x1="269.102" y1="13.4256" x2="281.031" y2="13.4256" gradientUnits="userSpaceOnUse">
<stop stop-color="#01C7ED"/>
<stop offset="1" stop-color="#04F76E"/>
</linearGradient>
<linearGradient id="paint11_linear_102_66512" x1="227.23" y1="13.4256" x2="229.715" y2="13.4256" gradientUnits="userSpaceOnUse">
<stop stop-color="#01C7ED"/>
<stop offset="1" stop-color="#04F76E"/>
</linearGradient>
<linearGradient id="paint12_linear_102_66512" x1="213.184" y1="13.4256" x2="215.172" y2="13.4256" gradientUnits="userSpaceOnUse">
<stop stop-color="#01C7ED"/>
<stop offset="1" stop-color="#04F76E"/>
</linearGradient>
<linearGradient id="paint13_linear_102_66512" x1="254.276" y1="13.4256" x2="257.258" y2="13.4256" gradientUnits="userSpaceOnUse">
<stop stop-color="#01C7ED"/>
<stop offset="1" stop-color="#04F76E"/>
</linearGradient>
<linearGradient id="paint14_linear_102_66512" x1="317.321" y1="13.4256" x2="320.801" y2="13.4256" gradientUnits="userSpaceOnUse">
<stop stop-color="#01C7ED"/>
<stop offset="1" stop-color="#04F76E"/>
</linearGradient>
<linearGradient id="paint15_linear_102_66512" x1="77.0102" y1="3.02713" x2="87.9449" y2="3.02713" gradientUnits="userSpaceOnUse">
<stop stop-color="#01C7ED"/>
<stop offset="1" stop-color="#04F76E"/>
</linearGradient>
<linearGradient id="paint16_linear_102_66512" x1="1.46938" y1="13.4256" x2="17.3745" y2="13.4256" gradientUnits="userSpaceOnUse">
<stop stop-color="#01C7ED"/>
<stop offset="1" stop-color="#04F76E"/>
</linearGradient>
</defs>
</svg>
