<svg width="129" height="128" viewBox="0 0 129 128" fill="none" xmlns="http://www.w3.org/2000/svg">
<path d="M117.885 29.4025C98.6853 -0.157528 59.1654 -8.56753 29.6054 10.6325C0.0453529 29.8325 -8.36465 69.3625 10.8354 98.9225C30.0354 128.482 69.5654 136.882 99.1254 117.682C128.685 98.4925 137.085 58.9625 117.885 29.4025ZM92.6054 107.652C68.6254 123.222 36.4454 116.382 20.8754 92.4025C5.29535 68.4225 12.1354 36.2425 36.1154 20.6725C60.1054 5.09247 92.2754 11.9325 107.855 35.9225C123.425 59.9025 116.585 92.0725 92.6054 107.652Z" fill="#0B3B60"/>
<path d="M107.855 35.9223C92.2754 11.9323 60.1054 5.09232 36.1154 20.6723C12.1354 36.2423 5.29543 68.4223 20.8754 92.4023C36.4454 116.382 68.6254 123.222 92.6054 107.652C116.585 92.0723 123.425 59.9023 107.855 35.9223ZM89.7054 103.192C68.1854 117.162 39.3054 111.032 25.3354 89.5023C11.3554 67.9823 17.4954 39.1123 39.0154 25.1323C60.5354 11.1523 89.4154 17.2923 103.395 38.8123C117.365 60.3323 111.225 89.2123 89.7054 103.192Z" fill="#00E0FF"/>
<path d="M103.395 38.8126C89.4153 17.2926 60.5353 11.1526 39.0153 25.1326C17.4953 39.1126 11.3553 67.9826 25.3353 89.5026C39.3053 111.033 68.1853 117.163 89.7053 103.193C111.225 89.2126 117.365 60.3326 103.395 38.8126ZM84.0453 77.0726L79.4353 80.0626L84.1353 87.3026L79.3053 90.4326L74.6053 83.2026L71.9553 84.9226L76.6553 92.1626L71.8053 95.3126L67.1053 88.0726L58.5753 93.6126L55.6253 89.0726L60.3353 86.0126L42.6653 58.8026L37.9553 61.8626L35.0153 57.3226L43.5353 51.7826L38.9353 44.6926L43.7853 41.5426L48.3953 48.6326L51.0453 46.9126L46.4353 39.8226L51.2653 36.6826L55.8753 43.7726L60.0653 41.0526C62.4053 39.5326 65.1953 39.0926 67.7353 39.6326C70.2753 40.1726 72.6453 41.7126 74.1653 44.0526C77.1353 48.6326 75.9553 54.7226 71.5653 57.8626C76.8653 54.4226 83.9453 55.9626 87.3853 61.2626C90.8153 66.5426 89.3453 73.6326 84.0453 77.0726Z" fill="#0B3B60"/>
<path d="M71.9555 84.9224L67.1055 88.0724L71.8055 95.3124L76.6555 92.1624L71.9555 84.9224Z" fill="#0B3B60"/>
<path d="M77.6853 70.6226C77.3953 72.1926 76.4553 73.6226 75.0353 74.5426L68.0053 79.1026L61.2253 68.6626L68.2553 64.1026C71.1153 62.2526 74.9753 63.0726 76.8253 65.9226C77.7753 67.3826 78.0553 69.0726 77.6853 70.6226Z" fill="#0B3B60"/>
<path d="M87.3854 61.2626C83.9454 55.9626 76.8654 54.4226 71.5654 57.8626C75.9554 54.7226 77.1354 48.6326 74.1654 44.0526C72.6454 41.7126 70.2754 40.1726 67.7354 39.6326C65.1954 39.0926 62.4054 39.5326 60.0654 41.0526L55.8754 43.7726L51.2654 36.6826L46.4354 39.8226L51.0454 46.9126L48.3954 48.6326L43.7854 41.5426L38.9354 44.6926L43.5354 51.7826L35.0154 57.3226L37.9554 61.8626L42.6654 58.8026L60.3354 86.0126L55.6254 89.0726L58.5754 93.6126L67.1054 88.0726L71.9554 84.9226L74.6054 83.2026L79.3054 90.4326L84.1354 87.3026L79.4354 80.0626L84.0454 77.0726C89.3454 73.6326 90.8154 66.5426 87.3854 61.2626ZM57.9454 63.6126L51.9754 54.4226L58.8854 49.9426C61.4154 48.3026 64.8054 49.0226 66.4454 51.5426C67.2654 52.8226 67.4854 54.2826 67.1954 55.6726C66.9054 57.0326 66.1054 58.3126 64.8454 59.1226L57.9454 63.6126ZM77.6854 70.6226C77.3954 72.1926 76.4554 73.6226 75.0354 74.5426L68.0054 79.1026L61.2254 68.6626L68.2554 64.1026C71.1154 62.2526 74.9754 63.0726 76.8254 65.9226C77.7754 67.3826 78.0554 69.0726 77.6854 70.6226Z" fill="white"/>
<path d="M71.9586 84.9296L67.1111 88.0776L71.8113 95.3154L76.6588 92.1673L71.9586 84.9296Z" fill="white"/>
<path d="M67.1953 55.6723C66.9053 57.0323 66.1053 58.3123 64.8453 59.1223L57.9453 63.6123L51.9753 54.4223L58.8853 49.9423C61.4153 48.3023 64.8053 49.0223 66.4453 51.5423C67.2653 52.8223 67.4853 54.2823 67.1953 55.6723Z" fill="#0B3B60"/>
</svg>
