<svg width="88" height="108" viewBox="0 0 88 108" fill="none" xmlns="http://www.w3.org/2000/svg">
<path fill-rule="evenodd" clip-rule="evenodd" d="M15.5819 0.119141H69.1419V12.3391C69.1419 15.9091 72.0419 18.8091 75.6119 18.8091H87.8319V92.4991C87.8319 94.3391 86.3319 95.8491 84.4819 95.8491H15.5819C13.7419 95.8491 12.2319 94.3491 12.2319 92.4991V3.46914C12.2319 1.62914 13.7319 0.119141 15.5819 0.119141Z" fill="#0B3B60"/>
<path fill-rule="evenodd" clip-rule="evenodd" d="M4.24185 11.459C2.40185 11.459 0.891846 12.959 0.891846 14.809V103.849C0.891846 105.689 2.39185 107.199 4.24185 107.199H73.1418C74.9818 107.199 76.4918 105.699 76.4918 103.849V98.979H15.5818C12.0118 98.979 9.11185 96.079 9.11185 92.509V11.459H4.24185Z" fill="#00E0FF"/>
<path fill-rule="evenodd" clip-rule="evenodd" d="M75.612 15.6892H87.542C87.382 15.3292 87.152 15.0092 86.852 14.7092L73.242 1.09918C72.942 0.79918 72.622 0.56918 72.262 0.40918V12.3392C72.262 14.1792 73.762 15.6892 75.612 15.6892Z" fill="#00E0FF"/>
<path fill-rule="evenodd" clip-rule="evenodd" d="M26.7819 85.1893H73.2819C74.1419 85.1893 74.8419 84.4893 74.8419 83.6293C74.8419 82.7693 74.1419 82.0693 73.2819 82.0693H26.7819C25.9219 82.0693 25.2219 82.7693 25.2219 83.6293C25.2219 84.4893 25.9219 85.1893 26.7819 85.1893Z" fill="white"/>
<path fill-rule="evenodd" clip-rule="evenodd" d="M26.7819 66.099H73.2819C74.1419 66.099 74.8419 65.399 74.8419 64.539C74.8419 63.679 74.1419 62.979 73.2819 62.979H26.7819C25.9219 62.979 25.2219 63.679 25.2219 64.539C25.2219 65.399 25.9219 66.099 26.7819 66.099Z" fill="white"/>
<path fill-rule="evenodd" clip-rule="evenodd" d="M26.4119 75.639H61.9519C62.6119 75.639 63.1419 74.939 63.1419 74.079C63.1419 73.219 62.6119 72.519 61.9519 72.519H26.4119C25.7519 72.519 25.2219 73.219 25.2219 74.079C25.2219 74.939 25.7519 75.639 26.4119 75.639Z" fill="#00E0FF"/>
<path d="M50.032 55.9292C60.8126 55.9292 69.552 47.1898 69.552 36.4092C69.552 25.6286 60.8126 16.8892 50.032 16.8892C39.2514 16.8892 30.512 25.6286 30.512 36.4092C30.512 47.1898 39.2514 55.9292 50.032 55.9292Z" fill="white"/>
<path fill-rule="evenodd" clip-rule="evenodd" d="M53.7719 28.2789V26.7989C53.7719 26.4289 53.4719 26.1289 53.1019 26.1289H51.3319C50.9619 26.1289 50.6619 26.4289 50.6619 26.7989V28.0589H49.0119V26.7989C49.0119 26.4289 48.7119 26.1289 48.3419 26.1289H46.5619C46.1919 26.1289 45.8919 26.4289 45.8919 26.7989V28.0589H43.6019C43.2319 28.0589 42.9319 28.3589 42.9319 28.7289V30.5089C42.9319 30.8789 43.2319 31.1789 43.6019 31.1789H44.0019V41.6289H43.6019C43.2319 41.6289 42.9319 41.9289 42.9319 42.2989V44.0789C42.9319 44.4489 43.2319 44.7489 43.6019 44.7489H45.8919V46.0089C45.8919 46.3789 46.1919 46.6789 46.5619 46.6789H48.3419C48.7119 46.6789 49.0119 46.3789 49.0119 46.0089V44.7489H50.6519V46.0089C50.6519 46.3789 50.9519 46.6789 51.3219 46.6789H53.1019C53.4719 46.6789 53.7719 46.3789 53.7719 46.0089V44.7289C54.9419 44.6389 56.0419 44.1289 56.8819 43.2889C57.8119 42.3589 58.3319 41.1089 58.3319 39.7889C58.3319 38.4689 57.8919 37.2789 56.9619 36.3489C56.7719 36.1589 56.5719 35.9889 56.3519 35.8389C56.9319 35.0089 57.2519 34.0289 57.2519 33.0089C57.2519 31.6889 56.7319 30.4389 55.8019 29.5089C55.2319 28.9389 54.5319 28.5189 53.7619 28.2789H53.7719Z" fill="#0B3B60"/>
<path fill-rule="evenodd" clip-rule="evenodd" d="M47.1218 37.979V41.639H53.3918C53.8818 41.639 54.3418 41.439 54.6818 41.099C55.0218 40.759 55.2218 40.289 55.2218 39.809C55.2218 39.359 55.1018 38.899 54.7718 38.579C54.3918 38.209 53.8318 38.039 53.3218 37.989H47.1118L47.1218 37.979Z" fill="white"/>
<path fill-rule="evenodd" clip-rule="evenodd" d="M52.4418 34.8492C52.8818 34.8192 53.2918 34.6192 53.6118 34.3092C53.9618 33.9592 54.1518 33.4992 54.1518 33.0092C54.1518 32.5192 53.9518 32.0592 53.6118 31.7192C53.2718 31.3792 52.8018 31.1792 52.3218 31.1792H47.1318V34.8492H52.4518H52.4418Z" fill="white"/>
</svg>
