<svg width="128" height="129" viewBox="0 0 128 129" fill="none" xmlns="http://www.w3.org/2000/svg">
<g clip-path="url(#clip0_114_67860)">
<path d="M64.3618 127.765C99.4319 127.765 127.862 99.3347 127.862 64.2646C127.862 29.1946 99.4319 0.764648 64.3618 0.764648C29.2917 0.764648 0.861816 29.1946 0.861816 64.2646C0.861816 99.3347 29.2917 127.765 64.3618 127.765Z" fill="#00D2E2"/>
<path d="M64.8618 119.659C95.2375 119.659 119.862 95.0348 119.862 64.6592C119.862 34.2835 95.2375 9.65918 64.8618 9.65918C34.4862 9.65918 9.86182 34.2835 9.86182 64.6592C9.86182 95.0348 34.4862 119.659 64.8618 119.659Z" fill="white"/>
<path d="M61.5804 59.883L69.673 58.7402L66.7479 68.4427L58.6553 69.5783L61.5804 59.883Z" fill="#0B3B60"/>
<path d="M64.3618 17.6592C38.6754 17.6592 17.8618 38.48 17.8618 64.1592C17.8618 89.8384 38.6754 110.659 64.3618 110.659C90.0482 110.659 110.862 89.8384 110.862 64.1592C110.862 38.48 90.041 17.6592 64.3618 17.6592ZM84.2267 56.6991L76.1341 57.8346L73.2665 67.5227L80.5182 66.5021L79.2821 72.9273L71.3045 74.0485L68.4369 83.6216L61.9182 84.5344L64.7787 74.9613L56.6861 76.104L53.8185 85.6771L47.3573 86.5827L50.225 77.0096L42.9733 78.0301L44.1519 71.6121L52.187 70.4838L55.1121 60.7885L47.8604 61.809L49.0966 55.3838L57.0814 54.2627L59.949 44.6896L66.4101 43.784L63.5425 53.3571L71.6423 52.2215L74.5027 42.6413L80.971 41.7357L78.1034 51.3088L85.4126 50.2811L84.2267 56.6991Z" fill="#0B3B60"/>
<path d="M84.2266 56.6992L85.4125 50.2812L78.1033 51.3089L80.9709 41.7358L74.5026 42.6414L71.6422 52.2217L63.5424 53.3572L66.41 43.7841L59.9489 44.6897L57.0813 54.2628L49.0965 55.384L47.8603 61.8092L55.112 60.7886L52.1869 70.4839L44.1518 71.6123L42.9731 78.0303L50.2248 77.0097L47.3572 86.5828L53.8184 85.6773L56.686 76.1042L64.7786 74.9614L61.9181 84.5345L68.4367 83.6218L71.3044 74.0487L79.282 72.9275L80.5181 66.5023L73.2664 67.5229L76.134 57.8348L84.2266 56.6992ZM66.7478 68.4428L58.6552 69.5783L61.5803 59.8831L69.6729 58.7403L66.7478 68.4428Z" fill="white"/>
</g>
<defs>
<clipPath id="clip0_114_67860">
<rect width="127" height="128" fill="white" transform="translate(0.861816 0.65918)"/>
</clipPath>
</defs>
</svg>
