<svg width="28" height="29" viewBox="0 0 28 29" fill="none" xmlns="http://www.w3.org/2000/svg">
<path d="M24.0625 3.36279H3.9375C3.45352 3.36279 3.0625 3.75381 3.0625 4.23779V24.3628C3.0625 24.8468 3.45352 25.2378 3.9375 25.2378H24.0625C24.5465 25.2378 24.9375 24.8468 24.9375 24.3628V4.23779C24.9375 3.75381 24.5465 3.36279 24.0625 3.36279ZM9.55117 22.003H6.30547V11.5632H9.55117V22.003ZM7.92969 10.1358C7.55761 10.1358 7.19389 10.0255 6.88452 9.81879C6.57515 9.61208 6.33403 9.31827 6.19164 8.97451C6.04925 8.63076 6.012 8.2525 6.08459 7.88758C6.15717 7.52265 6.33635 7.18744 6.59944 6.92435C6.86254 6.66125 7.19775 6.48208 7.56267 6.40949C7.9276 6.3369 8.30586 6.37415 8.64961 6.51654C8.99336 6.65893 9.28718 6.90005 9.49389 7.20942C9.7006 7.51879 9.81094 7.88251 9.81094 8.25459C9.8082 9.29365 8.96602 10.1358 7.92969 10.1358ZM21.7027 22.003H18.4598V16.9253C18.4598 15.714 18.4379 14.1581 16.7727 14.1581C15.0855 14.1581 14.8258 15.4761 14.8258 16.8378V22.003H11.5855V11.5632H14.6973V12.9905H14.741C15.173 12.1702 16.2313 11.3034 17.8117 11.3034C21.0984 11.3034 21.7027 13.4663 21.7027 16.2772V22.003V22.003Z" fill="#008FFF"/>
</svg>
