<svg width="28" height="29" viewBox="0 0 28 29" fill="none" xmlns="http://www.w3.org/2000/svg">
<path d="M25.7387 8.39678C25.5992 7.87735 25.3258 7.40366 24.9457 7.02313C24.5656 6.64259 24.0923 6.36854 23.573 6.22842C21.6617 5.71436 14 5.71436 14 5.71436C14 5.71436 6.33828 5.71436 4.42695 6.22568C3.90748 6.36535 3.4339 6.63925 3.05377 7.01985C2.67364 7.40046 2.40034 7.87439 2.26133 8.39404C1.75 10.3081 1.75 14.3003 1.75 14.3003C1.75 14.3003 1.75 18.2925 2.26133 20.2038C2.54297 21.2593 3.37422 22.0905 4.42695 22.3722C6.33828 22.8862 14 22.8862 14 22.8862C14 22.8862 21.6617 22.8862 23.573 22.3722C24.6285 22.0905 25.457 21.2593 25.7387 20.2038C26.25 18.2925 26.25 14.3003 26.25 14.3003C26.25 14.3003 26.25 10.3081 25.7387 8.39678ZM11.5664 17.9644V10.6362L17.9102 14.2729L11.5664 17.9644Z" fill="#008FFF"/>
</svg>
