<svg width="28" height="29" viewBox="0 0 28 29" fill="none" xmlns="http://www.w3.org/2000/svg">
<path d="M13.9992 10.6563C11.9921 10.6563 10.3542 12.2942 10.3542 14.3012C10.3542 16.3082 11.9921 17.9461 13.9992 17.9461C16.0062 17.9461 17.6441 16.3082 17.6441 14.3012C17.6441 12.2942 16.0062 10.6563 13.9992 10.6563ZM24.9312 14.3012C24.9312 12.7918 24.9449 11.2961 24.8601 9.78948C24.7753 8.03948 24.3761 6.48636 23.0964 5.20667C21.814 3.92425 20.2636 3.52777 18.5136 3.443C17.0042 3.35824 15.5085 3.37191 14.0019 3.37191C12.4925 3.37191 10.9968 3.35824 9.49017 3.443C7.74017 3.52777 6.18704 3.92699 4.90736 5.20667C3.62493 6.48909 3.22845 8.03948 3.14368 9.78948C3.05892 11.2989 3.07259 12.7946 3.07259 14.3012C3.07259 15.8078 3.05892 17.3063 3.14368 18.8129C3.22845 20.5629 3.62767 22.116 4.90736 23.3957C6.18978 24.6782 7.74017 25.0746 9.49017 25.1594C10.9995 25.2442 12.4952 25.2305 14.0019 25.2305C15.5113 25.2305 17.007 25.2442 18.5136 25.1594C20.2636 25.0746 21.8167 24.6754 23.0964 23.3957C24.3788 22.1133 24.7753 20.5629 24.8601 18.8129C24.9476 17.3063 24.9312 15.8106 24.9312 14.3012V14.3012ZM13.9992 19.9094C10.8956 19.9094 8.39095 17.4047 8.39095 14.3012C8.39095 11.1977 10.8956 8.693 13.9992 8.693C17.1027 8.693 19.6074 11.1977 19.6074 14.3012C19.6074 17.4047 17.1027 19.9094 13.9992 19.9094ZM19.837 9.77308C19.1124 9.77308 18.5273 9.18792 18.5273 8.46331C18.5273 7.7387 19.1124 7.15355 19.837 7.15355C20.5617 7.15355 21.1468 7.7387 21.1468 8.46331C21.147 8.63537 21.1133 8.80579 21.0475 8.96479C20.9818 9.1238 20.8853 9.26827 20.7637 9.38994C20.642 9.5116 20.4975 9.60807 20.3385 9.67382C20.1795 9.73956 20.0091 9.77329 19.837 9.77308V9.77308Z" fill="#008FFF"/>
</svg>
