<svg width="28" height="29" viewBox="0 0 28 29" fill="none" xmlns="http://www.w3.org/2000/svg">
<path d="M25.3753 7.25382C24.5386 7.61476 23.628 7.87452 22.6901 7.9757C23.6639 7.3972 24.3931 6.48327 24.7409 5.40538C23.8272 5.94895 22.8262 6.3301 21.7823 6.53194C21.346 6.06553 20.8184 5.69397 20.2322 5.4404C19.646 5.18684 19.0139 5.05671 18.3753 5.05812C15.7913 5.05812 13.7132 7.15265 13.7132 9.72296C13.7132 10.0839 13.7569 10.4448 13.828 10.7921C9.95889 10.5898 6.50811 8.74132 4.21396 5.91124C3.79595 6.62523 3.57689 7.43819 3.57959 8.26554C3.57959 9.88429 4.40264 11.3116 5.65771 12.1511C4.91808 12.122 4.19576 11.9187 3.54951 11.5577V11.6151C3.54951 13.8819 5.15186 15.7605 7.2874 16.1925C6.88643 16.2966 6.47394 16.3499 6.05967 16.3511C5.75615 16.3511 5.46904 16.321 5.1792 16.28C5.76982 18.1284 7.48975 19.471 9.53779 19.5148C7.93545 20.7698 5.92842 21.5081 3.74912 21.5081C3.35811 21.5081 2.99717 21.4944 2.62256 21.4507C4.68975 22.7769 7.14248 23.5425 9.78389 23.5425C18.3589 23.5425 23.0511 16.4386 23.0511 10.2726C23.0511 10.0702 23.0511 9.86788 23.0374 9.66554C23.9452 9.00109 24.7409 8.17804 25.3753 7.25382Z" fill="#008FFF"/>
</svg>
