<svg width="28" height="29" viewBox="0 0 28 29" fill="none" xmlns="http://www.w3.org/2000/svg">
<path d="M24.0625 3.36279H3.9375C3.45352 3.36279 3.0625 3.75381 3.0625 4.23779V24.3628C3.0625 24.8468 3.45352 25.2378 3.9375 25.2378H24.0625C24.5465 25.2378 24.9375 24.8468 24.9375 24.3628V4.23779C24.9375 3.75381 24.5465 3.36279 24.0625 3.36279ZM21.5359 9.74756H19.7887C18.4188 9.74756 18.1535 10.3983 18.1535 11.3554V13.4636H21.4238L20.9973 16.764H18.1535V25.2378H14.7438V16.7667H11.8918V13.4636H14.7438V11.03C14.7438 8.20537 16.4691 6.66592 18.9902 6.66592C20.1988 6.66592 21.2352 6.75615 21.5387 6.79717V9.74756H21.5359Z" fill="#008FFF"/>
</svg>
