<svg width="16" height="16" viewBox="0 0 16 16" fill="none" xmlns="http://www.w3.org/2000/svg">
<path d="M15.8187 13.4455L10.3521 7.96245L15.8312 2.55014C16.0562 2.32532 16.0562 1.95894 15.8312 1.73412L14.2729 0.168729C14.1646 0.0604877 14.0187 0.00219727 13.8646 0.00219727C13.7104 0.00219727 13.5646 0.0646478 13.4562 0.168729L8.00208 5.56438L2.53958 0.172879C2.43126 0.0646278 2.28541 0.0063473 2.13125 0.0063473C1.97708 0.0063473 1.83124 0.0687978 1.72291 0.172879L0.168751 1.73829C-0.0562504 1.96311 -0.0562504 2.32949 0.168751 2.55429L5.64792 7.9666L0.185411 13.4455C0.0770806 13.5538 0.0145901 13.6995 0.0145901 13.8535C0.0145901 14.0076 0.0729206 14.1533 0.185411 14.2615L1.74374 15.8269C1.85624 15.9394 2.00208 15.9976 2.15208 15.9976C2.29792 15.9976 2.44792 15.9435 2.56041 15.8269L8.00206 10.3647L13.4479 15.8228C13.5604 15.9352 13.7062 15.9935 13.8562 15.9935C14.0021 15.9935 14.1521 15.9394 14.2646 15.8228L15.8229 14.2574C15.9312 14.1491 15.9937 14.0034 15.9937 13.8494C15.9896 13.6995 15.9271 13.5538 15.8187 13.4455Z" fill="white"/>
</svg>
