<?xml version="1.0" encoding="UTF-8"?>
<svg width="250px" height="53px" viewBox="0 0 250 53" version="1.1" xmlns="http://www.w3.org/2000/svg" xmlns:xlink="http://www.w3.org/1999/xlink">
    <title>形状结合</title>
    <g id="页面-1" stroke="none" stroke-width="1" fill="none" fill-rule="evenodd">
        <g id="画板" fill="#F2EAE1">
            <path d="M119.188735,19.1892464 C119.1921,19.2981673 119.00447,20.7375881 118.791285,22.2576641 L118.72982,22.6930839 C118.695442,22.9350004 118.660811,23.1759427 118.626576,23.4108997 L118.575601,23.7582201 L125.399944,23.7211189 C126.48302,23.7156449 127.394063,23.9218304 128.133074,24.3335931 C128.872691,24.7447475 129.409382,25.3079562 129.752235,26.0311258 C130.094482,26.7542954 130.219266,27.5918097 130.126587,28.5515756 C130.041176,29.5186401 129.708621,30.5398359 129.135585,31.6382752 C128.561943,32.7288077 127.815663,33.7597349 126.903408,34.7237583 C125.983278,35.6877817 124.972287,36.5392851 123.870434,37.2703615 C122.769186,37.9935311 121.636439,38.5737698 120.457656,38.9952639 C119.416849,39.370466 118.404758,39.5779505 117.43202,39.6236978 L117.069109,39.6332832 L110.728757,39.6673434 C109.095058,41.120373 105.270978,44.5154384 105.181328,44.5459527 C105.121146,44.5663021 107.218595,41.5622097 109.21061,38.7239283 L109.532358,38.2656237 C110.33263,37.1260152 111.095469,36.0420004 111.670088,35.2261453 C112.275027,34.3678299 113.176518,33.7717776 114.194801,33.5502404 L114.414726,33.5085414 L123.834695,31.9837423 L119.499971,30.6237698 C117.194498,29.9006002 115.978159,27.3716353 116.849828,25.1096775 C116.910504,24.952217 116.971664,24.7935907 117.033067,24.6344363 L117.217765,24.1560263 C117.248589,24.0762398 117.279414,23.9964807 117.31021,23.9168286 L117.494386,23.4408389 C117.953868,22.2543426 118.393046,21.128102 118.709508,20.3331134 L118.88384,19.8980384 C119.041807,19.5070496 119.148222,19.2548232 119.180964,19.1998943 L119.188735,19.1892464 Z M116.683672,19.5491783 L111.714731,27.4827565 C111.118272,28.4347372 110.168273,29.1037918 109.08143,29.3450308 L108.84652,29.3901239 L99.5579987,30.8997177 L103.780054,32.2244136 C106.057904,32.9393288 107.263953,35.4117033 106.466972,37.6404571 L106.391428,37.8364287 L105.62213,39.6951389 L104.336129,42.9083475 L104.265863,39.7024375 L98.6578589,39.7328483 C97.5747837,39.7389305 96.6637405,39.5400436 95.9241237,39.1282809 C95.1851126,38.7171265 94.6478152,38.146011 94.3055682,37.4307482 C93.9633213,36.7075786 93.8385375,35.8621574 93.9312167,34.9029998 C94.0160213,33.9432339 94.349182,32.9141313 94.9222185,31.8235988 C95.4958607,30.7257677 96.2348718,29.7021391 97.1543954,28.7302089 C98.0745248,27.7661854 99.0855162,26.9225889 100.186764,26.1915125 C101.281348,25.4610443 102.421364,24.8881042 103.599541,24.4666101 C104.640887,24.091408 105.653038,23.8781567 106.625782,23.8311279 L106.988695,23.8212922 L112.504019,23.7914896 L116.683672,19.5491783 Z M95.6843085,18.9488003 C97.0460273,18.9416307 98.0188567,19.2439144 98.6046138,19.8545639 C99.1897652,20.4658217 99.467803,21.2315664 99.4381214,22.1530147 C99.4078341,23.0744629 99.1128354,24.0719383 98.5513081,25.1448325 C97.9897808,26.2177266 97.2398663,27.2176348 96.302776,28.1439488 C95.3656857,29.0702628 94.2813989,29.8439144 93.0523387,30.4649036 C91.9333592,31.0294393 90.7613142,31.3401324 89.5343834,31.39744 L89.1646558,31.4070312 L84.0442782,31.4350092 L70.6657545,31.507387 C71.3672093,31.0323697 72.0232331,30.5768155 72.6350373,30.1413323 C73.2468416,29.7064574 73.8471366,29.3293631 74.4365283,29.011874 C75.0253142,28.6943849 75.6359069,28.4401503 76.2664893,28.2503867 C76.7919747,28.0917436 77.3519539,27.9981458 77.9467777,27.9688894 L78.307856,27.959051 L82.2894297,27.9079608 L81.326898,27.9426291 L86.6841227,27.9134347 L86.7434859,27.9134347 C87.0390903,27.9116101 87.3686165,27.8550459 87.7326704,27.7425258 C88.0961184,27.630614 88.4486631,27.4736941 88.79091,27.2711579 C89.133157,27.06923 89.453597,26.8320255 89.7528359,26.5601526 C90.0526806,26.2882798 90.3064885,25.9908618 90.5148654,25.6691152 C90.8062296,25.1867994 90.9952226,24.7500998 91.0818444,24.3590165 C91.1684662,23.9679332 91.1672547,23.6321976 91.0782099,23.3524179 C90.9885594,23.0726383 90.8147101,22.858546 90.5584792,22.7095329 C90.3444486,22.5853554 90.0828838,22.513552 89.7734341,22.4941229 L89.5820153,22.4887503 L74.7236523,22.5696431 L68.169472,35.6590739 L57.8317972,39.9579493 L65.4236218,25.4519819 C66.4804619,23.4324509 66.1080681,20.9678297 64.5283445,19.3539144 L64.3544787,19.1843092 L95.6843085,18.9488003 Z M139.373554,18.7341968 C142.005672,18.710559 143.731461,21.4523178 142.636415,23.8109133 L142.557359,23.9710959 L136.452037,35.6385162 C136.306052,35.9164712 136.277582,36.1494182 136.366627,36.3367489 C136.442431,36.4983608 136.587217,36.5893698 136.800984,36.6113082 L136.913616,36.6165286 L137.920367,36.6110546 C138.198889,37.5719457 138.979817,38.4922171 140.600208,39.3442308 L140.863085,39.478188 L128.948651,39.5426893 C128.316857,39.5457 127.89344,39.3206599 127.679612,38.8657138 C127.486076,38.4568097 127.514806,37.9745 127.76492,37.4183412 L127.85649,37.2302192 L137.526632,18.7513805 L139.373554,18.7341968 Z M170.475259,23.4768591 C171.529864,23.4908481 172.422129,23.7037239 173.150843,24.1160948 C173.879556,24.5278575 174.409585,25.0947154 174.740322,25.8160604 C175.07106,26.5380135 175.189181,27.3743115 175.094684,28.3255623 C175.010149,29.1711186 174.737997,30.0733818 174.276951,31.030643 L174.095202,31.3921907 L169.930693,39.3500975 L162.116559,39.3920645 L166.281068,31.4347659 C166.603326,30.8186424 166.786261,30.2426612 166.830481,29.7074306 C166.8747,29.1728081 166.802616,28.7075224 166.616046,28.3121815 C166.429476,27.9168407 166.13266,27.6011763 165.724387,27.3657964 C165.367678,27.1598391 164.932127,27.0451522 164.419358,27.0221433 L164.194876,27.0178965 L155.759247,27.0635127 C155.147442,27.0665538 154.513226,27.1888054 153.855384,27.4302674 C153.198149,27.6717294 152.562721,27.9922596 151.950311,28.3918579 C151.337901,28.7914563 150.777585,29.2597831 150.269969,29.7974466 C149.762353,30.3351102 149.347417,30.9123078 149.02516,31.5284313 C148.702902,32.1439465 148.514515,32.7193195 148.460604,33.2551584 C148.406692,33.790389 148.475747,34.2605405 148.667163,34.6656128 C148.857973,35.0706851 149.160847,35.3863496 149.573966,35.6113897 C149.935446,35.8093642 150.372984,35.9188622 150.886582,35.9411061 L151.111352,35.9453007 L163.069399,35.8802215 L157.658869,39.4498451 C157.658869,39.4498451 156.75646,39.3905083 156.041221,39.4191744 L155.900991,39.4261246 L145.216224,39.4840378 C144.130725,39.4899874 143.218471,39.286843 142.480065,38.8744721 C141.741054,38.4627094 141.20194,37.8964597 140.860904,37.1745065 C140.519869,36.4531616 140.395085,35.6119979 140.484736,34.6504074 C140.574992,33.6894251 140.90573,32.6621471 141.477555,31.5691818 C142.04938,30.4768246 142.795054,29.4471138 143.713366,28.4806576 C144.632284,27.5154177 145.640852,26.6675637 146.740888,25.9383119 C147.840925,25.2090601 148.978517,24.633079 150.154272,24.2109766 C151.198848,23.8352339 152.208007,23.6243253 153.181324,23.578251 L153.544636,23.5686998 L170.475259,23.4768591 Z M186.167614,22.9528196 L185.731477,23.8243941 C186.534178,23.578327 187.312847,23.4305676 188.064813,23.3903083 L188.438559,23.3791795 L206.359578,23.3116674 L203.752444,25.0791451 C203.048566,25.5584198 202.333179,25.9488949 201.605072,26.2499621 C200.99781,26.5008515 200.403169,26.6761362 199.821147,26.7754641 L199.473449,26.8259433 L199.20692,26.827768 L191.008137,26.8721678 C190.396333,26.8752089 189.762116,26.9974604 189.104275,27.2389224 C188.44704,27.4803844 187.811611,27.8009146 187.199807,28.200513 C186.586791,28.6001113 186.026475,29.0684381 185.519465,29.6061017 C185.095947,30.0541546 184.737211,30.5296618 184.443255,31.0322712 L184.274656,31.3370863 L180.110147,39.2943849 L172.296013,39.3369601 L176.460522,31.3790532 C176.563499,31.181991 176.673476,30.9873617 176.788657,30.7946246 L176.965109,30.5068706 L180.944866,22.9807976 L186.167614,22.9528196 Z M217.148352,23.223476 L210.656564,35.6213645 L234.400021,35.4924225 C234.753777,35.4905979 235.12934,35.3598313 235.518835,35.1013392 C235.908331,34.8422389 236.20757,34.5235334 236.401409,34.1446144 C236.602516,33.7663036 236.638256,33.4488146 236.5165,33.1927553 C236.409965,32.9687035 236.212065,32.8433729 235.927266,32.8167634 L235.799902,32.8114035 L219.757304,32.8983785 C219.110972,32.9020278 218.560954,32.7767351 218.11573,32.5218924 C217.663237,32.2676578 217.337951,31.9221907 217.132603,31.4854912 C216.927255,31.0481834 216.849114,30.5427553 216.898785,29.9533934 C216.908073,29.8224241 216.927322,29.6914547 216.954379,29.5583229 L217.00055,29.3567328 L225.627596,29.3099002 C225.692613,29.3346343 225.76113,29.3493667 225.8353,29.3562598 L225.951065,29.3609904 L241.993057,29.2734072 C242.647869,29.2703661 243.190013,29.3956587 243.642506,29.6498933 C244.08773,29.9041278 244.413016,30.2495949 244.618364,30.6869027 C244.823712,31.1236022 244.893979,31.6369371 244.844913,32.2183922 C244.801451,32.7340839 244.642972,33.2735246 244.374753,33.8416037 L244.253098,34.0868338 L244.208273,34.1172447 C243.865421,34.7765515 243.409899,35.398149 242.841708,35.990552 C242.280787,36.5750482 241.667165,37.0914241 240.999632,37.5329894 C240.34058,37.975163 239.650029,38.326104 238.929796,38.5864207 C238.318684,38.8100707 237.728934,38.9389878 237.160927,38.973555 L236.878737,38.982978 L208.817517,39.1350321 L208.802979,39.165443 L200.988845,39.2080181 L201.003383,39.1776073 L202.797605,35.7545639 L209.334219,23.2660512 L217.148352,23.223476 Z M250,23.0452685 L249.910349,23.1060902 L249.970318,23.1060902 L249.864918,23.136501 L247.39226,24.8115297 C246.627808,25.3291221 245.862749,25.7560902 245.082548,26.06993 C244.413284,26.3457128 243.765827,26.5209537 243.135218,26.5918225 L242.821295,26.6185414 L227.463796,26.7018671 L227.463191,26.6641577 L218.415756,26.7134232 C218.550232,26.5461636 218.699852,26.3868109 218.849471,26.2274581 C219.410393,25.6429619 220.024014,25.1259777 220.690941,24.6923193 C221.3506,24.250754 222.040545,23.8992047 222.761384,23.638888 C223.372496,23.415238 223.962246,23.2863209 224.530253,23.2517537 L224.812443,23.2423307 L238.011665,23.1705612 L236.41734,23.1188627 L250,23.0452685 Z M219.72417,18.3083555 L218.287338,21.0501962 L210.473205,21.0921632 L211.910036,18.3509307 L219.72417,18.3083555 Z M20.8164885,0 L20.8164885,4.02335322 C26.0059213,4.04038329 31.4951987,4.27941244 36.4350638,4.94054395 L36.4350638,4.94054395 L36.4350638,0.0729859995 L42.5664329,0.0729859995 L42.5664329,6.07547625 C52.8017364,8.65005738 52.4098182,15.827014 49.2193499,19.7670415 C46.9447707,22.5770025 43.4926197,24.5494492 40.3869559,26.2932063 C36.5792316,28.4323043 32.5703993,30.2490475 29.0364725,32.8187629 C29.0231461,30.0240073 29.0098196,27.22986 28.9964932,24.4351044 C28.9940702,23.9448818 34.6390246,22.0204843 39.001613,19.6855405 C41.2022911,18.5074248 40.7128477,15.1695318 38.2565444,14.7346569 C34.6959648,14.1045444 29.5192527,14.5011017 27.5142308,14.7048543 L27.5142308,14.7048543 L27.5142308,45.1138627 L8.65248718,53 L8.65248718,14.6659284 C8.55633285,14.6832572 6.31833318,12.1705863 4.14279919,9.69781586 L3.69430306,9.18762047 C1.76094862,6.98654662 0,4.96000689 0,4.96000689 C0,4.96000689 6.37003327,4.32259582 14.6851195,4.09877209 L14.6851195,4.09877209 L14.6851195,0 L20.8164885,0 Z M41.2687415,31.4274065 C41.849895,34.9670906 44.55877,37.7609148 48.0450984,38.4525416 L48.3147882,38.5015745 C44.7894782,39.0845045 42.0069992,41.8044099 41.3176195,45.3055168 L41.2687415,45.5763507 C40.5600178,41.9619472 37.7126315,39.088778 34.4732291,38.5392371 L34.2233006,38.5015745 C37.7486106,37.9186444 40.5310896,35.198739 41.2199078,31.6981959 L41.2687415,31.4274065 Z" id="形状结合"></path>
        </g>
    </g>
</svg>