<svg fill="none" height="30" viewBox="0 0 28 30" width="28" xmlns="http://www.w3.org/2000/svg" xmlns:xlink="http://www.w3.org/1999/xlink"><linearGradient id="a" gradientUnits="userSpaceOnUse" x1=".543945" x2="27.45" y1="36.25" y2="36.25"><stop offset="0" stop-color="#01c7ed"/><stop offset="1" stop-color="#04f76e"/></linearGradient><path d="m24.7694 3.49898h-7.0922v-1.14628c0-.2335-.189-.42226-.4222-.42226h-1.6289v-1.508185c0-.233492-.189-.422255-.4223-.422255h-2.5337c-.2335 0-.4223.189003-.4223.422255v1.508185h-1.6289c-.2335 0-.4223.189-.4223.42226v1.14628h-6.92653c-1.64263 0-2.726125 1.00587-2.726125 2.63089v11.49673c0 1.651 1.034245 2.6433 2.726125 2.6433h21.84403c1.6783 0 2.3359-.616 2.3359-2.9879v-11.15201c0-1.64767-1.002-2.63113-2.6805-2.63113zm-18.6929 14.17692c0 .423-.3441.7671-.76708.7671s-.76708-.3441-.76708-.7671v-1.9304c0-.423.3441-.7671.76708-.7671s.76708.3441.76708.7671zm4.1023 0c0 .423-.34407.7671-.76705.7671s-.76709-.3441-.76709-.7671v-5.4294c0-.423.3441-.7671.76709-.7671.42297 0 .76705.3441.76705.7671zm5.0245-14.90085h1.6289v.72405h-5.7913v-.72405h1.6289c.2335 0 .4223-.189.4223-.42226l-.0003-1.508181h1.6892v1.508181m-.6206 15.32321c0 .4229-.3441.767-.7671.767-.4229 0-.7671-.3441-.7671-.767v-3.7405c0-.4229.3441-.767.7671-.767s.7671.3441.7671.767zm3.9816 0c0 .4229-.3441.767-.7671.767-.4229 0-.767-.3441-.767-.767v-6.8774c0-.4229.3441-.767.767-.767.423 0 .7671.3441.7671.767zm3.9816 0c0 .4229-.3441.767-.7671.767-.4229 0-.767-.3441-.767-.767v-10.37636c0-.42297.3441-.76708.767-.76708.423 0 .7671.3441.7671.76708zm-1.3562 12.324c-.2457 0-.4785-.119-.6223-.3181l-5.2572-7.275h-2.0999l-5.25752 7.2737c-.23854.33-.73944.411-1.07081.1724-.16616-.1199-.27581-.2974-.30827-.5001-.03246-.202.01563-.405.13586-.5711l4.67344-6.4649-8.68472-.0002c-.42298 0-.76709-.3441-.76709-.7671s.34411-.7671.76709-.7671h23.44152c.423 0 .7671.3441.7671.7671-.0003.423-.3444.7671-.7673.7671h-9.0024l4.6734 6.4667c.12.1661.1684.3691.1359.5716-.0327.202-.1421.3794-.3085.4994-.1313.095-.2864.1453-.4485.1453z" fill="url(#a)"/></svg>