<svg fill="none" height="30" viewBox="0 0 31 30" width="31" xmlns="http://www.w3.org/2000/svg" xmlns:xlink="http://www.w3.org/1999/xlink"><linearGradient id="a" gradientUnits="userSpaceOnUse" x1=".543945" x2="30.3577" y1="36.25" y2="36.25"><stop offset="0" stop-color="#01c7ed"/><stop offset="1" stop-color="#04f76e"/></linearGradient><path d="m29.2801 4.54238h-2.4695c0 1.11595-.9045 2.02048-2.0205 2.02048-1.1159 0-2.0205-.90453-2.0205-2.02048h-5.2983c0 1.11595-.9045 2.02048-2.0205 2.02048-1.1159 0-2.0204-.90453-2.0204-2.02048h-5.29834c0 1.11595-.90454 2.02048-2.02049 2.02048s-2.02048-.90453-2.02048-2.02048h-2.46949c-.59256 0-1.077655.48482-1.077655 1.07765l.000251 23.30227c0 .5926.484824 1.0777 1.077654 1.0777h27.65825c.5925 0 1.0776-.4848 1.0776-1.0777l-.0002-23.30227c0-.59256-.4848-1.07765-1.0774-1.07765zm-20.21643 20.87062h-5.5228v-5.5227h5.5228zm0-9.2044h-5.5228v-5.5228h5.5228zm9.14803 9.2044h-5.5228v-5.5227h5.5228zm0-9.2044h-5.5228v-5.5228h5.5228zm9.1486 9.2044h-5.5228v-5.5227h5.5228zm0-9.2044h-5.5228v-5.5228h5.5228zm-10.9222-10.85097h-1.9756l.0002-5.35763h1.9757zm-9.33912 0h-1.97565v-5.35763h1.97565zm18.67832 0h-1.9757v-5.35763h1.9757z" fill="url(#a)"/></svg>