<?xml version="1.0" encoding="UTF-8"?>
<svg id="Layer_2" data-name="Layer 2" xmlns="http://www.w3.org/2000/svg" viewBox="0 0 1024 1024">
  <defs>
    <style>
      .cls-1 {
        fill: #0d0d0d;
      }

      .cls-2 {
        fill: #b22e45;
      }

      .cls-3 {
        fill: #fcfcfc;
      }
    </style>
  </defs>
  <g id="Content-Color">
    <g>
      <rect class="cls-3" width="1024" height="1024"/>
      <g>
        <g>
          <path class="cls-2" d="M218.19,696.52c3.9,0,5.26-.91,5.26-4.72v-17.61h8.26v17.83c0,7.17-4.04,10.8-12.07,10.8l-1.45-6.31Z"/>
          <path class="cls-2" d="M263.19,702.64c-8.62,0-12.43-3.95-12.43-13.89v-14.57h8.17v14.57c0,5.36,1.13,7.62,4.22,7.62s4.31-2.22,4.31-7.53v-14.66h8.17v14.66c0,9.94-3.77,13.79-12.43,13.79Z"/>
          <path class="cls-2" d="M294.89,702.33v-28.13h8.17v21.92h10.12l-1.45,6.22h-16.84Z"/>
          <path class="cls-2" d="M330.4,702.33v-28.13h8.17v28.13h-8.17Z"/>
          <path class="cls-2" d="M386.06,702.33h-8.85l-1.72-3.68h-9.8l-1.59,3.68h-8.98l14.75-28.82h1.5l14.7,28.82Zm-15.43-15.38l-2.77,6.17h5.45l-2.68-6.17Z"/>
          <path class="cls-2" d="M454,702.33h-8.85l-1.72-3.68h-9.8l-1.59,3.68h-8.98l14.75-28.82h1.5l14.7,28.82Zm-15.43-15.38l-2.77,6.17h5.45l-2.68-6.17Z"/>
          <path class="cls-2" d="M470.54,702.33v-28.13h8.17v21.92h10.12l-1.45,6.22h-16.83Z"/>
          <path class="cls-2" d="M514.22,694.97v7.35h-8.17v-28.13h7.4c9.44,0,13.98,4.22,13.98,10.35s-4.4,10.16-13.21,10.44Zm.23-14.61h-.18v8.49h.18c2.81,0,4.94-1.54,4.94-4.31,0-2.54-2.13-4.18-4.94-4.18Z"/>
          <path class="cls-2" d="M545.55,702.33v-28.13h17.29v6.17h-9.12v3.95h6.67v6.22h-6.67v5.58h12.75l-1.45,6.22h-19.47Z"/>
          <path class="cls-2" d="M607.39,702.55c-8.48,0-9.85-4.94-11.62-8.26-.91-1.63-1.86-2.9-3.9-2.9v10.94h-8.17v-28.13h7.21c7.94,0,12.52,2.5,12.52,8.26,0,4.04-2.9,5.9-4.49,6.17,4.45,1.14,3.4,7.67,9.89,7.67l-1.45,6.26Zm-15.52-22.41v5.63c2.32,0,3.77-1.13,3.77-2.95,0-1.59-1.59-2.68-3.77-2.68Z"/>
          <path class="cls-2" d="M637.4,702.64c-8.39,0-15.07-5.26-15.07-14.43s6.67-14.39,15.07-14.39,15.11,5.26,15.11,14.43-6.72,14.39-15.11,14.39Zm0-22.6c-3.72,0-6.81,3.04-6.81,8.17s3.08,8.17,6.81,8.17,6.81-2.9,6.81-8.12-3.04-8.21-6.81-8.21Z"/>
          <path class="cls-2" d="M680.72,688.8l5.81-14.61h8.8l-13.8,28.45h-1.63l-13.8-28.45h8.76l5.85,14.61Z"/>
          <path class="cls-2" d="M711.64,702.33v-28.13h8.17v28.13h-8.17Z"/>
          <path class="cls-2" d="M737.95,688.21c0-9.58,6.72-14.34,14.97-14.34,5.72,0,8.85,2.4,8.85,2.4l-.59,6.44s-2.68-2.68-7.49-2.68c-3.54,0-7.49,2.36-7.49,8.17,0,5.31,3.45,8.17,7.62,8.17,3.95,0,6.76-2.59,6.76-2.59l2.95,4.99c-3.31,2.77-6.58,3.86-10.53,3.86-8.21,0-15.07-4.81-15.07-14.43Z"/>
          <path class="cls-2" d="M797.64,702.33v-12.3h-8.76v12.3h-8.12v-28.13h8.12v9.62h8.76v-9.62h8.17v28.13h-8.17Z"/>
        </g>
        <path class="cls-2" d="M528,531.1l-1.8-.44c-20.5-4.96-39.88-13.29-57.6-24.76-7.78-5.04-16.38-11.46-21.15-20.87-4.48-8.84-4.82-21.87,3.2-29.7,5.92-5.75,15.55-7.73,25.14-5.14,6.73,1.81,12.78,5.47,18.24,9.18,.43-4.92,1.5-12.82,4.12-19.18,2.11-5.14,6.11-11.97,13.15-15.32h.02c7.91-3.77,18.34-2.02,25.94,4.35,6.06,5.07,10.43,12.66,12.99,22.56,7.16,27.56-7.61,56.03-21.27,77.76l-.98,1.56Zm-69.55-74.99c-1.52,.72-2.94,1.68-4.21,2.91-6.25,6.09-5.84,16.52-2.2,23.68,4.22,8.33,12.16,14.22,19.36,18.88,16.71,10.82,34.94,18.77,54.22,23.63,12.82-20.64,26.16-47.14,19.66-72.15-2.29-8.83-6.1-15.53-11.32-19.91-6.1-5.1-14.31-6.57-20.44-3.65h-.01c-5.55,2.65-8.83,8.34-10.6,12.64-3.67,8.93-4.02,21.85-4.02,21.98l-.11,4.78-3.93-2.73c-6.37-4.43-12.95-9.02-20.39-11.02-4.74-1.28-10.9-1.48-16.01,.95Z"/>
      </g>
      <g>
        <g>
          <path class="cls-1" d="M334.42,761.57v-24.09h3.89v20.91h9.75l-.78,3.19h-12.86Z"/>
          <path class="cls-1" d="M366.06,750.03l8.51-12.94h.43l4.2,24.48h-3.77l-2.72-15.62-6.64,9.95-6.64-9.95-2.72,15.62h-3.77l4.2-24.48h.39l8.55,12.94Z"/>
          <path class="cls-1" d="M389.9,749.88v11.7h-3.89v-24.09h12.78v3.11h-8.9v6.1h6.18v3.19h-6.18Z"/>
          <path class="cls-1" d="M413.26,740.63v20.94h-3.81v-20.94h-6.37l.78-3.15h15.39v3.15h-5.98Z"/>
          <path class="cls-1" d="M444.04,755.68c-2.59,0-4.69-1.69-4.69-4.67s2.1-4.69,4.69-4.69,4.69,1.72,4.69,4.69-2.05,4.67-4.69,4.67Z"/>
          <path class="cls-1" d="M465.35,749.49c0-7.77,5.4-12.32,12.55-12.32,4.74,0,8.08,2.33,8.08,2.33l-.31,3.5s-3.65-2.64-7.69-2.64c-4.74,0-8.62,3.26-8.62,9.05s3.69,9.21,8.55,9.21,7.26-2.49,7.26-2.49l1.59,3.15c-2.88,1.9-5.87,2.6-8.86,2.6-7.15,0-12.55-4.62-12.55-12.4Z"/>
          <path class="cls-1" d="M506.01,742.84c-2.14-1.75-4.16-2.52-6.14-2.52-2.1,0-3.84,.97-3.84,2.95,0,4.82,11.5,3.38,11.5,11.58,0,4.08-3.26,7.15-8.24,7.15-2.41,0-5.13-.51-8.04-2.64l1.63-2.95c1.86,1.36,4.2,2.37,6.37,2.37,2.91,0,4.47-1.71,4.47-3.92,0-5.48-11.58-3.92-11.58-11.5,0-3.88,3.19-6.22,7.54-6.22,2.91,0,5.21,1.13,6.61,2.21l-.27,3.5Z"/>
          <path class="cls-1" d="M535.35,761.57h-4l-2.37-5.01h-11.34l-2.33,5.01h-4.08l11.85-24.75h.43l11.85,24.75Zm-12.08-17.64l-4.35,9.56h8.78l-4.43-9.56Z"/>
          <path class="cls-1" d="M546.13,740.63v20.94h-3.81v-20.94h-6.37l.78-3.15h15.39v3.15h-5.99Z"/>
          <path class="cls-1" d="M572.65,755.68c-2.59,0-4.69-1.69-4.69-4.67s2.1-4.69,4.69-4.69,4.69,1.72,4.69,4.69-2.05,4.67-4.69,4.67Z"/>
          <path class="cls-1" d="M598.22,749.49c0-7.77,5.4-12.32,12.55-12.32,4.74,0,8.08,2.33,8.08,2.33l-.31,3.5s-3.65-2.64-7.69-2.64c-4.74,0-8.63,3.26-8.63,9.05s3.69,9.21,8.55,9.21,7.27-2.49,7.27-2.49l1.59,3.15c-2.88,1.9-5.87,2.6-8.86,2.6-7.15,0-12.55-4.62-12.55-12.4Z"/>
          <path class="cls-1" d="M623.92,749.49c0-7.77,5.4-12.32,12.55-12.32,4.74,0,8.08,2.33,8.08,2.33l-.31,3.5s-3.65-2.64-7.69-2.64c-4.74,0-8.63,3.26-8.63,9.05s3.69,9.21,8.55,9.21,7.27-2.49,7.27-2.49l1.59,3.15c-2.88,1.9-5.87,2.6-8.86,2.6-7.15,0-12.55-4.62-12.55-12.4Z"/>
          <path class="cls-1" d="M656.65,754.58h-1.21v6.99h-3.88v-24.09h5.09c7.65,0,11.38,3.5,11.38,8.51,0,5.28-3.77,8.59-11.38,8.59Zm.93-13.95h-2.1v10.8h2.1c3.96,0,6.68-1.94,6.68-5.44,0-3.3-2.72-5.36-6.68-5.36Z"/>
          <path class="cls-1" d="M688.06,742.84c-2.14-1.75-4.16-2.52-6.14-2.52-2.1,0-3.84,.97-3.84,2.95,0,4.82,11.5,3.38,11.5,11.58,0,4.08-3.26,7.15-8.24,7.15-2.41,0-5.13-.51-8.04-2.64l1.63-2.95c1.86,1.36,4.2,2.37,6.37,2.37,2.91,0,4.47-1.71,4.47-3.92,0-5.48-11.58-3.92-11.58-11.5,0-3.88,3.19-6.22,7.54-6.22,2.91,0,5.21,1.13,6.61,2.21l-.27,3.5Z"/>
        </g>
        <g>
          <path class="cls-1" d="M418.11,634.68c-15.85,0-29.57-4.75-41.4-14.27-23.57-18.94-33.65-50.16-37.96-73.01-7.84-41.56-4.99-84.64,8.45-128.03l1.04-3.37c10.84-35.06,22.05-71.31,50.71-95.82,11.12-9.51,23.64-14.55,36.21-14.56,9.38,.01,18.51,3.62,26.18,7.17,2.48,1.15,4.95,2.36,7.41,3.57,6.86,3.36,13.94,6.84,20.87,8.7,21.63,5.81,44.13,7.12,63.28,7.63,6.1,.16,12.26,.26,18.45,.35,33.32,.5,67.77,1.02,99.18,12.55,37.19,13.65,56.61,45.18,54.69,88.78-1.08,24.47-18.24,48.35-32.03,67.54-1.2,1.68-2.39,3.32-3.54,4.94-5,7.02-10.05,14.6-14.94,21.93-11.41,17.11-23.2,34.81-36.72,49.29-18.98,20.33-46.96,19.47-71.66,18.72-2.7-.08-5.38-.16-8.03-.22-30.75-.66-54.84,10.04-82.71,22.42-2.64,1.17-5.3,2.35-7.99,3.53-18.43,8.09-34.86,12.14-49.49,12.15Zm17.09-325.53h-.04c-11.89,.01-23.3,4.63-33.92,13.71-27.89,23.85-38.94,59.6-49.63,94.18l-1.04,3.37c-13.27,42.83-16.08,85.34-8.35,126.33,4.2,22.27,13.97,52.65,36.7,70.91,21.64,17.39,50.18,17.93,87.26,1.64,2.69-1.18,5.34-2.36,7.97-3.53,27.08-12.03,52.74-23.36,84.22-22.73,2.66,.06,5.35,.14,8.06,.22,25.12,.77,51.08,1.56,68.97-17.6,13.32-14.27,25.03-31.85,36.36-48.84,4.9-7.35,9.97-14.96,15-22.02,1.15-1.62,2.34-3.27,3.55-4.95,13.52-18.81,30.35-42.22,31.37-65.64,1.85-41.93-16.76-72.23-52.38-85.31-30.84-11.32-64.99-11.84-98.01-12.34-6.21-.09-12.38-.19-18.49-.35-19.36-.52-42.11-1.85-64.1-7.75-7.26-1.95-14.51-5.5-21.51-8.94-2.44-1.2-4.89-2.4-7.34-3.54-7.3-3.39-15.94-6.85-24.64-6.85Z"/>
          <path class="cls-1" d="M525.23,635.26c-11.95,0-23.47-4.87-33.62-14.28-8.32-7.72-15.19-17.04-21.83-26.05-8.98-12.19-18.26-24.78-31.11-33.2-22.67-14.86-52.46-12.58-78.74-10.56l-2.96,.23c-37.85,2.87-63.71-6.72-79.08-29.29-28.65-42.08-28.37-116.53,.6-162.57,19.87-31.58,50.57-45.97,86.46-40.54,16.27,2.46,30.83,8.41,44.91,14.16,10.39,4.24,20.2,8.25,30.63,10.96h0c30.45,7.91,59.65-2.82,87.89-13.19,19.25-7.07,39.15-14.39,59.46-15.89,22.92-1.7,45.3,10.29,61.49,32.9,18.62,26,24.14,59.92,13.74,84.4-5.31,12.51-14.72,22.35-23.81,31.86-7.02,7.34-14.27,14.93-19.48,23.63-8.11,13.54-13.4,28.99-18.51,43.93-.67,1.96-1.34,3.91-2.01,5.86-2,5.78-3.88,11.82-5.69,17.65-5.21,16.78-10.6,34.13-20.01,49.22-10.7,17.16-26.16,28.24-42.4,30.41-1.98,.26-3.96,.4-5.92,.4Zm-136.3-89.11c18.19,0,36.35,2.56,51.68,12.61,13.37,8.77,22.85,21.63,32.01,34.06,6.54,8.88,13.31,18.06,21.39,25.56,11.02,10.22,23.71,14.71,36.67,12.98,15.2-2.03,29.73-12.52,39.87-28.78,9.17-14.7,14.49-31.83,19.64-48.39,1.82-5.86,3.71-11.92,5.72-17.76,.67-1.94,1.34-3.89,2.01-5.85,5.17-15.11,10.52-30.74,18.82-44.6,5.41-9.03,12.8-16.77,19.96-24.25,8.87-9.28,18.05-18.88,23.11-30.8,9.94-23.39,4.57-55.92-13.37-80.96-15.45-21.58-36.7-33.04-58.35-31.43-19.82,1.47-39.49,8.7-58.51,15.69-28.75,10.56-58.47,21.49-90,13.3-10.66-2.77-21.04-7.01-31.08-11.11-13.89-5.67-28.25-11.54-44.1-13.94-44.09-6.68-69.45,17.49-82.94,38.93-28.31,44.99-28.61,117.67-.67,158.71,14.6,21.44,39.42,30.52,75.89,27.76l2.96-.23c9.46-.72,19.37-1.48,29.26-1.48Z"/>
          <path class="cls-1" d="M484.97,634.67c-19.25,0-38.57-5.4-49.48-21.1-12.47-17.94-14.78-39.4-17.01-60.16-2.64-24.5-5.13-47.64-22.77-65.91-2.52-2.6-5.07-3.8-7.84-3.65-7.68,.41-15.84,10.89-23.03,20.13-4.46,5.73-8.32,10.69-11.89,13.14-5.75,3.95-12.36,5.01-17.69,2.83-11.41-4.68-13.24-21.31-14.23-30.25-1.76-15.94-2.95-36.7,3.48-55.79,5.85-17.36,18.55-30.37,34.83-35.68,10.78-3.52,22.02-3.03,32.89-2.56,9.92,.43,20.17,.88,29.98-1.76,13.16-3.53,24.55-11.85,35.57-19.88,2.07-1.51,4.14-3.02,6.21-4.5,21.36-15.19,46.55-28.29,71.45-10.2,7.72,5.61,14.34,13.22,20.74,20.57,10.36,11.9,21.07,24.21,36.46,27.84,14,3.31,30.68,1.11,45.76-6.03,.69-.33,1.38-.67,2.07-1,2.96-1.45,6.02-2.95,9.38-3.65,6.41-1.33,12.28,.57,16.97,5.53,10.83,11.45,13.8,37.95,10.52,50.22-5.43,20.32-23.31,34.62-39.07,47.24l-2.97,2.38c-17.26,13.86-33.56,26.95-47.97,43.44-8.59,9.84-14.3,21.7-19.82,33.18-9.43,19.6-19.17,39.86-43.39,48.74-10.72,3.93-24.92,6.88-39.16,6.88Zm-96.65-154.36c3.55,0,6.89,1.59,9.93,4.74,18.49,19.14,21.16,43.97,23.74,67.98,2.19,20.31,4.45,41.32,16.4,58.52,17.83,25.66,60.31,21.78,84.52,12.92,22.88-8.38,31.89-27.12,41.43-46.95,5.62-11.69,11.43-23.77,20.34-33.97,14.61-16.73,31.03-29.92,48.42-43.87l2.98-2.38c15.35-12.28,32.74-26.19,37.87-45.39,3.01-11.24,.21-36.44-9.67-46.89-3.85-4.08-8.45-5.59-13.68-4.5-2.93,.61-5.66,1.95-8.55,3.37-.71,.35-1.41,.69-2.12,1.02-15.79,7.48-33.32,9.76-48.08,6.28h0c-16.5-3.9-27.59-16.64-38.31-28.96-6.27-7.21-12.76-14.66-20.16-20.03-23.08-16.77-46.99-4.24-67.33,10.22-2.06,1.47-4.12,2.97-6.18,4.47-11.28,8.23-22.94,16.74-36.73,20.44-10.33,2.77-20.86,2.32-31.05,1.87-11.04-.48-21.47-.93-31.65,2.39-15.44,5.04-27.01,16.92-32.58,33.45-6.22,18.44-5.04,38.69-3.32,54.28,.91,8.21,2.59,23.48,12.06,27.37,4.96,2.04,10.66,.06,14.34-2.47,3.12-2.14,7-7.13,11.1-12.4,7.66-9.84,16.34-20.99,25.63-21.49,.21-.01,.43-.02,.64-.02Z"/>
          <path class="cls-1" d="M474.89,644.46c-30.6,0-60.81-16.47-79.12-44.42-9.96-15.2-16.3-33.19-22.44-50.59-7.45-21.13-15.16-42.99-29.32-59.18-7.12-8.14-15.77-14.7-24.14-21.03-5.26-3.98-10.69-8.09-15.75-12.6-9.52-8.47-25.4-26.01-24.83-48.38,.54-21.11,15.84-37.82,29.98-46.4,9.85-5.99,20.64-9.84,31.08-13.57,5.84-2.09,11.87-4.24,17.64-6.74,19.57-8.47,37.77-21.58,55.36-34.25,21.7-15.63,44.15-31.8,69.45-39.48,13.06-3.96,27.51-5.93,44.14-5.82,16.72,.04,33.84,2.04,48.94,3.79,37.84,4.41,104.17,17.14,123.28,52.89,7.84,14.67,6.87,31.76-2.87,50.8-1.56,3.06-3.27,6.17-4.93,9.17-7.37,13.39-14.98,27.24-13.26,42.23,.5,4.32,1.93,11.15,3.59,19.05,7.1,33.79,18.99,90.35-7.48,106.48-29.31,17.86-63.68,27.55-96.46,35.36-17.25,4.11-28.82,16.58-41.08,29.78-12.15,13.08-24.72,26.61-43.17,30.82-6.15,1.4-12.4,2.09-18.62,2.09Zm51.51-378.93c-16.06,0-29.99,1.86-42.57,5.67-24.74,7.51-46.94,23.5-68.41,38.96-17.75,12.78-36.1,26-56.02,34.63-5.87,2.54-11.97,4.72-17.86,6.82-10.27,3.67-20.89,7.46-30.43,13.26-20.35,12.36-27.96,30.56-28.29,43.48-.53,20.94,14.59,37.59,23.65,45.65,4.96,4.41,10.34,8.48,15.54,12.42,8.51,6.44,17.31,13.11,24.67,21.52,14.6,16.7,22.42,38.88,29.99,60.33,6.07,17.2,12.34,34.99,22.06,49.83,20.89,31.9,59.55,48.7,94,40.83,17.39-3.97,29.04-16.51,41.37-29.78,12.08-13,24.56-26.45,42.85-30.81,32.5-7.75,66.55-17.34,95.44-34.94,24.34-14.83,12.77-69.86,5.86-102.74-1.75-8.31-3.13-14.88-3.64-19.37-1.85-16.11,6.04-30.46,13.67-44.33,1.64-2.98,3.34-6.07,4.88-9.08,9.19-17.95,10.17-33.94,2.9-47.53-7.88-14.74-34.02-40.97-120.57-51.05-15.01-1.75-32.02-3.73-48.54-3.77-.18,0-.36,0-.54,0Z"/>
        </g>
      </g>
    </g>
  </g>
</svg>