<?xml version="1.0" encoding="UTF-8"?>
<svg id="Layer_2" data-name="Layer 2" xmlns="http://www.w3.org/2000/svg" viewBox="0 0 1024 1024">
  <defs>
    <style>
      .cls-1 {
        fill: #2e80ba;
      }

      .cls-2 {
        fill: #fff;
      }

      .cls-3 {
        fill: #1b2232;
      }

      .cls-4 {
        fill: #134360;
      }
    </style>
  </defs>
  <g id="Content-Color">
    <g>
      <rect class="cls-4" width="1024" height="1024"/>
      <rect class="cls-1" x="262" y="262" width="500" height="500"/>
      <g>
        <g>
          <path class="cls-2" d="M323.32,630.44c-4.99-1.45-9-3.33-12.02-5.65l5.31-11.78c2.9,2.12,6.34,3.83,10.33,5.12,3.99,1.29,7.98,1.93,11.97,1.93,4.44,0,7.73-.66,9.85-1.98,2.12-1.32,3.19-3.07,3.19-5.26,0-1.61-.63-2.94-1.88-4.01-1.25-1.06-2.86-1.91-4.83-2.56-1.96-.64-4.62-1.35-7.97-2.12-5.15-1.22-9.37-2.45-12.65-3.67-3.28-1.22-6.1-3.19-8.45-5.89-2.35-2.7-3.52-6.31-3.52-10.81,0-3.93,1.06-7.48,3.19-10.67,2.12-3.19,5.33-5.71,9.61-7.58,4.28-1.87,9.51-2.8,15.69-2.8,4.31,0,8.53,.52,12.65,1.54,4.12,1.03,7.72,2.51,10.81,4.44l-4.83,11.88c-6.25-3.54-12.49-5.31-18.73-5.31-4.38,0-7.61,.71-9.7,2.12-2.09,1.42-3.14,3.28-3.14,5.6s1.21,4.04,3.62,5.17c2.41,1.13,6.1,2.24,11.06,3.33,5.15,1.22,9.37,2.45,12.65,3.67,3.28,1.22,6.1,3.15,8.45,5.79,2.35,2.64,3.52,6.21,3.52,10.72,0,3.86-1.08,7.39-3.24,10.57-2.16,3.19-5.39,5.71-9.7,7.58-4.31,1.87-9.56,2.8-15.74,2.8-5.34,0-10.51-.72-15.5-2.17Z"/>
          <path class="cls-2" d="M378.21,563.86h15.64v67.6h-15.64v-67.6Z"/>
          <path class="cls-2" d="M409.88,563.86h15.64v54.85h33.89v12.75h-49.54v-67.6Z"/>
          <path class="cls-2" d="M468.21,563.86h15.64v67.6h-15.64v-67.6Z"/>
          <path class="cls-2" d="M513.54,628.12c-5.57-2.99-9.95-7.15-13.13-12.46-3.19-5.31-4.78-11.31-4.78-18.01s1.59-12.7,4.78-18.01c3.19-5.31,7.56-9.46,13.13-12.46,5.57-2.99,11.83-4.49,18.78-4.49,5.86,0,11.15,1.03,15.89,3.09,4.73,2.06,8.71,5.02,11.93,8.88l-10.04,9.27c-4.57-5.28-10.23-7.92-17-7.92-4.18,0-7.92,.92-11.2,2.75-3.28,1.83-5.84,4.39-7.68,7.68-1.83,3.28-2.75,7.02-2.75,11.2s.92,7.92,2.75,11.2c1.83,3.28,4.39,5.84,7.68,7.68,3.28,1.83,7.02,2.75,11.2,2.75,6.76,0,12.42-2.67,17-8.01l10.04,9.27c-3.22,3.93-7.21,6.92-11.98,8.98-4.76,2.06-10.08,3.09-15.93,3.09-6.89,0-13.12-1.5-18.69-4.49Z"/>
          <path class="cls-2" d="M582.97,628.07c-5.63-3.02-10.04-7.19-13.23-12.51-3.19-5.31-4.78-11.28-4.78-17.91s1.59-12.6,4.78-17.91c3.19-5.31,7.59-9.48,13.23-12.51,5.63-3.03,11.96-4.54,18.98-4.54s13.33,1.51,18.93,4.54c5.6,3.03,10.01,7.19,13.23,12.51,3.22,5.31,4.83,11.28,4.83,17.91s-1.61,12.6-4.83,17.91c-3.22,5.31-7.63,9.48-13.23,12.51-5.6,3.03-11.91,4.54-18.93,4.54s-13.34-1.51-18.98-4.54Zm29.79-11.54c3.22-1.84,5.74-4.39,7.58-7.68,1.83-3.28,2.75-7.02,2.75-11.2s-.92-7.92-2.75-11.2c-1.83-3.28-4.36-5.84-7.58-7.68-3.22-1.83-6.83-2.75-10.81-2.75s-7.6,.92-10.81,2.75c-3.22,1.83-5.75,4.39-7.58,7.68-1.83,3.28-2.75,7.02-2.75,11.2s.92,7.92,2.75,11.2c1.83,3.28,4.36,5.84,7.58,7.68,3.22,1.83,6.82,2.75,10.81,2.75s7.59-.92,10.81-2.75Z"/>
          <path class="cls-2" d="M712.7,563.86v67.6h-12.84l-33.7-41.04v41.04h-15.45v-67.6h12.94l33.6,41.04v-41.04h15.45Z"/>
        </g>
        <g>
          <path class="cls-2" d="M321.93,710.07c-4.6-1.81-8.15-4.17-10.64-7.06l1.82-2.42c2.35,2.69,5.63,4.89,9.83,6.6,4.2,1.71,8.68,2.57,13.46,2.57,7.06,0,12.38-1.39,15.98-4.18,3.59-2.79,5.39-6.37,5.39-10.74,0-3.36-.94-6.06-2.82-8.12-1.88-2.05-4.2-3.59-6.96-4.64-2.76-1.04-6.52-2.13-11.29-3.28-5.11-1.28-9.21-2.52-12.3-3.73-3.09-1.21-5.71-3.06-7.86-5.54-2.15-2.49-3.23-5.81-3.23-9.98,0-3.29,.87-6.32,2.62-9.07,1.75-2.75,4.42-4.95,8.02-6.6,3.59-1.65,8.08-2.47,13.46-2.47,3.83,0,7.61,.57,11.34,1.71,3.73,1.14,6.9,2.72,9.53,4.74l-1.51,2.72c-2.76-2.02-5.83-3.54-9.22-4.59-3.39-1.04-6.74-1.56-10.03-1.56-6.86,0-12.05,1.43-15.58,4.28-3.53,2.86-5.29,6.47-5.29,10.84,0,3.43,.96,6.17,2.87,8.22,1.91,2.05,4.27,3.61,7.06,4.69,2.79,1.08,6.54,2.19,11.24,3.33,5.1,1.28,9.21,2.5,12.3,3.68,3.09,1.18,5.69,2.99,7.81,5.44,2.12,2.45,3.18,5.73,3.18,9.83,0,3.29-.89,6.32-2.67,9.07-1.78,2.76-4.52,4.94-8.21,6.55-3.7,1.61-8.27,2.42-13.71,2.42-5.11,0-9.96-.91-14.57-2.72Z"/>
          <path class="cls-2" d="M424.65,648.03c4.94,4.13,7.41,9.86,7.41,17.19s-2.47,13.16-7.41,17.29c-4.94,4.13-11.81,6.2-20.62,6.2h-21.07v23.69h-3.43v-70.56h24.5c8.81,0,15.68,2.07,20.62,6.2Zm-2.27,32.26c4.24-3.53,6.35-8.55,6.35-15.07s-2.11-11.44-6.35-14.97c-4.23-3.53-10.28-5.29-18.14-5.29h-21.27v40.62h21.27c7.86,0,13.91-1.76,18.14-5.29Z"/>
          <path class="cls-2" d="M497.99,709.27v3.13h-47.68v-70.56h46.27v3.13h-42.84v30.04h38.31v3.13h-38.31v31.15h44.26Z"/>
          <path class="cls-2" d="M565.32,709.27v3.13h-47.68v-70.56h46.27v3.13h-42.84v30.04h38.31v3.13h-38.31v31.15h44.26Z"/>
          <path class="cls-2" d="M595.12,708.16c-5.55-3.09-9.9-7.36-13.06-12.8-3.16-5.44-4.73-11.52-4.73-18.25s1.58-12.8,4.73-18.25c3.16-5.44,7.51-9.71,13.06-12.8,5.54-3.09,11.74-4.64,18.6-4.64,4.84,0,9.37,.79,13.61,2.37,4.23,1.58,7.86,3.92,10.89,7.01l-2.11,2.22c-5.85-5.64-13.28-8.47-22.28-8.47-6.18,0-11.79,1.43-16.83,4.28-5.04,2.86-9.01,6.77-11.9,11.74-2.89,4.97-4.33,10.48-4.33,16.53s1.45,11.56,4.33,16.53c2.89,4.97,6.86,8.89,11.9,11.74,5.04,2.86,10.65,4.28,16.83,4.28,8.94,0,16.36-2.86,22.28-8.57l2.11,2.22c-3.02,3.09-6.64,5.44-10.84,7.06-4.2,1.61-8.75,2.42-13.66,2.42-6.86,0-13.06-1.55-18.6-4.64Z"/>
          <path class="cls-2" d="M712.7,641.83v70.56h-3.43v-34.27h-49.5v34.27h-3.42v-70.56h3.42v33.17h49.5v-33.17h3.43Z"/>
        </g>
      </g>
      <g>
        <path class="cls-3" d="M618.05,417.62l-14.24-14.24-.84-.84,.84-.84,12.28-12.28-7.92-7.92-12.28,12.28-.84,.84-.84-.84-6.4-6.4-.84-.84,.84-.84,12.28-12.28-7.92-7.92-12.28,12.28-.84,.84-.84-.84-6.4-6.4-.84-.84,.84-.84,12.28-12.28-7.92-7.92-12.28,12.28-.84,.84-.84-.84-6.4-6.4-.84-.84,.84-.84,12.28-12.28-7.92-7.92-12.28,12.28-.84,.84-.84-.84-6.4-6.4-.84-.84,.84-.84,12.28-12.28-7.92-7.92-12.28,12.28-.84,.84-.84-.84-14.24-14.24c-1.09-1.09-2.5-1.69-3.96-1.69s-2.87,.6-3.96,1.69l-14.24,14.24-.84,.84-.84-.84-12.28-12.28-7.92,7.92,12.28,12.28,.84,.84-.84,.84-6.4,6.4-.84,.84-.84-.84-12.28-12.28-7.92,7.92,12.28,12.28,.84,.84-.84,.84-6.4,6.4-.84,.84-.84-.84-12.28-12.28-7.92,7.92,12.28,12.28,.84,.84-.84,.84-6.4,6.4-.84,.84-.84-.84-12.28-12.28-7.92,7.92,12.28,12.28,.84,.84-.84,.84-6.4,6.4-.84,.84-.84-.84-12.28-12.28-7.92,7.92,12.28,12.28,.84,.84-.84,.84-14.24,14.24c-1.09,1.09-1.69,2.5-1.69,3.96s.6,2.87,1.69,3.96l14.24,14.24,.84,.84-.84,.84-12.28,12.28,7.92,7.92,12.28-12.28,.84-.84,.84,.84,6.4,6.4,.84,.84-.84,.84-12.28,12.28,7.92,7.92,12.28-12.28,.84-.84,.84,.84,6.4,6.4,.84,.84-.84,.84-12.28,12.28,7.92,7.92,12.28-12.28,.84-.84,.84,.84,6.4,6.4,.84,.84-.84,.84-12.28,12.28,7.92,7.92,12.28-12.28,.84-.84,.84,.84,6.4,6.4,.84,.84-.84,.84-12.28,12.28,7.92,7.92,12.28-12.28,.84-.84,.84,.84,14.24,14.24c1.09,1.09,2.5,1.69,3.96,1.69s2.87-.6,3.96-1.69l14.24-14.24,.84-.84,.84,.84,12.28,12.28,7.92-7.92-12.28-12.28-.84-.84,.84-.84,6.4-6.4,.84-.84,.84,.84,12.28,12.28,7.92-7.92-12.28-12.28-.84-.84,.84-.84,6.4-6.4,.84-.84,.84,.84,12.28,12.28,7.92-7.92-12.28-12.28-.84-.84,.84-.84,6.4-6.4,.84-.84,.84,.84,12.28,12.28,7.92-7.92-12.28-12.28-.84-.84,.84-.84,6.4-6.4,.84-.84,.84,.84,12.28,12.28,7.92-7.92-12.28-12.28-.84-.84,.84-.84,14.24-14.24c1.09-1.09,1.69-2.5,1.69-3.96s-.6-2.87-1.69-3.96Zm-38.96,9.6l-61.45,61.45c-1.54,1.54-3.54,2.39-5.64,2.39s-4.1-.85-5.64-2.39l-61.45-61.45c-1.54-1.54-2.39-3.54-2.39-5.64s.85-4.1,2.39-5.64l61.45-61.45c1.54-1.54,3.54-2.39,5.64-2.39s4.1,.85,5.64,2.39l61.45,61.45c1.54,1.54,2.39,3.54,2.39,5.64s-.85,4.1-2.39,5.64Z"/>
        <path class="cls-3" d="M548.28,419.22l-33.93-33.93c-.63-.63-1.46-.97-2.36-.97s-1.73,.34-2.36,.97l-33.93,33.93c-1.3,1.3-1.3,3.42,0,4.72l33.93,33.93c.63,.63,1.46,.97,2.36,.97s1.73-.34,2.36-.97l33.93-33.93c1.3-1.3,1.3-3.42,0-4.72Z"/>
      </g>
    </g>
  </g>
</svg>