<?xml version="1.0" encoding="UTF-8"?>
<svg id="Layer_2" data-name="Layer 2" xmlns="http://www.w3.org/2000/svg" viewBox="0 0 1024 1024">
  <defs>
    <style>
      .cls-1 {
        fill: #fff;
      }

      .cls-2 {
        fill: #0476d9;
      }

      .cls-3 {
        fill: #151426;
      }

      .cls-4 {
        fill: #f2b705;
      }

      .cls-5 {
        fill: #f20505;
      }
    </style>
  </defs>
  <g id="Content-Color">
    <g>
      <rect class="cls-3" width="1024" height="1024"/>
      <g>
        <path class="cls-2" d="M510.3,523.74v144.95h-40.17l-55.08-65.85v65.85h-47.63v-144.95h40.17l55.08,65.85v-65.85h47.63Z"/>
        <path class="cls-2" d="M728.96,561.63h-42.45v-37.89h133.76v37.89h-42.45v107.05h-48.87v-107.05Z"/>
        <path class="cls-2" d="M676.16,557.18c-3.78-6.2-8.36-11.66-13.7-16.4-1.23,1.81-3.28,2.93-5.5,2.93h-17.22c-2.21,0-4.27-1.1-5.51-2.92l-.83-1.23c-.99,2.44-3.37,4.16-6.16,4.16h-16.13c-3.67,0-6.65-2.98-6.65-6.65v-1.76c-2.21,2.18-4.76,4.03-7.63,5.53-5.04,2.63-10.74,3.97-16.95,3.97s-11.91-1.33-16.95-3.97c-3.04-1.59-5.71-3.57-8-5.92-8.7,5.91-15.78,13.32-21.24,22.26-7.04,11.53-10.56,24.54-10.56,39.03s3.52,27.51,10.56,39.03c7.04,11.53,16.77,20.54,29.2,27.02,12.42,6.49,26.43,9.73,42.03,9.73s29.61-3.24,42.04-9.73c12.42-6.49,22.16-15.5,29.2-27.02,7.04-11.52,10.56-24.54,10.56-39.03s-3.52-27.5-10.56-39.03Zm-40.61,87.51h-61.25c-9.84,0-17.85-8.01-17.85-17.85,0-7.59,4.85-14.17,11.7-16.69-1.19-2.29-1.82-4.86-1.82-7.51,0-8.48,6.49-15.48,14.77-16.29-.47-1.19-.73-2.48-.75-3.79-.06-3.94,1.43-7.66,4.2-10.46,2.76-2.8,6.46-4.35,10.4-4.35,4.71,0,8.54-3.83,8.54-8.54v-8.45c0-1.09,.59-2.09,1.54-2.63,.94-.54,2.11-.53,3.05,.03l14.82,8.83c5.25,3.92,8.29,9.64,8.6,15.86,.25,4.86-1.2,9.57-4.02,13.42,8.88,.17,16.06,7.44,16.06,16.36,0,2.66-.63,5.22-1.82,7.51,6.85,2.52,11.7,9.09,11.7,16.69,0,9.84-8.01,17.85-17.85,17.85Z"/>
      </g>
      <g>
        <path class="cls-1" d="M597.88,604.5c.25-.92,.12-1.89-.36-2.72-.48-.83-1.25-1.42-2.17-1.67-1.91-.51-3.87,.62-4.38,2.53-.28,1.03-.94,1.9-1.86,2.43-.93,.53-2,.68-3.03,.4-.92-.25-1.89-.12-2.72,.36-.83,.48-1.42,1.25-1.67,2.17-.51,1.91,.62,3.87,2.53,4.38,.95,.26,1.93,.38,2.9,.38,1.94,0,3.86-.52,5.56-1.5,2.58-1.49,4.43-3.9,5.2-6.78Z"/>
        <path class="cls-1" d="M626.51,605.84c-.83-.48-1.79-.61-2.72-.36-1.03,.28-2.11,.13-3.04-.4-.93-.53-1.59-1.4-1.86-2.43-.25-.92-.84-1.7-1.67-2.17-.83-.48-1.79-.6-2.72-.36-1.91,.51-3.04,2.48-2.53,4.38,.77,2.88,2.62,5.29,5.2,6.78h0c1.7,.98,3.62,1.5,5.56,1.5,.97,0,1.95-.13,2.9-.38,1.91-.51,3.04-2.48,2.53-4.38-.25-.92-.84-1.7-1.67-2.17Z"/>
        <path class="cls-1" d="M604.93,617.92c-4.41,0-8.57,1.72-11.69,4.84-1.4,1.4-1.4,3.67,0,5.06,1.4,1.4,3.67,1.4,5.06,0,1.77-1.77,4.12-2.74,6.62-2.74s4.86,.97,6.63,2.74c.68,.68,1.58,1.05,2.53,1.05s1.85-.37,2.53-1.05c1.4-1.4,1.4-3.67,0-5.06-3.12-3.12-7.27-4.84-11.69-4.84Z"/>
        <g>
          <path class="cls-1" d="M595.76,442.25c.95,0,1.85-.37,2.52-1.04,1.39-1.39,1.39-3.65,0-5.04-2.09-2.09-4.88-3.25-7.84-3.25s-5.75,1.15-7.84,3.25c-1.39,1.39-1.39,3.65,0,5.04,1.39,1.39,3.65,1.39,5.04,0,.75-.75,1.74-1.16,2.8-1.16s2.05,.41,2.8,1.16c.67,.67,1.57,1.04,2.52,1.04Z"/>
          <path class="cls-1" d="M614.02,448.2c-.95,0-1.85,.37-2.52,1.04-1.76,1.76-4.09,2.72-6.57,2.72s-4.82-.97-6.57-2.72c-1.39-1.39-3.65-1.39-5.04,0-.67,.67-1.04,1.57-1.04,2.52,0,.95,.37,1.85,1.04,2.52,3.1,3.1,7.22,4.81,11.61,4.81s8.51-1.71,11.61-4.81c1.39-1.39,1.39-3.65,0-5.04-.67-.67-1.57-1.04-2.52-1.04Z"/>
          <path class="cls-1" d="M619.42,432.92c-2.96,0-5.74,1.15-7.84,3.25-1.39,1.39-1.39,3.65,0,5.04,1.39,1.39,3.65,1.39,5.04,0,.75-.75,1.74-1.16,2.8-1.16s2.05,.41,2.8,1.16c.67,.67,1.57,1.04,2.52,1.04s1.85-.37,2.52-1.04c1.39-1.39,1.39-3.65,0-5.04-2.09-2.09-4.88-3.25-7.84-3.25Z"/>
        </g>
      </g>
      <g>
        <path class="cls-5" d="M510.3,355.31v144.95h-48.87v-53.42h-45.14v53.42h-48.87v-144.95h48.87v51.35h45.14v-51.35h48.87Z"/>
        <path class="cls-5" d="M728.96,393.21h-42.45v-37.89h133.76v37.89h-42.45v107.05h-48.87v-107.05Z"/>
        <path class="cls-5" d="M676.16,388.75c-7.04-11.52-16.77-20.53-29.2-27.02-12.42-6.49-26.44-9.73-42.04-9.73s-29.61,3.24-42.03,9.73c-12.42,6.49-22.16,15.5-29.2,27.02-7.04,11.53-10.56,24.54-10.56,39.03s3.52,27.51,10.56,39.03c5.75,9.42,13.3,17.15,22.65,23.21,1.96-1.76,4.15-3.29,6.59-4.57,5.04-2.63,10.74-3.97,16.95-3.97s11.91,1.33,16.95,3.97c2.88,1.5,5.43,3.35,7.63,5.53v-1.76c0-3.67,2.98-6.65,6.65-6.65h23.03c5.33,0,10.13,.93,14.25,2.76,2.35,1.05,4.43,2.36,6.24,3.93,8.83-5.94,16.01-13.42,21.53-22.46,7.04-11.52,10.56-24.54,10.56-39.03s-3.52-27.5-10.56-39.03Zm-71.23,87.51c-17.51,0-32.79-11.86-37.15-28.84-.83-3.22-1.25-6.44-1.25-9.56,0-6.14,1.43-12.03,4.26-17.53,2.78-5.4,6.87-10.14,11.83-13.69,.03-.02,.06-.04,.09-.06,.19-.12,.39-.27,.61-.43,.1-.08,.21-.15,.31-.23,7.88-5.64,12.84-14.39,13.59-24,.07-.95,.62-1.8,1.45-2.26,.83-.46,1.84-.48,2.68-.04,9.71,5.02,16.84,13.97,19.56,24.54,.83,3.22,1.25,6.44,1.25,9.57,0,1.63-.11,3.25-.32,4.87,2.12-2.24,3.92-4.77,5.34-7.52,.41-.8,1.18-1.36,2.07-1.5,.89-.15,1.79,.14,2.44,.77,7.51,7.3,11.64,17.07,11.64,27.51,0,21.17-17.23,38.4-38.4,38.4Z"/>
      </g>
      <g>
        <path class="cls-4" d="M203.72,668.69h140.23V355.31H203.72v313.38Zm116.8-115.47v25.88l-42.42,35.48h42.42v30.68h-93.38v-25.88l42.42-35.48h-42.42v-30.68h93.38Zm-69.63-82.05v44.42h16.01v-38.95h23.74v38.95h29.88v31.48h-93.38v-75.9h23.75Zm.67-92.43v27.35h68.97v31.48h-68.97v27.35h-24.41v-86.18h24.41Z"/>
        <path class="cls-4" d="M566.02,534.95c-4.1-2.14-7.31-5.11-9.64-8.92-2.32-3.8-3.48-8.1-3.48-12.88s1.16-9.08,3.48-12.88c2.32-3.8,5.54-6.78,9.64-8.92,4.1-2.14,8.72-3.21,13.87-3.21s9.77,1.07,13.87,3.21c4.1,2.14,7.31,5.11,9.63,8.92,2.32,3.8,3.49,8.1,3.49,12.88s-1.16,9.08-3.49,12.88c-2.32,3.8-5.53,6.78-9.63,8.92-4.1,2.14-8.72,3.21-13.87,3.21s-9.77-1.07-13.87-3.21Zm65.6-9.91h-4.37v12.03h-16.13v-47.83h23.03c4.42,0,8.27,.73,11.55,2.19,3.28,1.46,5.81,3.55,7.58,6.29,1.78,2.73,2.67,5.92,2.67,9.57,0,3.42-.78,6.4-2.32,8.95-1.55,2.55-3.78,4.58-6.7,6.08l10.05,14.76h-17.22l-8.13-12.03Z"/>
      </g>
    </g>
  </g>
</svg>