<?xml version="1.0" encoding="UTF-8"?>
<svg id="Layer_2" data-name="Layer 2" xmlns="http://www.w3.org/2000/svg" viewBox="0 0 1024 1024">
  <defs>
    <style>
      .cls-1 {
        fill: #272727;
      }

      .cls-2 {
        stroke-width: 6.81px;
      }

      .cls-2, .cls-3 {
        fill: none;
        stroke: #e8e8e8;
        stroke-miterlimit: 10;
      }

      .cls-3 {
        stroke-width: 7.74px;
      }

      .cls-4 {
        fill: #e8e8e8;
      }

      .cls-5 {
        fill: #cc0b0b;
      }
    </style>
  </defs>
  <g id="Content-Color">
    <g>
      <rect class="cls-1" width="1024" height="1024"/>
      <g>
        <g>
          <path class="cls-4" d="M291.62,728.89l6.26-42.59h7.53l-8.06,52.21h-12.23l-8.05-52.21h8.28l6.27,42.59Z"/>
          <path class="cls-4" d="M325.12,686.3h8.2v52.21h-8.2v-52.21Z"/>
          <path class="cls-4" d="M354.27,686.3h12.98c8.21,0,12.23,4.55,12.23,12.9v26.4c0,8.35-4.03,12.9-12.23,12.9h-12.98v-52.21Zm8.2,7.46v37.3h4.62c2.61,0,4.18-1.34,4.18-5.07v-27.15c0-3.73-1.57-5.07-4.18-5.07h-4.62Z"/>
          <path class="cls-4" d="M408.18,708.3h11.26v7.46h-11.26v15.29h14.17v7.46h-22.38v-52.21h22.38v7.46h-14.17v14.55Z"/>
          <path class="cls-4" d="M442.2,698.83c0-8.35,4.4-13.13,12.46-13.13s12.46,4.77,12.46,13.13v27.15c0,8.35-4.4,13.13-12.46,13.13s-12.46-4.77-12.46-13.13v-27.15Zm8.21,27.67c0,3.73,1.64,5.15,4.25,5.15s4.25-1.42,4.25-5.15v-28.19c0-3.73-1.64-5.15-4.25-5.15s-4.25,1.42-4.25,5.15v28.19Z"/>
          <path class="cls-4" d="M523.49,708.3h11.26v7.46h-11.26v15.29h14.17v7.46h-22.38v-52.21h22.38v7.46h-14.17v14.55Z"/>
          <path class="cls-4" d="M557.98,686.3h12.98c8.2,0,12.23,4.55,12.23,12.9v26.4c0,8.35-4.03,12.9-12.23,12.9h-12.98v-52.21Zm8.21,7.46v37.3h4.62c2.61,0,4.18-1.34,4.18-5.07v-27.15c0-3.73-1.57-5.07-4.18-5.07h-4.62Z"/>
          <path class="cls-4" d="M603.73,686.3h8.21v52.21h-8.21v-52.21Z"/>
          <path class="cls-4" d="M631.49,686.3h25.36v7.46h-8.58v44.75h-8.2v-44.75h-8.58v-7.46Z"/>
          <path class="cls-4" d="M675.92,698.83c0-8.35,4.4-13.13,12.46-13.13s12.46,4.77,12.46,13.13v27.15c0,8.35-4.4,13.13-12.46,13.13s-12.46-4.77-12.46-13.13v-27.15Zm8.2,27.67c0,3.73,1.64,5.15,4.25,5.15s4.25-1.42,4.25-5.15v-28.19c0-3.73-1.64-5.15-4.25-5.15s-4.25,1.42-4.25,5.15v28.19Z"/>
          <path class="cls-4" d="M738.57,738.51c-.45-1.34-.75-2.16-.75-6.42v-8.2c0-4.85-1.64-6.64-5.37-6.64h-2.83v21.26h-8.21v-52.21h12.38c8.5,0,12.16,3.95,12.16,12.01v4.1c0,5.37-1.72,8.87-5.37,10.59,4.1,1.72,5.44,5.67,5.44,11.12v8.05c0,2.53,.08,4.4,.9,6.34h-8.35Zm-8.95-44.75v16.04h3.2c3.06,0,4.92-1.34,4.92-5.52v-5.15c0-3.73-1.27-5.37-4.18-5.37h-3.95Z"/>
        </g>
        <line class="cls-3" x1="277.08" y1="762" x2="746.92" y2="762"/>
        <g>
          <line class="cls-2" x1="277.08" y1="281.4" x2="550.44" y2="281.4"/>
          <line class="cls-2" x1="633.07" y1="281.4" x2="746.92" y2="281.4"/>
          <polygon class="cls-5" points="576.84 262 576.84 298.15 591.75 312.6 606.67 298.15 606.67 262 576.84 262"/>
        </g>
        <g>
          <path class="cls-4" d="M277.08,442.87v-129.95h29.46c20.25,0,28.88,8.52,28.88,28.5v4.82c0,13.06-3.88,20.97-12.22,24.88l-5.43,2.55,5.59,2.18c9.68,3.77,14.19,12.21,14.19,26.55v11c0,19.55-9.98,29.46-29.66,29.46h-30.81Zm16.08-14.15h14.73c9.13,0,13.57-5.2,13.57-15.89v-11.77c0-13.48-4.72-18.98-16.28-18.98h-12.03v46.64Zm0-60.79h10.87c10.3,0,15.31-5.51,15.31-16.85v-7.53c0-4.07,0-16.47-13.38-16.47h-12.8v40.85Z"/>
          <path class="cls-4" d="M404.77,442.87l-3.67-24.51h-30.49l-3.67,24.51h-14.26l20.79-129.95h26.68l20.79,129.95h-16.19Zm-32.22-37.7h26.43l-10.67-71.27h-5.09l-10.67,71.27Z"/>
          <path class="cls-4" d="M483.02,442.87c-.77-2.6-1.23-5.54-1.23-14.02v-21.23c0-13.66-5.08-19.75-16.47-19.75h-9.91v55h-16.08v-129.95h29.46c20.25,0,28.88,8.52,28.88,28.5v10.61c0,12.95-4.06,21.15-12.42,25.08l-5.25,2.47,5.35,2.24c8.65,3.62,12.51,11.75,12.51,26.38v20.84c0,5.25,.11,9.56,1.28,13.83h-16.13Zm-27.61-69.16h10.87c10.3,0,15.31-5.51,15.31-16.85v-13.32c0-4.07,0-16.47-13.38-16.47h-12.8v46.64Z"/>
          <path class="cls-4" d="M562.59,442.87c-.77-2.6-1.23-5.54-1.23-14.02v-21.23c0-13.66-5.08-19.75-16.47-19.75h-9.91v55h-16.08v-129.95h29.46c20.25,0,28.88,8.52,28.88,28.5v10.61c0,12.95-4.06,21.15-12.42,25.08l-5.25,2.47,5.35,2.24c8.65,3.62,12.51,11.75,12.51,26.38v20.84c0,5.25,.11,9.56,1.28,13.83h-16.13Zm-27.61-69.16h10.87c10.3,0,15.31-5.51,15.31-16.85v-13.32c0-4.07,0-16.47-13.38-16.47h-12.8v46.64Z"/>
          <path class="cls-4" d="M648.47,442.87l-3.67-24.51h-30.49l-3.67,24.51h-14.26l20.79-129.95h26.68l20.79,129.95h-16.19Zm-32.22-37.7h26.43l-10.67-71.27h-5.09l-10.67,71.27Z"/>
          <polygon class="cls-4" points="730.66 442.87 708.62 385.4 699.11 403.31 699.11 442.87 683.03 442.87 683.03 312.92 699.11 312.92 699.11 369.21 704.01 370.31 731.11 312.92 746.58 312.92 718.36 370.45 746.92 442.87 730.66 442.87"/>
        </g>
        <g>
          <path class="cls-4" d="M318.48,660.64c-27.08,0-41.4-15.46-41.4-44.7v-8.15h21.25v10.08c0,18.47,10.51,22.35,19.33,22.35s19.33-3.88,19.33-22.35c0-19.78-13.17-31.82-27.11-44.58-15.72-14.38-31.97-29.25-31.97-57.37,0-20.39,7.09-44.7,40.85-44.7s40.85,24.31,40.85,44.7v2.38h-21.25v-4.3c0-15.01-6.32-22.62-18.78-22.62s-18.78,7.61-18.78,22.62c0,19.78,13.17,31.82,27.1,44.58,15.72,14.38,31.97,29.25,31.97,57.37s-14.32,44.7-41.4,44.7Z"/>
          <rect class="cls-4" x="386.88" y="473.43" width="22.9" height="185.02"/>
          <polygon class="cls-4" points="466.37 658.44 466.37 493.58 434.77 493.58 434.77 473.43 520.87 473.43 520.87 493.58 489.27 493.58 489.27 658.44 466.37 658.44"/>
          <polygon class="cls-4" points="573.67 658.44 573.67 493.58 542.08 493.58 542.08 473.43 628.17 473.43 628.17 493.58 596.57 493.58 596.57 658.44 573.67 658.44"/>
          <polygon class="cls-4" points="687.08 658.44 687.08 597.82 650.13 473.43 673.99 473.43 699.9 571.81 725.8 473.43 746.92 473.43 709.97 597.82 709.97 658.44 687.08 658.44"/>
        </g>
      </g>
    </g>
  </g>
</svg>