<?xml version="1.0" encoding="utf-8"?>
<!-- Generator: Adobe Illustrator 27.2.0, SVG Export Plug-In . SVG Version: 6.00 Build 0)  -->
<svg version="1.1" xmlns="http://www.w3.org/2000/svg" xmlns:xlink="http://www.w3.org/1999/xlink" x="0px" y="0px"
	 viewBox="0 0 1024 1024" style="enable-background:new 0 0 1024 1024;" xml:space="preserve">
<style type="text/css">
	.st0{fill:#1A1A1A;}
	.st1{fill:#F2F2F2;}
	.st2{fill:#9500FD;}
</style>
<g id="Layer_3">
	<rect class="st0" width="1024" height="1024"/>
</g>
<g id="Layer_2_00000122685470127216238880000005866921374353509768_">
	<g>
		<path class="st1" d="M301.7,721.5l-13.6-36.6H288v36.6h-12v-51.7h18l12.8,34.8h0.2l12.8-34.8h17.6v51.7h-12.7v-36.6h-0.1
			l-13.6,36.6C310.9,721.5,301.7,721.5,301.7,721.5z M354.4,699.1c0.9-4.6,3.6-7.2,8-7.2c4.9,0,7.3,3.4,7.3,7.2H354.4 M362.6,722.4
			c10.1,0,17.2-4.9,18.9-13h-11.8c-1,2.8-3.4,4.4-7.1,4.4c-5,0-7.7-3.1-8.4-8.2h27.4v-3.3c0-10.1-6.3-18.9-19.2-18.9
			c-11.5,0-20.5,7.3-20.5,19.4C341.9,715.1,350.9,722.3,362.6,722.4 M413.4,684.1c-0.7-0.3-1.8-0.4-2.8-0.4c-5.5,0-9.7,3-11.7,8.5
			v-7.9h-12.6v37.1h12.7v-16.3c0-7,4.4-10.2,10.2-10.2c1.5,0,2.8,0.1,4.1,0.3V684.1L413.4,684.1z M444.7,702.4
			c0,5.7-3.4,9.2-8.3,9.2c-5.3,0-8.2-3.9-8.2-9.9c0-6,3-9.8,8.2-9.8c5,0,8.3,3.5,8.3,9.1V702.4z M444.4,718.9c0,5.8-3.4,8.2-8.3,8.2
			c-3.9,0-6.6-1.2-7.5-4H416c1.4,7.6,8.6,12.2,20.2,12.2c12.5,0,21-5.8,21-18.2v-32.7h-12.6v5.6c-1.9-3.6-6.3-6.5-12-6.5
			c-10.7,0-17.3,7.7-17.3,18.4c0,10.7,6.6,18.4,17.3,18.4c5.7,0,9.9-2.9,11.8-6.5L444.4,718.9L444.4,718.9z M463.9,721.5h12.8v-37.1
			h-12.8V721.5z M463.7,679.2h13.2v-10.5h-13.2V679.2z M495.9,684.3h-12.6v37.1h12.8v-19.9c0-6.3,3.1-8.8,7.1-8.8
			c4.4,0,6.5,2.6,6.5,7.8v20.9h12.8v-23.8c0-9-5.5-14.2-14.5-14.2c-5.9,0-10.2,2.8-12.1,6.6L495.9,684.3L495.9,684.3z M556.1,702.5
			c0,5.7-3.4,9.2-8.3,9.2c-5.3,0-8.2-3.9-8.2-9.9c0-6,3-9.8,8.2-9.8c5,0,8.3,3.5,8.3,9.1C556.1,701.1,556.1,702.5,556.1,702.5z
			 M555.8,718.9c0,5.8-3.4,8.2-8.3,8.2c-3.9,0-6.6-1.2-7.5-4h-12.6c1.4,7.6,8.6,12.2,20.2,12.2c12.5,0,21-5.8,21-18.2v-32.7h-12.6
			v5.6c-1.9-3.6-6.3-6.5-12-6.5c-10.7,0-17.3,7.7-17.3,18.4s6.6,18.4,17.3,18.4c5.7,0,9.9-2.9,11.8-6.5L555.8,718.9L555.8,718.9z
			 M603.9,694.3v-15h10.2c6.9,0,9.9,2.5,9.9,7.6c0,5-3,7.5-9.9,7.5H603.9z M615.7,704c13.5,0,21.3-5.8,21.3-17.1
			s-7.8-17.2-21.4-17.2H591v51.8h12.9V704H615.7L615.7,704z M662.5,707.4c0,4.7-3.8,7.2-8,7.2c-3.1,0-4.9-1.5-4.9-4
			c0-3,2.4-3.9,5.9-4.2l7-0.8L662.5,707.4 M663.1,716.1c0,1.8,0.1,3.4,0.4,5.4h12.1c-0.5-3.5-0.7-6.5-0.7-10.6v-12
			c0-10.2-6.2-15.4-17.9-15.4c-10.8,0-17.6,5-18.4,13.4h12.2c0.2-2.8,2.2-4.7,5.7-4.7c3.7,0,5.9,2,5.9,5.4v1.5l-11,1
			c-7.9,0.8-14.5,3.6-14.5,11.4c0,6.7,5.3,11,13.6,11C656.6,722.4,661.2,720.2,663.1,716.1 M704.2,711.9c-2,0.4-3.4,0.5-4.8,0.5
			c-3.1,0-4.6-1-4.6-4.1v-15.5h8.6v-8.5h-8.5v-9.2h-12.6v9.2h-5.2v8.5h5.2v18c0,7.9,4.3,11.3,13.3,11.3c3,0,5.3-0.3,8.6-1.2
			L704.2,711.9L704.2,711.9z M733.5,683.5c-5.9,0-9.9,2.8-11.9,6.6v-22h-12.7v53.4h12.7v-19.9c0-6.3,3.1-8.8,7.1-8.8
			c4.4,0,6.5,2.6,6.5,7.8v20.9H748v-23.8C748,688.7,742.5,683.4,733.5,683.5"/>
		<path class="st2" d="M446,514.1l74.9-3.2l1.6-41.2l-75.1,4.5L446,514.1L446,514.1z M449.5,416.2l75.4-6.7l-1.6,41.3l-75.2,4.8
			C448.1,455.7,449.5,416.2,449.5,416.2z M445.4,532.6l74.8-2.8l-1.6,40.5l-74.7,1.5L445.4,532.6z M668.2,445
			c0,77-55.8,141-129.1,153.9l7.4-194.3l2.1-50.2c0.1-2.9-1.6-5.6-4.3-6.6l-5.7-2H534c-2.1,0-4.1,1-5.3,2.6
			c-0.8,1.1-1.3,2.4-1.4,3.8l-1.6,38.4l-75.6,7l1-34.3c0.1-3.1-1.9-5.9-5-6.8l-6.5-1.6l-3,0.3c-3,0.2-6.2,2.4-6.4,7.1l-8.2,210.3
			c-40.1-28.3-66.2-74.9-66.2-127.7c0-86.3,70-156.3,156.3-156.3S668.3,358.7,668.2,445L668.2,445z M517.4,601.1
			c-1.8,0.1-3.6,0.1-5.4,0.1c-20.5,0-39.9-4-57.9-11.1l63.7-1L517.4,601.1L517.4,601.1z"/>
	</g>
</g>
</svg>
