<?xml version="1.0" encoding="UTF-8"?>
<svg id="Layer_2" data-name="Layer 2" xmlns="http://www.w3.org/2000/svg" xmlns:xlink="http://www.w3.org/1999/xlink" viewBox="0 0 1024 1024">
  <defs>
    <style>
      .cls-1 {
        fill: #fff;
        stroke: #e2e2e2;
        stroke-miterlimit: 10;
        stroke-width: 2.22px;
      }

      .cls-2 {
        fill: url(#radial-gradient-5);
      }

      .cls-3 {
        fill: url(#radial-gradient-4);
      }

      .cls-4 {
        fill: url(#radial-gradient);
      }

      .cls-5 {
        fill: #24a9e1;
      }

      .cls-6 {
        fill: #e4e4e4;
      }

      .cls-7 {
        fill: url(#radial-gradient-2);
      }

      .cls-8 {
        fill: url(#radial-gradient-3);
      }

      .cls-9 {
        fill: #0a2b47;
      }
    </style>
    <radialGradient id="radial-gradient" cx="542.05" cy="304.98" fx="542.05" fy="304.98" r="160.78" gradientUnits="userSpaceOnUse">
      <stop offset="0" stop-color="#0a2b47"/>
      <stop offset="1" stop-color="#0a2b47" stop-opacity="0"/>
    </radialGradient>
    <radialGradient id="radial-gradient-2" cx="447.14" cy="414.07" fx="447.14" fy="414.07" r="136.93" gradientUnits="userSpaceOnUse">
      <stop offset="0" stop-color="#0a6754"/>
      <stop offset="1" stop-color="#0a6754" stop-opacity="0"/>
    </radialGradient>
    <radialGradient id="radial-gradient-3" cx="404.59" cy="508.98" fx="404.59" fy="508.98" r="148.71" gradientUnits="userSpaceOnUse">
      <stop offset="0" stop-color="#6eb43f"/>
      <stop offset="1" stop-color="#6eb43f" stop-opacity="0"/>
    </radialGradient>
    <radialGradient id="radial-gradient-4" cx="425.32" cy="641.02" fx="425.32" fy="641.02" r="163.21" gradientUnits="userSpaceOnUse">
      <stop offset="0" stop-color="#004812"/>
      <stop offset="1" stop-color="#004812" stop-opacity="0"/>
    </radialGradient>
    <radialGradient id="radial-gradient-5" cx="566.05" cy="462.07" fx="566.05" fy="462.07" r="114.14" gradientUnits="userSpaceOnUse">
      <stop offset="0" stop-color="#24a9e1"/>
      <stop offset="1" stop-color="#24a9e1" stop-opacity="0"/>
    </radialGradient>
  </defs>
  <g id="Content-Color">
    <g>
      <rect class="cls-6" width="1024" height="1024"/>
      <ellipse class="cls-1" cx="512" cy="477.65" rx="237.44" ry="206.37" transform="translate(-188.21 477.38) rotate(-42.99)"/>
      <path class="cls-9" d="M408.65,753.64c4.48-.62,8.55-.69,12.21-.23,3.66,.47,6.79,1.51,9.39,3.12,2.6,1.61,4.61,3.81,6.03,6.59,1.42,2.78,2.13,6.17,2.13,10.18s-.71,7.56-2.13,10.67c-1.42,3.1-3.43,5.77-6.03,8.01-2.6,2.23-5.74,4.04-9.39,5.41-3.66,1.38-7.73,2.37-12.21,2.99l-6.92,.95v18.52c0,.71-.26,1.36-.79,1.95-.53,.59-1.15,.93-1.88,1.03l-20.37,2.81c-.73,.1-1.35-.07-1.88-.52-.53-.44-.79-1.02-.79-1.73v-62.63c0-.71,.26-1.36,.79-1.95,.53-.59,1.15-.93,1.88-1.03l29.96-4.13Zm-7.42,29.82l6.92-.95c1.05-.15,2.08-.69,3.07-1.64,.99-.94,1.48-2.35,1.48-4.23,0-1.23-.31-2.41-.94-3.55-.63-1.14-1.83-1.59-3.61-1.34l-6.92,.95v10.76Zm81.39-40.01c1.32-.18,2.34,.03,3.06,.65,.72,.61,1.19,1.26,1.38,1.94l22.05,58.82c.07,.18,.1,.41,.1,.67,0,.58-.21,1.11-.64,1.59-.43,.48-.94,.76-1.53,.84l-18.29,2.52c-1.32,.18-2.24,.03-2.77-.44-.53-.48-.89-.96-1.09-1.45l-2.37-6.07-21.26,2.93-2.37,6.73c-.2,.54-.56,1.13-1.09,1.75-.53,.62-1.45,1.02-2.77,1.21l-18.29,2.52c-.59,.08-1.11-.06-1.53-.42-.43-.36-.64-.83-.64-1.41,0-.26,.03-.49,.1-.69l22.05-64.9c.2-.74,.66-1.51,1.38-2.32,.72-.81,1.74-1.31,3.07-1.49l21.46-2.96Zm-5.14,40.85l-5.64-17.26-5.54,18.8,11.17-1.54Zm100.03,10.74c.2,.36,.3,.7,.3,1.03,0,.58-.22,1.11-.64,1.59-.43,.48-.94,.76-1.53,.84l-20.27,2.79c-1.32,.18-2.31,0-2.97-.56-.66-.55-1.09-1.05-1.28-1.47l-8.5-17.35-4.05,.56v18.52c0,.71-.27,1.36-.79,1.95-.53,.59-1.15,.93-1.88,1.03l-19.38,2.67c-.73,.1-1.35-.07-1.88-.52-.53-.44-.79-1.02-.79-1.73v-62.63c0-.71,.26-1.36,.79-1.95,.53-.59,1.15-.93,1.88-1.03l29.27-4.03c4.75-.65,9-.71,12.76-.16,3.76,.55,6.92,1.66,9.49,3.35,2.57,1.68,4.55,3.88,5.93,6.6,1.38,2.72,2.08,5.92,2.08,9.6,0,4.4-.99,8.31-2.97,11.75-1.98,3.44-4.55,6.35-7.71,8.72l12.16,20.43Zm-38.96-30.99l7.22-.99c1.52-.21,2.65-.87,3.41-1.97,.76-1.11,1.14-2.3,1.14-3.6s-.35-2.46-1.04-3.49c-.69-1.04-1.86-1.44-3.51-1.21l-7.22,.99v10.28Zm68.69-11.99c-.2,5.39-.2,10.82,0,16.29,.13,2.96,.84,4.91,2.13,5.86,1.29,.95,3.02,1.28,5.19,.98,1.71-.24,3.21-.83,4.5-1.78,1.29-.95,2.26-2.44,2.92-4.47,.33-1.14,.74-1.94,1.24-2.4,.49-.46,1.3-.76,2.42-.92l20.17-2.78c.59-.08,1.1,.06,1.53,.42,.43,.36,.64,.83,.64,1.41-.07,4.41-1.05,8.31-2.97,11.7-1.91,3.4-4.42,6.31-7.51,8.74-3.1,2.43-6.62,4.39-10.58,5.87-3.96,1.48-8.04,2.51-12.26,3.1-4.75,.65-9.1,.75-13.05,.3-3.95-.46-7.4-1.55-10.33-3.28-2.93-1.73-5.24-4.13-6.92-7.19-1.68-3.07-2.62-6.91-2.82-11.54-.13-2.63-.2-5.47-.2-8.5s.06-5.95,.2-8.75c.2-4.55,1.17-8.6,2.92-12.13,1.75-3.54,4.09-6.59,7.02-9.16,2.93-2.57,6.38-4.64,10.33-6.22,3.95-1.58,8.24-2.69,12.85-3.32,4.22-.58,8.3-.67,12.26-.28,3.95,.39,7.48,1.38,10.58,2.95,3.1,1.58,5.6,3.8,7.51,6.67,1.91,2.87,2.9,6.5,2.97,10.89,0,.58-.21,1.11-.64,1.59-.43,.48-.94,.76-1.53,.84l-20.17,2.78c-1.12,.15-1.91,.07-2.37-.26-.46-.32-.89-1.01-1.29-2.05-.73-1.97-1.71-3.22-2.97-3.76-1.25-.54-2.74-.69-4.45-.45-2.17,.3-3.91,1.11-5.19,2.41-1.29,1.31-1.99,3.46-2.13,6.45Z"/>
      <g>
        <path class="cls-5" d="M512.07,234.47c-81.15,11.18-147.16,85.02-147.16,164.59v252.22c25.09,19.72,55.87,32.79,90.07,37.3v-169.88l-24.82-27.32,24.82-31.03v-73.71c0-30.87,25.61-59.52,57.09-63.86,31.48-4.34,57.09,17.25,57.09,48.12s-23.68,57.23-53.47,63.18v-31.69l-68.48,88.2,68.48,69.33v-37.43c79.47-12.85,143.54-85.62,143.54-164s-66.01-135.21-147.16-124.03Z"/>
        <path class="cls-4" d="M512.03,234.45c-65.14,9.1-120.65,58.54-139.89,118.98,13,44.25,43.19,81.14,82.86,102.93v-69.69c0-30.84,25.52-59.47,57.03-63.91,31.51-4.44,57.03,17.31,57.03,48.15s-23.74,57.25-53.48,63.24v-31.73l-47.14,60.57c21.35,9.42,44.95,14.65,69.78,14.65,32.12,0,62.19-8.76,87.97-24,20.6-27.65,32.97-60.98,32.97-95.38,0-79.22-65.9-134.91-147.12-123.82Z"/>
        <path class="cls-7" d="M474.22,244.57c-62.79,25.13-109.31,87.72-109.31,154.54v173.5c14.7,4.06,30.17,6.23,46.15,6.23s29.9-1.96,43.94-5.63v-56.5l-22.86-25.07,22.86-29.51v-75.45c0-30.84,25.52-59.47,57.03-63.91,31.51-4.44,57.03,17.31,57.03,48.15s-23.74,57.25-53.48,63.24v-31.73l-68.57,88.09,59.23,59.81c3.19-2.1,6.3-4.31,9.34-6.61v-21.47c10.43-1.69,20.58-4.42,30.37-8.05,23.89-29.67,38.2-67.39,38.2-108.45,0-73.3-45.57-135.96-109.93-161.19Z"/>
        <path class="cls-8" d="M455,516.71l-22.86-25.07,22.86-29.51v-75.45c0-19.32,10.02-37.78,25.25-49.96-21.19-9.25-44.59-14.4-69.19-14.4-8.99,0-17.83,.69-26.45,2.01-12.52,22.93-19.7,48.52-19.7,74.77v252.08c7.52,5.93,15.58,11.24,24.07,15.91,7.23,.92,14.6,1.4,22.08,1.4,15.18,0,29.9-1.96,43.94-5.63v-146.15Z"/>
        <path class="cls-3" d="M455,516.71l-22.86-25.07,13.66-17.63c-12.99-3.12-26.56-4.78-40.51-4.78s-27.43,1.65-40.39,4.75v177.21c25.07,19.75,55.92,32.84,90.09,37.28v-171.75Z"/>
        <path class="cls-2" d="M391.76,469.22c0,53.88,24.62,102,63.22,133.74v-84.25l-24.82-27.32,24.82-31.03v-73.71c0-30.87,25.61-59.52,57.09-63.86,31.48-4.34,57.09,17.25,57.09,48.12s-23.68,57.23-53.47,63.18v-31.69l-68.48,88.2,68.48,69.33v-37.43c79.47-12.85,143.54-85.62,143.54-164,0-13.3-1.85-25.93-5.31-37.7-26.02-15.65-56.5-24.66-89.08-24.66-95.59,0-173.08,77.49-173.08,173.08Z"/>
      </g>
    </g>
  </g>
</svg>