<?xml version="1.0" encoding="UTF-8"?>
<svg id="Layer_2" data-name="Layer 2" xmlns="http://www.w3.org/2000/svg" viewBox="0 0 655.53 256">
  <defs>
    <style>
      .cls-1 {
        stroke-width: .25px;
      }

      .cls-1, .cls-2 {
        fill: none;
        opacity: .1;
        stroke: #fff;
        stroke-miterlimit: 10;
      }

      .cls-2 {
        stroke-width: .2px;
      }
    </style>
  </defs>
  <g id="Content">
    <g>
      <rect class="cls-2" x="323.77" y="-79.76" width="7.99" height="655.28" transform="translate(79.88 575.65) rotate(-90)"/>
      <rect class="cls-2" x="323.77" y="-87.75" width="7.99" height="655.28" transform="translate(87.87 567.65) rotate(-90)"/>
      <rect class="cls-2" x="323.77" y="-95.74" width="7.99" height="655.28" transform="translate(95.86 559.66) rotate(-90)"/>
      <rect class="cls-2" x="323.77" y="-103.73" width="7.99" height="655.28" transform="translate(103.86 551.67) rotate(-90)"/>
      <rect class="cls-2" x="323.77" y="-111.72" width="7.99" height="655.28" transform="translate(111.85 543.68) rotate(-90)"/>
      <rect class="cls-2" x="323.77" y="-119.72" width="7.99" height="655.28" transform="translate(119.84 535.68) rotate(-90)"/>
      <rect class="cls-2" x="323.77" y="-127.71" width="7.99" height="655.28" transform="translate(127.83 527.69) rotate(-90)"/>
      <rect class="cls-2" x="323.77" y="-135.7" width="7.99" height="655.28" transform="translate(135.83 519.7) rotate(-90)"/>
      <rect class="cls-2" x="323.77" y="-143.69" width="7.99" height="655.28" transform="translate(143.82 511.71) rotate(-90)"/>
      <rect class="cls-2" x="323.77" y="-151.68" width="7.99" height="655.28" transform="translate(151.81 503.72) rotate(-90)"/>
      <rect class="cls-2" x="323.77" y="-159.68" width="7.99" height="655.28" transform="translate(159.8 495.72) rotate(-90)"/>
      <rect class="cls-2" x="323.77" y="-167.67" width="7.99" height="655.28" transform="translate(167.79 487.73) rotate(-90)"/>
      <rect class="cls-2" x="323.77" y="-175.66" width="7.99" height="655.28" transform="translate(175.79 479.74) rotate(-90)"/>
      <rect class="cls-2" x="323.77" y="-183.65" width="7.99" height="655.28" transform="translate(183.78 471.75) rotate(-90)"/>
      <rect class="cls-2" x="323.77" y="-191.65" width="7.99" height="655.28" transform="translate(191.77 463.76) rotate(-90)"/>
      <rect class="cls-2" x="323.77" y="-199.64" width="7.99" height="655.28" transform="translate(199.76 455.76) rotate(-90)"/>
      <rect class="cls-2" x="323.77" y="-207.63" width="7.99" height="655.28" transform="translate(207.76 447.77) rotate(-90)"/>
      <rect class="cls-2" x="323.77" y="-215.62" width="7.99" height="655.28" transform="translate(215.75 439.78) rotate(-90)"/>
      <rect class="cls-2" x="323.77" y="-223.61" width="7.99" height="655.28" transform="translate(223.74 431.79) rotate(-90)"/>
      <rect class="cls-2" x="323.77" y="-231.61" width="7.99" height="655.28" transform="translate(231.73 423.79) rotate(-90)"/>
      <rect class="cls-2" x="323.77" y="-239.6" width="7.99" height="655.28" transform="translate(239.72 415.8) rotate(-90)"/>
      <rect class="cls-2" x="323.77" y="-247.59" width="7.99" height="655.28" transform="translate(247.72 407.81) rotate(-90)"/>
      <rect class="cls-2" x="323.77" y="-255.58" width="7.99" height="655.28" transform="translate(255.71 399.82) rotate(-90)"/>
      <rect class="cls-2" x="323.77" y="-263.58" width="7.99" height="655.28" transform="translate(263.7 391.83) rotate(-90)"/>
      <rect class="cls-2" x="323.77" y="-271.57" width="7.99" height="655.28" transform="translate(271.69 383.83) rotate(-90)"/>
      <rect class="cls-2" x="323.77" y="-279.56" width="7.99" height="655.28" transform="translate(279.68 375.84) rotate(-90)"/>
      <rect class="cls-2" x="323.77" y="-287.55" width="7.99" height="655.28" transform="translate(287.68 367.85) rotate(-90)"/>
      <rect class="cls-2" x="323.77" y="-295.54" width="7.99" height="655.28" transform="translate(295.67 359.86) rotate(-90)"/>
      <rect class="cls-2" x="323.77" y="-303.54" width="7.99" height="655.28" transform="translate(303.66 351.86) rotate(-90)"/>
      <rect class="cls-2" x="323.77" y="-311.53" width="7.99" height="655.28" transform="translate(311.65 343.87) rotate(-90)"/>
      <rect class="cls-2" x="323.77" y="-319.52" width="7.99" height="655.28" transform="translate(319.65 335.88) rotate(-90)"/>
      <rect class="cls-1" x=".12" y=".12" width="7.99" height="255.75"/>
      <rect class="cls-1" x="16.11" y=".12" width="7.99" height="255.75"/>
      <rect class="cls-1" x="24.1" y=".12" width="7.99" height="255.75"/>
      <rect class="cls-1" x="32.09" y=".12" width="7.99" height="255.75"/>
      <rect class="cls-1" x="40.08" y=".12" width="7.99" height="255.75"/>
      <rect class="cls-1" x="48.07" y=".12" width="7.99" height="255.75"/>
      <rect class="cls-1" x="56.06" y=".12" width="7.99" height="255.75"/>
      <rect class="cls-1" x="64.05" y=".12" width="7.99" height="255.75"/>
      <rect class="cls-1" x="72.05" y=".12" width="7.99" height="255.75"/>
      <rect class="cls-1" x="80.04" y=".12" width="7.99" height="255.75"/>
      <rect class="cls-1" x="88.03" y=".12" width="7.99" height="255.75"/>
      <rect class="cls-1" x="96.02" y=".12" width="7.99" height="255.75"/>
      <rect class="cls-1" x="104.01" y=".12" width="7.99" height="255.75"/>
      <rect class="cls-1" x="112" y=".12" width="7.99" height="255.75"/>
      <rect class="cls-1" x="119.99" y=".12" width="7.99" height="255.75"/>
      <rect class="cls-1" x="127.98" y=".12" width="7.99" height="255.75"/>
      <rect class="cls-1" x="135.97" y=".12" width="7.99" height="255.75"/>
      <rect class="cls-1" x="143.97" y=".12" width="7.99" height="255.75"/>
      <rect class="cls-1" x="151.96" y=".12" width="7.99" height="255.75"/>
      <rect class="cls-1" x="159.95" y=".12" width="7.99" height="255.75"/>
      <rect class="cls-1" x="167.94" y=".12" width="7.99" height="255.75"/>
      <rect class="cls-1" x="175.93" y=".12" width="7.99" height="255.75"/>
      <rect class="cls-1" x="183.92" y=".12" width="7.99" height="255.75"/>
      <rect class="cls-1" x="191.91" y=".12" width="7.99" height="255.75"/>
      <rect class="cls-1" x="199.9" y=".12" width="7.99" height="255.75"/>
      <rect class="cls-1" x="207.9" y=".12" width="7.99" height="255.75"/>
      <rect class="cls-1" x="215.89" y=".12" width="7.99" height="255.75"/>
      <rect class="cls-1" x="223.88" y=".12" width="7.99" height="255.75"/>
      <rect class="cls-1" x="231.87" y=".12" width="7.99" height="255.75"/>
      <rect class="cls-1" x="239.86" y=".12" width="7.99" height="255.75"/>
      <rect class="cls-1" x="247.85" y=".12" width="7.99" height="255.75"/>
      <rect class="cls-1" x="255.84" y=".12" width="7.99" height="255.75"/>
      <rect class="cls-1" x="263.83" y=".12" width="7.99" height="255.75"/>
      <rect class="cls-1" x="271.82" y=".12" width="7.99" height="255.75"/>
      <rect class="cls-1" x="279.82" y=".12" width="7.99" height="255.75"/>
      <rect class="cls-1" x="287.81" y=".12" width="7.99" height="255.75"/>
      <rect class="cls-1" x="295.8" y=".12" width="7.99" height="255.75"/>
      <rect class="cls-1" x="303.79" y=".12" width="7.99" height="255.75"/>
      <rect class="cls-1" x="311.78" y=".12" width="7.99" height="255.75"/>
      <rect class="cls-1" x="319.77" y=".12" width="7.99" height="255.75"/>
      <rect class="cls-1" x="327.76" y=".12" width="7.99" height="255.75"/>
      <rect class="cls-1" x="335.75" y=".12" width="7.99" height="255.75"/>
      <rect class="cls-1" x="343.75" y=".12" width="7.99" height="255.75"/>
      <rect class="cls-1" x="351.74" y=".12" width="7.99" height="255.75"/>
      <rect class="cls-1" x="359.73" y=".12" width="7.99" height="255.75"/>
      <rect class="cls-1" x="367.72" y=".12" width="7.99" height="255.75"/>
      <rect class="cls-1" x="375.71" y=".12" width="7.99" height="255.75"/>
      <rect class="cls-1" x="383.7" y=".12" width="7.99" height="255.75"/>
      <rect class="cls-1" x="391.69" y=".12" width="7.99" height="255.75"/>
      <rect class="cls-1" x="399.68" y=".12" width="7.99" height="255.75"/>
      <rect class="cls-1" x="407.67" y=".12" width="7.99" height="255.75"/>
      <rect class="cls-1" x="415.67" y=".12" width="7.99" height="255.75"/>
      <rect class="cls-1" x="423.66" y=".12" width="7.99" height="255.75"/>
      <rect class="cls-1" x="431.65" y=".12" width="7.99" height="255.75"/>
      <rect class="cls-1" x="439.64" y=".12" width="7.99" height="255.75"/>
      <rect class="cls-1" x="447.63" y=".12" width="7.99" height="255.75"/>
      <rect class="cls-1" x="455.62" y=".12" width="7.99" height="255.75"/>
      <rect class="cls-1" x="463.61" y=".12" width="7.99" height="255.75"/>
      <rect class="cls-1" x="471.6" y=".12" width="7.99" height="255.75"/>
      <rect class="cls-1" x="479.6" y=".12" width="7.99" height="255.75"/>
      <rect class="cls-1" x="487.59" y=".12" width="7.99" height="255.75"/>
      <rect class="cls-1" x="495.58" y=".12" width="7.99" height="255.75"/>
      <rect class="cls-1" x="503.57" y=".12" width="7.99" height="255.75"/>
      <rect class="cls-1" x="511.56" y=".12" width="7.99" height="255.75"/>
      <rect class="cls-1" x="519.55" y=".12" width="7.99" height="255.75"/>
      <rect class="cls-1" x="527.54" y=".12" width="7.99" height="255.75"/>
      <rect class="cls-1" x="535.53" y=".12" width="7.99" height="255.75"/>
      <rect class="cls-1" x="543.52" y=".12" width="7.99" height="255.75"/>
      <rect class="cls-1" x="551.52" y=".12" width="7.99" height="255.75"/>
      <rect class="cls-1" x="559.51" y=".12" width="7.99" height="255.75"/>
      <rect class="cls-1" x="567.5" y=".12" width="7.99" height="255.75"/>
      <rect class="cls-1" x="575.49" y=".12" width="7.99" height="255.75"/>
      <rect class="cls-1" x="583.48" y=".12" width="7.99" height="255.75"/>
      <rect class="cls-1" x="591.47" y=".12" width="7.99" height="255.75"/>
      <rect class="cls-1" x="599.46" y=".12" width="7.99" height="255.75"/>
      <rect class="cls-1" x="607.45" y=".12" width="7.99" height="255.75"/>
      <rect class="cls-1" x="615.45" y=".12" width="7.99" height="255.75"/>
      <rect class="cls-1" x="623.44" y=".12" width="7.99" height="255.75"/>
      <rect class="cls-1" x="631.43" y=".12" width="7.99" height="255.75"/>
      <rect class="cls-1" x="639.42" y=".12" width="7.99" height="255.75"/>
      <rect class="cls-1" x="647.41" y=".12" width="7.99" height="255.75"/>
    </g>
  </g>
</svg>