<?xml version="1.0" encoding="utf-8"?>
<!-- Generator: Adobe Illustrator 27.4.0, SVG Export Plug-In . SVG Version: 6.00 Build 0)  -->
<svg version="1.1" id="Layer_2_00000010275574091804174830000011638882148008527758_"
	 xmlns="http://www.w3.org/2000/svg" xmlns:xlink="http://www.w3.org/1999/xlink" x="0px" y="0px" viewBox="0 0 655.5 256"
	 style="enable-background:new 0 0 655.5 256;" xml:space="preserve">
<style type="text/css">
	.st0{opacity:0.1;fill:none;stroke:#000000;stroke-width:0.2;stroke-miterlimit:10;enable-background:new    ;}
	.st1{opacity:0.1;fill:none;stroke:#000000;stroke-width:0.25;stroke-miterlimit:10;enable-background:new    ;}
</style>
<g id="Content">
	<g>
		<rect x="0.1" y="243.9" class="st0" width="655.3" height="8"/>
		<rect x="0.1" y="235.9" class="st0" width="655.3" height="8"/>
		<rect x="0.1" y="227.9" class="st0" width="655.3" height="8"/>
		<rect x="0.1" y="219.9" class="st0" width="655.3" height="8"/>
		<rect x="0.1" y="211.9" class="st0" width="655.3" height="8"/>
		<rect x="0.1" y="203.9" class="st0" width="655.3" height="8"/>
		<rect x="0.1" y="195.9" class="st0" width="655.3" height="8"/>
		<rect x="0.1" y="187.9" class="st0" width="655.3" height="8"/>
		<rect x="0.1" y="180" class="st0" width="655.3" height="8"/>
		<rect x="0.1" y="172" class="st0" width="655.3" height="8"/>
		<rect x="0.1" y="164" class="st0" width="655.3" height="8"/>
		<rect x="0.1" y="156" class="st0" width="655.3" height="8"/>
		<rect x="0.1" y="148" class="st0" width="655.3" height="8"/>
		<rect x="0.1" y="140" class="st0" width="655.3" height="8"/>
		<rect x="0.1" y="132" class="st0" width="655.3" height="8"/>
		<rect x="0.1" y="124" class="st0" width="655.3" height="8"/>
		<rect x="0.1" y="116" class="st0" width="655.3" height="8"/>
		<rect x="0.1" y="108" class="st0" width="655.3" height="8"/>
		<rect x="0.1" y="100" class="st0" width="655.3" height="8"/>
		<rect x="0.1" y="92" class="st0" width="655.3" height="8"/>
		<rect x="0.1" y="84" class="st0" width="655.3" height="8"/>
		<rect x="0.1" y="76.1" class="st0" width="655.3" height="8"/>
		<rect x="0.1" y="68.1" class="st0" width="655.3" height="8"/>
		<rect x="0.1" y="60.1" class="st0" width="655.3" height="8"/>
		<rect x="0.1" y="52.1" class="st0" width="655.3" height="8"/>
		<rect x="0.1" y="44.1" class="st0" width="655.3" height="8"/>
		<rect x="0.1" y="36.1" class="st0" width="655.3" height="8"/>
		<rect x="0.1" y="28.1" class="st0" width="655.3" height="8"/>
		<rect x="0.1" y="20.1" class="st0" width="655.3" height="8"/>
		<rect x="0.1" y="12.1" class="st0" width="655.3" height="8"/>
		<rect x="0.1" y="4.1" class="st0" width="655.3" height="8"/>
		<rect x="0.1" y="0.1" class="st1" width="8" height="255.8"/>
		<rect x="16.1" y="0.1" class="st1" width="8" height="255.8"/>
		<rect x="24.1" y="0.1" class="st1" width="8" height="255.8"/>
		<rect x="32.1" y="0.1" class="st1" width="8" height="255.8"/>
		<rect x="40.1" y="0.1" class="st1" width="8" height="255.8"/>
		<rect x="48.1" y="0.1" class="st1" width="8" height="255.8"/>
		<rect x="56.1" y="0.1" class="st1" width="8" height="255.8"/>
		<rect x="64.1" y="0.1" class="st1" width="8" height="255.8"/>
		<rect x="72.1" y="0.1" class="st1" width="8" height="255.8"/>
		<rect x="80" y="0.1" class="st1" width="8" height="255.8"/>
		<rect x="88" y="0.1" class="st1" width="8" height="255.8"/>
		<rect x="96" y="0.1" class="st1" width="8" height="255.8"/>
		<rect x="104" y="0.1" class="st1" width="8" height="255.8"/>
		<rect x="112" y="0.1" class="st1" width="8" height="255.8"/>
		<rect x="120" y="0.1" class="st1" width="8" height="255.8"/>
		<rect x="128" y="0.1" class="st1" width="8" height="255.8"/>
		<rect x="136" y="0.1" class="st1" width="8" height="255.8"/>
		<rect x="144" y="0.1" class="st1" width="8" height="255.8"/>
		<rect x="152" y="0.1" class="st1" width="8" height="255.8"/>
		<rect x="159.9" y="0.1" class="st1" width="8" height="255.8"/>
		<rect x="167.9" y="0.1" class="st1" width="8" height="255.8"/>
		<rect x="175.9" y="0.1" class="st1" width="8" height="255.8"/>
		<rect x="183.9" y="0.1" class="st1" width="8" height="255.8"/>
		<rect x="191.9" y="0.1" class="st1" width="8" height="255.8"/>
		<rect x="199.9" y="0.1" class="st1" width="8" height="255.8"/>
		<rect x="207.9" y="0.1" class="st1" width="8" height="255.8"/>
		<rect x="215.9" y="0.1" class="st1" width="8" height="255.8"/>
		<rect x="223.9" y="0.1" class="st1" width="8" height="255.8"/>
		<rect x="231.9" y="0.1" class="st1" width="8" height="255.8"/>
		<rect x="239.9" y="0.1" class="st1" width="8" height="255.8"/>
		<rect x="247.9" y="0.1" class="st1" width="8" height="255.8"/>
		<rect x="255.8" y="0.1" class="st1" width="8" height="255.8"/>
		<rect x="263.8" y="0.1" class="st1" width="8" height="255.8"/>
		<rect x="271.8" y="0.1" class="st1" width="8" height="255.8"/>
		<rect x="279.8" y="0.1" class="st1" width="8" height="255.8"/>
		<rect x="287.8" y="0.1" class="st1" width="8" height="255.8"/>
		<rect x="295.8" y="0.1" class="st1" width="8" height="255.8"/>
		<rect x="303.8" y="0.1" class="st1" width="8" height="255.8"/>
		<rect x="311.8" y="0.1" class="st1" width="8" height="255.8"/>
		<rect x="319.8" y="0.1" class="st1" width="8" height="255.8"/>
		<rect x="327.8" y="0.1" class="st1" width="8" height="255.8"/>
		<rect x="335.8" y="0.1" class="st1" width="8" height="255.8"/>
		<rect x="343.8" y="0.1" class="st1" width="8" height="255.8"/>
		<rect x="351.7" y="0.1" class="st1" width="8" height="255.8"/>
		<rect x="359.7" y="0.1" class="st1" width="8" height="255.8"/>
		<rect x="367.7" y="0.1" class="st1" width="8" height="255.8"/>
		<rect x="375.7" y="0.1" class="st1" width="8" height="255.8"/>
		<rect x="383.7" y="0.1" class="st1" width="8" height="255.8"/>
		<rect x="391.7" y="0.1" class="st1" width="8" height="255.8"/>
		<rect x="399.7" y="0.1" class="st1" width="8" height="255.8"/>
		<rect x="407.7" y="0.1" class="st1" width="8" height="255.8"/>
		<rect x="415.7" y="0.1" class="st1" width="8" height="255.8"/>
		<rect x="423.7" y="0.1" class="st1" width="8" height="255.8"/>
		<rect x="431.6" y="0.1" class="st1" width="8" height="255.8"/>
		<rect x="439.6" y="0.1" class="st1" width="8" height="255.8"/>
		<rect x="447.6" y="0.1" class="st1" width="8" height="255.8"/>
		<rect x="455.6" y="0.1" class="st1" width="8" height="255.8"/>
		<rect x="463.6" y="0.1" class="st1" width="8" height="255.8"/>
		<rect x="471.6" y="0.1" class="st1" width="8" height="255.8"/>
		<rect x="479.6" y="0.1" class="st1" width="8" height="255.8"/>
		<rect x="487.6" y="0.1" class="st1" width="8" height="255.8"/>
		<rect x="495.6" y="0.1" class="st1" width="8" height="255.8"/>
		<rect x="503.6" y="0.1" class="st1" width="8" height="255.8"/>
		<rect x="511.6" y="0.1" class="st1" width="8" height="255.8"/>
		<rect x="519.5" y="0.1" class="st1" width="8" height="255.8"/>
		<rect x="527.5" y="0.1" class="st1" width="8" height="255.8"/>
		<rect x="535.5" y="0.1" class="st1" width="8" height="255.8"/>
		<rect x="543.5" y="0.1" class="st1" width="8" height="255.8"/>
		<rect x="551.5" y="0.1" class="st1" width="8" height="255.8"/>
		<rect x="559.5" y="0.1" class="st1" width="8" height="255.8"/>
		<rect x="567.5" y="0.1" class="st1" width="8" height="255.8"/>
		<rect x="575.5" y="0.1" class="st1" width="8" height="255.8"/>
		<rect x="583.5" y="0.1" class="st1" width="8" height="255.8"/>
		<rect x="591.5" y="0.1" class="st1" width="8" height="255.8"/>
		<rect x="599.5" y="0.1" class="st1" width="8" height="255.8"/>
		<rect x="607.5" y="0.1" class="st1" width="8" height="255.8"/>
		<rect x="615.5" y="0.1" class="st1" width="8" height="255.8"/>
		<rect x="623.4" y="0.1" class="st1" width="8" height="255.8"/>
		<rect x="631.4" y="0.1" class="st1" width="8" height="255.8"/>
		<rect x="639.4" y="0.1" class="st1" width="8" height="255.8"/>
		<rect x="647.4" y="0.1" class="st1" width="8" height="255.8"/>
	</g>
</g>
</svg>
