<?xml version="1.0" encoding="UTF-8"?>
<svg id="Layer_2" data-name="Layer 2" xmlns="http://www.w3.org/2000/svg" viewBox="0 0 1024 1024">
  <defs>
    <style>
      .cls-1 {
        fill: #fff;
      }

      .cls-2 {
        fill: #960000;
      }
    </style>
  </defs>
  <g id="Content-Color">
    <g>
      <rect class="cls-2" width="1024" height="1024"/>
      <g>
        <path class="cls-1" d="M328.02,345.5c-9.25,0-16.77,7.52-16.77,16.77v57.78h-3.73v-57.78c0-9.25-7.52-16.77-16.77-16.77s-16.77,7.52-16.77,16.77v57.78h-3.73v-57.78c0-9.25-7.52-16.77-16.77-16.77s-16.77,7.52-16.77,16.77v93.19c0,9.44,3.66,18.41,10.3,25.26,4.93,5.08,11.03,8.49,17.66,9.95v161.73c0,14.39,11.71,26.09,26.09,26.09s26.09-11.71,26.09-26.09v-161.73c6.62-1.46,12.72-4.87,17.66-9.95,6.64-6.85,10.3-15.82,10.3-25.26v-93.19c0-9.25-7.52-16.77-16.77-16.77Zm9.32,109.96c0,.45-.01,.89-.03,1.33,0,.14-.02,.28-.03,.42-.02,.3-.04,.6-.07,.9-.02,.16-.03,.33-.05,.49-.03,.28-.07,.56-.11,.84-.02,.16-.05,.33-.07,.49-.05,.29-.1,.57-.15,.86-.03,.14-.05,.29-.08,.43-.08,.4-.17,.79-.27,1.18-.02,.07-.04,.15-.06,.22-.09,.36-.2,.72-.3,1.08-.05,.16-.1,.31-.15,.47-.08,.25-.16,.5-.25,.75-.06,.18-.13,.35-.19,.52-.08,.23-.17,.45-.26,.67-.07,.18-.14,.36-.22,.53-.09,.22-.19,.43-.29,.65-.08,.17-.16,.35-.24,.52-.11,.24-.23,.47-.35,.7-.15,.3-.31,.59-.47,.88-.1,.19-.21,.38-.32,.56-.12,.2-.24,.4-.36,.59-.1,.16-.19,.31-.29,.46-.13,.2-.27,.4-.4,.6-.09,.14-.19,.28-.29,.41-.15,.21-.29,.41-.45,.62-.08,.11-.17,.22-.26,.34-.17,.22-.34,.44-.51,.65-.01,.01-.02,.03-.03,.04-.47,.57-.96,1.13-1.47,1.66,0,0,0,0,0,0-.22,.23-.45,.46-.68,.68-.06,.06-.12,.12-.18,.18-.23,.22-.45,.43-.69,.64-.06,.05-.12,.11-.18,.16-.24,.22-.49,.43-.74,.64-.03,.02-.06,.05-.09,.07-1.14,.94-2.35,1.79-3.63,2.54,0,0-.02,0-.02,.01-.31,.18-.63,.36-.95,.53-.02,.01-.04,.02-.06,.03-3.82,2.03-8.13,3.2-12.71,3.2v168.36c0,10.29-8.34,18.64-18.64,18.64s-18.64-8.35-18.64-18.64v-168.36c-2.58,0-5.08-.38-7.46-1.06,0,0,0,0,0,0-1.83-.53-3.59-1.25-5.25-2.13-.02-.01-.05-.02-.07-.04-.32-.17-.64-.35-.95-.53,0,0-.02-.01-.03-.02-1.27-.75-2.48-1.6-3.62-2.54-.03-.03-.06-.05-.09-.08-.25-.21-.49-.42-.74-.63-.06-.06-.12-.11-.19-.17-.23-.21-.46-.42-.68-.64-.06-.06-.12-.12-.18-.18-.23-.22-.45-.45-.67-.68,0,0,0,0-.01-.01-.5-.53-.99-1.08-1.45-1.65-.01-.02-.03-.03-.04-.05-.17-.21-.34-.43-.51-.65-.09-.11-.18-.23-.26-.34-.15-.2-.3-.41-.44-.61-.1-.14-.19-.28-.29-.42-.14-.2-.27-.4-.4-.6-.1-.16-.2-.31-.29-.47-.12-.19-.24-.39-.36-.59-.11-.19-.21-.38-.32-.57-.16-.29-.32-.58-.47-.87-.12-.23-.24-.47-.35-.71-.08-.17-.16-.35-.24-.52-.1-.22-.2-.43-.29-.65-.08-.18-.15-.35-.22-.53-.09-.22-.18-.45-.26-.68-.06-.17-.13-.35-.19-.52-.09-.25-.17-.5-.25-.75-.05-.16-.1-.31-.15-.47-.11-.36-.21-.72-.31-1.09-.02-.07-.04-.14-.05-.21-.1-.39-.19-.79-.27-1.19-.03-.14-.05-.29-.08-.43-.05-.29-.11-.57-.15-.86-.03-.16-.05-.33-.07-.49-.04-.28-.07-.55-.11-.83-.02-.16-.04-.33-.05-.49-.03-.3-.05-.6-.07-.9,0-.14-.02-.28-.03-.43-.02-.44-.03-.89-.03-1.33v-72.46c1.78,.78,3.75,1.22,5.82,1.22,2.65,0,5.13-.71,7.27-1.95,1.67,.96,3.54,1.61,5.54,1.84v43.39h18.64v-41.33c1.25-.29,2.44-.74,3.54-1.33,2.04,1.1,4.38,1.72,6.86,1.72,1.95,0,3.8-.39,5.5-1.08,.87,.36,1.79,.63,2.73,.81v41.22h18.64v-43.69c1.09,.26,2.22,.4,3.39,.4,3.55,0,6.8-1.27,9.32-3.38,1.69,1.41,3.71,2.45,5.93,2.98v71.64Z"/>
        <path class="cls-1" d="M512,406.9c-32.7,0-62.97,14.83-83.05,40.68-1.26,1.63-.97,3.97,.66,5.23,1.63,1.26,3.97,.97,5.23-.66,18.66-24.02,46.78-37.8,77.16-37.8s58.5,13.78,77.16,37.8c.73,.95,1.83,1.44,2.95,1.44,.8,0,1.6-.26,2.28-.78,1.63-1.26,1.92-3.6,.66-5.23-20.08-25.85-50.35-40.68-83.05-40.68Z"/>
        <path class="cls-1" d="M512,617.1c32.7,0,62.97-14.83,83.05-40.68,1.26-1.63,.97-3.97-.66-5.23-1.63-1.26-3.97-.97-5.23,.66-18.66,24.02-46.78,37.8-77.16,37.8s-58.5-13.78-77.16-37.8c-1.26-1.63-3.6-1.92-5.23-.66-1.63,1.26-1.92,3.6-.66,5.23,20.08,25.85,50.35,40.68,83.05,40.68Z"/>
        <path class="cls-1" d="M778.44,347.48c-2.4-1.29-5.14-1.98-7.9-1.98-3.32,0-6.54,.97-9.3,2.81-21.51,14.34-37.79,31.41-48.39,50.72-9.96,18.16-15.01,38.47-15.01,60.37v89.88c0,9.25,7.52,16.77,16.77,16.77h20.5v86.36c0,14.39,11.71,26.09,26.09,26.09s26.09-11.71,26.09-26.09V362.27c0-6.2-3.4-11.87-8.86-14.79Zm1.41,304.93c0,10.29-8.34,18.64-18.64,18.64s-18.64-8.35-18.64-18.64v-93.81h-22.94c1.76-1.54,3.04-3.59,3.62-5.93,5.92-.55,10.55-5.52,10.55-11.58,0-1.66-.35-3.23-.98-4.65,2.41-2.59,3.88-6.07,3.88-9.89,0-5.97-3.6-11.09-8.74-13.33,.03-.4,.05-.8,.05-1.21,0-2.65-.71-5.13-1.95-7.27,1.24-2.14,1.95-4.62,1.95-7.27,0-2.21-.49-4.3-1.37-6.17,4.2-1.76,7.15-5.9,7.15-10.74,0-4.45-2.5-8.32-6.18-10.27,2.69-2.64,4.36-6.31,4.36-10.38s-1.59-7.55-4.15-10.17c3.89-1.11,6.74-4.69,6.74-8.94,0-5.14-4.17-9.31-9.31-9.31-.02,0-.04,0-.06,0,2.37-2.13,3.87-5.21,3.87-8.64,0-1.42-.27-2.78-.74-4.04,7.88-.17,14.22-6.61,14.22-14.53,0-5.38-2.93-10.08-7.27-12.59,1.06-1.43,1.86-3.07,2.34-4.84,1.27,.48,2.64,.75,4.08,.75,6.43,0,11.63-5.21,11.63-11.63,0-2.16-.6-4.18-1.62-5.91,.53,.07,1.07,.13,1.62,.13,5.35,0,9.84-3.61,11.2-8.53,1.04,.4,2.16,.63,3.34,.63,4.28,0,7.87-2.89,8.96-6.82,1.88,1.74,2.99,4.2,2.99,6.83v290.13Z"/>
        <path class="cls-1" d="M382.74,453.22c1.85,.9,4.08,.13,4.98-1.72,23.37-47.92,70.99-77.69,124.28-77.69s100.91,29.77,124.28,77.69c.65,1.32,1.97,2.09,3.35,2.09,.55,0,1.1-.12,1.63-.38,1.85-.9,2.62-3.13,1.72-4.98-11.79-24.18-30.04-44.62-52.76-59.12-23.35-14.89-50.39-22.76-78.22-22.76s-54.87,7.87-78.22,22.76c-22.73,14.5-40.97,34.94-52.76,59.12-.9,1.85-.13,4.08,1.72,4.98Z"/>
        <path class="cls-1" d="M641.26,570.78c-1.85-.9-4.08-.13-4.98,1.72-23.37,47.92-70.99,77.69-124.28,77.69s-100.91-29.77-124.28-77.69c-.9-1.85-3.13-2.62-4.98-1.72-1.85,.9-2.62,3.13-1.72,4.98,11.79,24.18,30.04,44.62,52.76,59.12,23.35,14.89,50.4,22.76,78.22,22.76s54.87-7.87,78.22-22.76c22.73-14.5,40.97-34.94,52.76-59.12,.9-1.85,.13-4.08-1.72-4.98Z"/>
        <path class="cls-1" d="M364.35,495.96c1.9,0,3.41-1.51,3.41-3.41v-9.3h12.58v9.3c0,1.9,1.51,3.41,3.41,3.41s3.41-1.51,3.41-3.41v-24.71c0-1.9-1.51-3.41-3.41-3.41s-3.41,1.51-3.41,3.41v9.12h-12.58v-9.12c0-1.9-1.51-3.41-3.41-3.41s-3.41,1.51-3.41,3.41v24.71c0,1.9,1.51,3.41,3.41,3.41Z"/>
        <path class="cls-1" d="M397.51,464.43c-1.9,0-3.41,1.51-3.41,3.41v14.57c0,9.12,5.09,13.77,13.42,13.77s13.6-4.61,13.6-14v-14.35c0-1.9-1.51-3.41-3.41-3.41s-3.41,1.51-3.41,3.41v14.62c0,4.92-2.52,7.44-6.69,7.44s-6.69-2.61-6.69-7.66v-14.39c0-1.9-1.51-3.41-3.41-3.41Z"/>
        <path class="cls-1" d="M428.05,492.59c0,1.86,1.51,3.37,3.37,3.37s3.37-1.51,3.37-3.37v-16.61l13.64,17.89c.93,1.2,1.9,1.99,3.54,1.99h.22c1.9,0,3.41-1.51,3.41-3.41v-24.67c0-1.86-1.51-3.37-3.37-3.37s-3.37,1.51-3.37,3.37v15.99l-13.15-17.27c-.93-1.2-1.9-1.99-3.54-1.99h-.71c-1.9,0-3.41,1.51-3.41,3.41v24.67Z"/>
        <path class="cls-1" d="M477.29,470.45c2.92,0,4.92,.8,6.78,2.13,.49,.35,1.11,.71,2.08,.71,1.86,0,3.37-1.51,3.37-3.37,0-1.33-.75-2.26-1.42-2.75-2.79-1.95-5.89-3.01-10.59-3.01-9.39,0-16.25,7.22-16.25,16.03v.09c0,9.17,6.64,15.94,16.3,15.94,4.65,0,8.33-1.55,10.85-3.1,1.64-.97,2.39-2.35,2.39-4.34v-7.53c0-1.9-1.51-3.41-3.41-3.41h-7.8c-1.64,0-2.97,1.33-2.97,2.97s1.33,2.92,2.97,2.92h4.61v4.43c-1.73,1.24-3.94,1.86-6.42,1.86-5.49,0-9.39-4.16-9.39-9.83v-.09c0-5.27,3.94-9.65,8.9-9.65Z"/>
        <path class="cls-1" d="M516.14,494.19c.8,1.02,1.82,1.77,3.37,1.77,1.64,0,3.23-1.24,3.23-3.14,0-1.06-.44-1.77-1.11-2.61l-4.74-5.76c3.77-1.55,6.2-4.56,6.2-9.43v-.09c0-2.92-.93-5.36-2.66-7.09-2.04-2.04-5.09-3.14-9.03-3.14h-10.76c-1.9,0-3.41,1.51-3.41,3.41v24.45c0,1.9,1.51,3.41,3.41,3.41s3.41-1.51,3.41-3.41v-6.78h5.45l6.64,8.42Zm-12.09-23.34h6.78c3.32,0,5.36,1.51,5.36,4.43v.09c0,2.61-1.9,4.38-5.23,4.38h-6.91v-8.9Z"/>
        <path class="cls-1" d="M539.98,495.96c1.9,0,3.41-1.51,3.41-3.41v-8.95l10.01-13.51c.44-.62,.89-1.46,.89-2.39,0-1.86-1.24-3.32-3.32-3.32-1.42,0-2.44,.8-3.28,2.04l-7.66,10.94-7.53-10.85c-.84-1.24-1.82-2.08-3.37-2.08-1.9,0-3.41,1.46-3.41,3.28,0,.97,.35,1.77,.84,2.44l10.01,13.6v8.81c0,1.9,1.51,3.41,3.41,3.41Z"/>
        <path class="cls-1" d="M593,470.89c1.73,0,3.1-1.37,3.1-3.1s-1.37-3.1-3.1-3.1h-17.36c-1.9,0-3.41,1.51-3.41,3.41v24.45c0,1.9,1.51,3.41,3.41,3.41s3.41-1.51,3.41-3.41v-8.86h11.96c1.73,0,3.1-1.37,3.1-3.1s-1.37-3.1-3.1-3.1h-11.96v-6.6h13.95Z"/>
        <path class="cls-1" d="M631.5,480.19v-.09c0-8.81-6.87-15.94-16.43-15.94s-16.52,7.22-16.52,16.03v.09c0,8.81,6.86,15.94,16.43,15.94s16.52-7.22,16.52-16.03Zm-25.82,0v-.09c0-5.31,3.81-9.65,9.3-9.65s9.39,4.43,9.39,9.74v.09c0,5.32-3.81,9.66-9.3,9.66s-9.39-4.43-9.39-9.74Z"/>
        <path class="cls-1" d="M651.36,464.69h-10.76c-1.9,0-3.41,1.51-3.41,3.41v24.45c0,1.9,1.51,3.41,3.41,3.41s3.41-1.51,3.41-3.41v-6.78h5.45l6.64,8.42c.8,1.02,1.82,1.77,3.36,1.77,1.64,0,3.23-1.24,3.23-3.14,0-1.06-.44-1.77-1.11-2.61l-4.74-5.76c3.77-1.55,6.2-4.56,6.2-9.43v-.09c0-2.92-.93-5.36-2.66-7.09-2.04-2.04-5.09-3.14-9.03-3.14Zm4.78,10.67c0,2.61-1.91,4.38-5.23,4.38h-6.91v-8.9h6.78c3.32,0,5.36,1.51,5.36,4.43v.09Z"/>
        <path class="cls-1" d="M390.7,554.16c0,2.94,2.31,5.27,5.23,5.27s5.23-2.33,5.23-5.27v-38.17c0-2.94-2.31-5.27-5.23-5.27s-5.23,2.33-5.23,5.27v14.09h-19.3v-14.09c0-2.94-2.31-5.27-5.23-5.27s-5.23,2.33-5.23,5.27v38.17c0,2.94,2.31,5.27,5.23,5.27s5.23-2.33,5.23-5.27v-14.37h19.3v14.37Z"/>
        <path class="cls-1" d="M435.05,559.84c14.68,0,25.34-11.15,25.34-24.76v-.14c0-13.61-10.53-24.63-25.21-24.63s-25.34,11.15-25.34,24.77v.14c0,13.61,10.53,24.63,25.21,24.63Zm-14.27-24.9c0-8.21,5.84-14.91,14.27-14.91s14.4,6.84,14.4,15.05v.14c0,8.21-5.84,14.91-14.27,14.91s-14.4-6.84-14.4-15.05v-.14Z"/>
        <path class="cls-1" d="M508.8,527.07v-.14c0-4.52-1.43-8.28-4.08-10.95-3.12-3.15-7.81-4.86-13.86-4.86h-16.51c-2.92,0-5.23,2.33-5.23,5.27v37.76c0,2.94,2.31,5.27,5.23,5.27s5.23-2.33,5.23-5.27v-10.47h8.36l10.19,13c1.22,1.57,2.79,2.74,5.16,2.74,2.51,0,4.96-1.91,4.96-4.86,0-1.64-.68-2.74-1.7-4.04l-7.27-8.89c5.78-2.39,9.51-7.05,9.51-14.57Zm-10.6,.55c0,4.04-2.92,6.77-8.02,6.77h-10.6v-13.75h10.39c5.1,0,8.22,2.33,8.22,6.84v.14Z"/>
        <path class="cls-1" d="M557.79,527.07v-.14c0-4.52-1.43-8.28-4.08-10.95-3.13-3.15-7.81-4.86-13.86-4.86h-16.51c-2.92,0-5.23,2.33-5.23,5.27v37.76c0,2.94,2.31,5.27,5.23,5.27s5.23-2.33,5.23-5.27v-10.47h8.36l10.19,13c1.22,1.57,2.79,2.74,5.16,2.74,2.51,0,4.96-1.91,4.96-4.86,0-1.64-.68-2.74-1.7-4.04l-7.27-8.89c5.78-2.39,9.51-7.05,9.51-14.57Zm-10.6,.55c0,4.04-2.92,6.77-8.02,6.77h-10.6v-13.75h10.39c5.1,0,8.22,2.33,8.22,6.84v.14Z"/>
        <path class="cls-1" d="M614.65,535.08v-.14c0-13.61-10.53-24.63-25.21-24.63s-25.34,11.15-25.34,24.77v.14c0,13.61,10.53,24.63,25.21,24.63s25.34-11.15,25.34-24.76Zm-10.94,.14c0,8.21-5.84,14.91-14.27,14.91s-14.4-6.84-14.4-15.05v-.14c0-8.21,5.84-14.91,14.27-14.91s14.4,6.84,14.4,15.05v.14Z"/>
        <path class="cls-1" d="M645.12,511.13h-16.51c-2.92,0-5.23,2.33-5.23,5.27v37.76c0,2.94,2.31,5.27,5.23,5.27s5.23-2.33,5.23-5.27v-10.47h8.36l10.19,13c1.22,1.57,2.79,2.74,5.16,2.74,2.51,0,4.96-1.91,4.96-4.86,0-1.64-.68-2.74-1.7-4.04l-7.27-8.89c5.78-2.39,9.51-7.05,9.51-14.57v-.14c0-4.52-1.43-8.28-4.08-10.95-3.13-3.15-7.81-4.86-13.86-4.86Zm7.34,16.49c0,4.04-2.92,6.77-8.02,6.77h-10.6v-13.75h10.39c5.1,0,8.22,2.33,8.22,6.84v.14Z"/>
      </g>
    </g>
  </g>
</svg>