<?xml version="1.0" encoding="UTF-8"?>
<svg id="Layer_2" data-name="Layer 2" xmlns="http://www.w3.org/2000/svg" viewBox="0 0 1024 1024">
  <defs>
    <style>
      .cls-1 {
        fill: #2dbd9d;
      }

      .cls-2 {
        fill: #ffc952;
      }

      .cls-3 {
        fill: #f4f3ed;
      }

      .cls-4 {
        fill: #333;
      }

      .cls-5 {
        fill: #bcb9aa;
      }

      .cls-6 {
        fill: #ff5b51;
      }
    </style>
  </defs>
  <g id="Content-Color">
    <g>
      <rect class="cls-3" width="1024" height="1024"/>
      <g>
        <path class="cls-6" d="M407.24,664.67c2.25,1.46,4.63,3.18,6.88,4.37-1.19-1.46-2.25-3.18-3.31-5.43-.26-.4-.4-.79-.66-1.46,0,.26-.26,.26-.26,.4-1.06,.93-1.85,1.46-2.65,2.12Z"/>
        <path class="cls-6" d="M617.02,664.01c-.66-.26-1.06-.79-1.46-1.19,0-.26-.26-.26-.26-.4-.26,.4-.4,.79-.66,1.46-.66,1.19-1.19,2.25-1.85,3.18,1.59-1.19,3.04-2.38,4.24-3.04Z"/>
        <path class="cls-6" d="M593.33,675.53c-3.31-1.06-6.09-3.71-6.49-7.01-.26-.4-.26-.79-.26-1.19-22.63,10.99-48.05,17.21-74.91,17.21s-50.96-6.09-73.19-16.28v.4c-.66,3.31-3.18,6.09-6.49,7.01-.66,.26-2.12,.4-3.97,.4-.66,0-1.19,0-2.12-.26,25.81,13.5,54.93,21.18,85.9,21.18s59.96-7.68,85.77-21.04c-1.99,.13-3.57-.4-4.24-.4Z"/>
        <path class="cls-6" d="M389.9,389.64c31.24-31.24,74.52-50.56,121.9-50.56s91.33,19.59,122.56,51.22c3.18-3.57,5.43-7.01,7.01-10.59-33.49-32.82-79.28-53.07-129.84-53.07s-95.3,19.99-128.52,52.02c1.46,3.71,3.71,7.41,6.88,10.99Z"/>
        <path class="cls-6" d="M682.81,535.76c-.26,1.06-.26,2.25-.4,3.31,.4,.26,1.06,.66,1.46,.79,3.57,1.85,5.43,5.56,4.76,9.53-.66,3.97-3.71,7.01-7.68,7.68-.4,0-1.46,.26-2.65,.26-6.88,24.75-18.93,47.38-35.34,66.57,.4,2.51,.4,5.43-.26,8.47-.79,3.57-3.71,6.22-7.01,7.01,.26,.79,.26,1.46,.26,2.12,.26,2.51,.4,4.76,.4,7.28,32.03-29.12,53.87-69.49,59.3-114.88-3.31,.93-7.68,1.85-12.84,1.85Z"/>
        <path class="cls-6" d="M389.5,641.64c0-.79,.26-1.46,.26-2.12-3.57-.79-6.49-3.57-7.01-7.01-.66-2.51-.66-4.76-.4-6.88-17.21-19.59-29.91-42.62-37.06-68.43-.4,0-.79-.26-.79-.26-3.97-.66-7.01-3.71-7.68-7.68-.66-3.97,1.46-7.68,4.76-9.53-.26-1.46-.4-2.91-.66-4.37-5.43-.4-9.79-1.46-12.84-2.51,5.43,46.59,28.06,87.75,61.41,117.27-.66-2.25-.4-5.43,0-8.47Z"/>
      </g>
      <path class="cls-2" d="M629.6,619.8c-7.68-7.01-13.37-2.12-14.29-.26-2.12,2.91-20.65,1.72-20.12,0-2.91-1.06-9.53-7.68-14.82-12.84-5.16-5.16-9.93-3.31-9.93-3.31,0,0,.79,5.43,0,6.88-.79,1.46,10.46,5.16,12.84,11.65,2.51,6.22,0,9.79-.79,10.46-2.12,2.12-13.9,2.51-15.22,10.59,0,0-4.76,9.4,3.97,14.29,0,0-1.06-6.88,.26-7.28,1.19-.4,5.43,1.72,8.07-1.85,2.91-3.57,4.63-11.25,9-11.91,4.37-.79,6.62,7.28,6.49,10.59-.26,3.31-1.46,9.4,.79,11.38,2.51,1.85,4.1,2.91,4.1,3.57-.66,3.18-3.57,5.43-3.57,5.43,0,0,6.22,1.85,10.59-7.01,5.43-10.99-1.72-15.62-4.76-18.13-3.18-2.51-2.51-7.28-2.51-7.28,3.31-.26,7.01,3.18,8.47,5.16,1.46,1.99,2.51,5.82,5.43,8.74,3.18,3.18,9.53,1.19,9.53,1.19,1.19,3.31-.4,6.49-.4,6.49,4.1-2.51,5.43-4.76,4.1-13.5-.79-8.07-12.04-8.07-12.04-8.07-2.12-3.31-6.09-4.37-8.47-4.76-.4-1.46-2.12-2.51-2.12-2.51,2.12-.26,4.76-.66,7.01,0,2.51,.66,6.88,3.71,11.91,2.12,3.71-1.06,3.71-5.43,3.71-5.43,3.31,.26,6.88,6.49,6.88,6.49,2.12-8.47-4.1-10.85-4.1-10.85Z"/>
      <path class="cls-2" d="M581.55,421.27c-10.46-5.56-15.35,.4-15.35,.4,0,0,5.56-2.51,12.71,2.12,6.62,4.1,10.85,4.76,13.5,2.91,6.09-4.1,.4-9.93,.4-9.93,0,0-1.59,9.53-11.25,4.5Z"/>
      <path class="cls-2" d="M442.98,631.98c-.79-.79-3.57-4.1-.79-10.46,2.51-6.22,13.9-9.93,12.84-11.65-.79-1.46,0-6.88,0-6.88,0,0-4.76-1.85-9.93,3.31-5.16,5.16-11.91,11.91-14.82,12.84,.26,1.72-18.13,2.91-20.12,0-1.19-1.72-6.88-6.88-14.29,.26,0,0-6.09,2.51-4.1,10.59,0,0,3.71-6.22,6.88-6.49,0,0,0,4.1,3.71,5.43,5.16,1.46,9.4-1.46,11.91-2.12s5.03-.26,7.01,0c0,0-1.46,.79-2.12,2.51-2.51,.26-6.49,1.46-8.47,4.76,0,0-11.25,.26-12.04,8.07-1.06,8.74,0,10.99,4.1,13.5,0,0-1.46-3.18-.4-6.49,0,0,6.49,1.85,9.53-1.19,3.18-3.18,3.97-6.88,5.43-8.74,1.46-2.12,5.03-5.43,8.47-5.16,0,0,.79,4.76-2.51,7.28-3.18,2.51-10.19,7.01-4.76,18.13,4.1,8.74,10.59,7.01,10.59,7.01,0,0-2.91-2.51-3.57-5.43-.26-.66,1.72-1.72,4.1-3.57,2.51-1.85,1.06-7.94,.79-11.38-.26-3.31,2.12-11.38,6.49-10.59,4.37,.79,6.09,8.47,9,11.91,2.91,3.57,6.88,1.46,8.07,1.85,1.19,.4,.26,7.28,.26,7.28,8.74-4.76,3.97-14.29,3.97-14.29-1.32-7.81-13.1-8.21-15.22-10.32Z"/>
      <path class="cls-2" d="M432.79,426.43c2.65,2.12,6.88,1.46,13.5-2.91,7.01-4.63,12.71-2.12,12.71-2.12,0,0-5.03-6.09-15.35-.4-9.79,4.76-11.38-4.76-11.38-4.76,0,0-5.29,6.35,.53,10.19Z"/>
      <g>
        <path class="cls-5" d="M558.26,380.77h.26c.4,0,.79-.26,.79-.66l9.4-26.21c.26-.4-.26-1.06-.66-1.19-.4-.26-1.06,.26-1.19,.66l-9.4,26.21c-.13,.53,.13,1.19,.79,1.19Z"/>
        <path class="cls-5" d="M532.58,381.96h0c.66,0,1.06-.26,1.06-.79l5.03-28.06c.26-.66-.26-1.06-.79-1.06-.66-.26-1.06,.26-1.06,.79l-5.03,28.06c-.26,.4,.26,.79,.79,1.06Z"/>
        <path class="cls-5" d="M583.14,390.7l6.09-10.19c.26-.4,.26-1.06-.26-1.46-.4-.26-1.06-.26-1.46,.26l-6.22,10.59c.66,.13,1.19,.4,1.85,.79Z"/>
        <path class="cls-5" d="M511.4,392.55c.66,0,.79-.4,.79-.79v-45.4c0-.66-.4-.79-.79-.79-.66,0-.79,.4-.79,.79v45.13c0,.66,.4,1.06,.79,1.06Z"/>
        <path class="cls-5" d="M531.39,394.27l.79-5.43c.26-.4-.26-1.06-.79-1.06-.66-.26-1.06,.26-1.06,.79l-1.06,6.09c.66-.26,1.32-.26,2.12-.4Z"/>
        <path class="cls-5" d="M614.11,596.51c-.26,.4-.26,1.06,.26,1.46l10.99,9.4c1.85,.4,3.71,1.06,5.43,2.12l-15.22-12.84c-.4-.4-.93-.4-1.46-.13Z"/>
        <path class="cls-5" d="M555.48,631.19c.26,.79,.66,3.18,.26,6.09l1.85,4.76c.26-.79,.4-1.72,.79-2.25,0-.26,.26-.26,.26-.66l-3.18-7.94Z"/>
        <path class="cls-5" d="M563.82,452.11l2.51-3.18c.26-.4,.26-1.06-.26-1.46-.4-.4-1.06-.26-1.46,.26l-4.63,5.43,3.84-1.06Z"/>
        <path class="cls-5" d="M470.37,625.76c-.4-.26-1.06,.26-1.19,.66l-3.57,9.4c.4,.79,.79,1.72,1.06,2.51l4.1-11.38c.26-.4,0-.79-.4-1.19Z"/>
        <path class="cls-5" d="M597.3,583.54l11.38,9.4c.26,.26,.4,.26,.66,.26s.66-.26,.79-.26c.26-.4,.26-1.06-.26-1.46l-7.01-6.09c-.26-.26-.79-.26-1.06-.26-.4-.26-2.51-1.06-4.76-2.65-.4,.66-.13,1.06,.26,1.06Z"/>
        <path class="cls-5" d="M599.02,410.02l20.12-24.09c.26-.4,.26-1.06-.26-1.46-.4-.26-1.06-.26-1.46,.26l-20.12,24.09c.79,.13,1.19,.79,1.72,1.19Z"/>
        <path class="cls-5" d="M457.93,469.18c.26,.26,.4,.26,.66,.26s.66-.26,.79-.26c.26-.4,.26-1.06-.26-1.46l-11.91-9.93c-.4-.26-1.06-.26-1.46,.26-.26,.4-.26,1.06,.26,1.46l11.91,9.66Z"/>
        <path class="cls-5" d="M438.34,392.15c.66-.26,1.19-.66,1.85-.79l-10.59-18.27c-.26-.4-.79-.66-1.46-.26-.4,.26-.66,.79-.26,1.46l10.46,17.87Z"/>
        <path class="cls-5" d="M424.84,411.34c.26-.4,.66-.66,.79-.79,.26-.26,.4-.4,.79-.66l-21.44-25.15c-.26-.4-.79-.4-1.46-.26-.4,.26-.4,.79-.26,1.46l21.57,25.41Z"/>
        <path class="cls-5" d="M461.11,381.3c.26,.4,.4,.66,.79,.66h.26c.4-.26,.79-.79,.66-1.19l-9.4-26.21c-.26-.4-.79-.79-1.19-.66-.4,.26-.79,.79-.66,1.19l9.53,26.21Z"/>
        <path class="cls-5" d="M454.76,665.73l-1.19,3.18c-.26,.4,.26,1.06,.66,1.19h.26c.4,0,.79-.26,.79-.66l1.46-4.1c-.53,.13-1.06,.4-1.99,.4Z"/>
        <path class="cls-5" d="M485.99,374.68c.26,.4,.66,.79,1.06,.79h.26c.66-.26,.79-.66,.79-1.06l-2.25-12.71c-.26-.66-.66-.79-1.06-.79-.66,.26-.79,.66-.79,1.06l1.99,12.71Z"/>
        <path class="cls-5" d="M656.2,595.19l-23.96-13.9c-.4,.66-.79,1.06-1.46,1.46l24.09,13.9q.26,.26,.4,.26c.26,0,.66-.26,.79-.4,.79-.26,.53-1.06,.13-1.32Z"/>
        <path class="cls-5" d="M567.92,665.33c-.4-.26-.79-.26-1.46-.66-.4-.26-.79-.4-1.06-.66l2.12,5.43c.26,.4,.4,.66,.79,.66h.26c.4-.26,.79-.79,.66-1.19l-1.32-3.57Z"/>
        <path class="cls-5" d="M487.71,383.68l1.72,9.79c.66,.26,1.46,.4,2.12,.66l-1.85-10.59c-.26-.66-.66-.79-1.06-.79-.79-.4-1.19,.26-.93,.93Z"/>
        <path class="cls-5" d="M450.26,480.17q.26,.26,.4,.26c.26,0,.66-.26,.79-.4,.26-.4,.26-1.06-.26-1.46l-14.29-8.34c0,.79,.26,1.72,.26,2.51l13.1,7.41Z"/>
        <path class="cls-5" d="M467.07,460.84c.26,0,.4,0,.66-.26,.4-.26,.4-.79,.26-1.46l-9.93-11.91c-.26-.4-.79-.4-1.46-.26-.4,.26-.4,.79-.26,1.46l9.93,11.91q.4,.53,.79,.53Z"/>
        <path class="cls-5" d="M404.46,602.47c-.26-.4-.79-.4-1.46-.26l-7.54,6.49c1.46-.79,3.18-1.46,4.76-1.72l3.97-3.31c.66,.13,.66-.53,.26-1.19Z"/>
        <path class="cls-5" d="M410.55,598.49c.26,0,.4,0,.66-.26l20.78-17.47c.26-.26,.26-.79,.26-1.06-4.37,3.97-8.07,5.43-8.74,5.82h-.26l-13.37,11.38c-.4,.26-.4,.79-.26,1.46,.53,.13,.66,.13,.93,.13Z"/>
        <path class="cls-5" d="M465.61,439.54l5.03,8.74c-.4-2.12-1.06-4.63-1.85-7.01l-.66-1.19c-.26,0-.26-.26-.4-.26-.66,.26-1.32,0-2.12-.26Z"/>
      </g>
      <g id="Layer_4" data-name="Layer 4">
        <g>
          <path class="cls-2" d="M700.28,532.32c-1.06,9.4-2.51,18.27-4.76,26.87v.26c-.26,1.46-.79,2.65-1.06,4.1q0,.26-.26,.26c-.4,1.46-.79,2.65-1.19,3.97q0,.26-.26,.26c-.4,1.46-.79,2.65-1.46,4.1v.26c-2.91,8.47-6.49,16.68-10.46,24.49v.26c-.66,1.19-1.19,2.51-2.12,3.71,0,.26-.26,.26-.26,.26-.66,1.19-1.46,2.51-2.12,3.71,0,.26-.26,.26-.26,.26-.79,1.19-1.46,2.51-2.12,3.71v.26c-5.43,8.74-11.25,17.21-17.87,25.15,0,0,0,.26-.26,.26-.79,1.06-1.85,2.12-2.65,3.18l-.26,.26c-.79,1.06-2.12,2.12-2.91,3.18h0c-5.03,5.43-10.46,10.46-15.75,15.22h0c-3.71,3.31-7.68,6.49-11.91,9.4h0c-13.77,9.93-28.46,18.13-44.74,24.09,0,0-.26,0-.26,.26-2.12,.79-4.37,1.72-6.62,2.25-.26,0-.26,.26-.4,.26-2.12,.79-4.37,1.46-6.62,2.12-.26,0-.26,.26-.4,.26-2.25,.66-4.63,1.19-6.88,1.85h-.26c-2.51,.66-4.76,1.06-7.01,1.72h0c-2.25,.4-4.63,.79-6.88,1.19-.26,0-.4,.26-.79,.26-2.25,.26-4.37,.66-6.62,.79-.26,0-.79,.26-1.06,.26-2.12,.26-4.37,.4-6.62,.66-.26,0-.79,0-1.06,.26-2.25,.26-4.63,.26-6.88,.4h-.79c-2.51,.26-4.76,.26-7.01,.26-2.51,0-4.76,0-7.28-.26h-.79c-2.25-.26-4.63-.26-6.88-.4-.26,0-.66,0-1.06-.26-2.25-.26-4.37-.4-6.62-.66-.26,0-.79-.26-1.06-.26-2.25-.26-4.37-.66-6.62-.79-.26,0-.66-.26-.79-.26-2.25-.4-4.63-.79-6.88-1.19h-.26c-4.76-1.06-9.53-2.12-14.16-3.57h-.26c-2.25-.66-4.63-1.46-6.88-2.12-.26,0-.26-.26-.4-.26-2.25-.79-4.37-1.46-6.62-2.51-.26,0-.26-.26-.26-.26-2.25-.79-4.37-1.72-6.62-2.65h0c-13.5-5.82-26.21-13.1-38.25-21.84h0c-2.51-1.85-5.16-3.71-7.68-6.09h0c-6.09-4.76-11.65-9.93-16.81-15.62l-.26-.26c-1.06-1.06-2.12-2.12-3.18-3.18l-.26-.26c-5.16-5.56-9.93-11.38-14.29-17.74q-.26-.26-.26-.4c-.79-1.06-1.46-2.12-2.25-3.18-.26-.26-.26-.4-.4-.66-.79-1.06-1.46-2.12-2.12-3.18-.26-.26-.26-.4-.4-.66-.79-1.06-1.46-2.25-2.12-3.31,0-.26-.26-.26-.26-.26-1.46-2.51-3.18-5.16-4.63-7.94h0c-.79-1.19-1.46-2.51-2.12-3.71-.26-.26-.26-.66-.4-.79-.4-1.06-1.06-2.12-1.46-3.18-.26-.26-.26-.79-.66-1.06-.4-.79-.79-2.12-1.46-2.91-.26-.4-.26-.79-.66-1.19-.4-.79-.79-2.12-1.19-2.91-.26-.4-.26-.79-.4-1.19-.4-1.06-.79-2.12-1.46-3.18-.26-.26-.26-.66-.26-.79-1.06-2.65-2.12-5.43-3.18-8.34-.26-.4-.26-.79-.4-1.19-.26-.79-.66-2.12-.79-2.91-.26-.4-.26-1.06-.4-1.46-.26-.79-.66-1.85-.79-2.65-.26-.66-.26-1.06-.4-1.72-.26-.79-.4-1.72-.79-2.51-.26-.66-.26-1.19-.4-1.72-.26-.79-.4-1.85-.66-2.65-.26-.66-.26-1.06-.4-1.72-.26-1.06-.4-2.12-.66-3.18-.26-.4-.26-.79-.26-1.19-1.19-6.09-2.25-12.44-2.91-18.66-1.46-.79-2.25-1.46-2.51-1.46-.26-.26-.4-.26-.66-.4,.66,7.01,1.72,13.9,3.18,20.65h0c.26,.4,.26,1.06,.26,1.46,0,.26,.26,.4,.26,.66,.26,1.19,.66,2.51,.79,3.71,0,.26,.26,.4,.26,.66,.26,1.19,.66,2.51,.79,3.71,0,.26,.26,.4,.26,.66,.26,1.19,.66,2.51,1.06,3.71,0,.26,.26,.26,.26,.4,.26,1.46,.79,2.51,1.19,3.97q0,.26,.26,.26c2.51,8.47,6.09,16.68,9.53,24.49,0,.26,.26,.26,.26,.26,.66,1.19,1.06,2.51,1.72,3.57,.26,.26,.26,.4,.26,.66,.66,1.06,1.06,2.12,1.72,3.18,.26,.26,.26,.4,.4,.79,.66,1.06,1.06,2.12,1.72,3.18,.26,.26,.26,.4,.4,.79,.66,.79,1.06,2.12,1.72,2.91,.26,.26,.26,.66,.4,.79,.66,.79,1.19,2.12,1.85,2.91,.26,.26,.26,.4,.4,.79,.66,.79,1.19,2.12,1.85,2.91,.26,.26,.26,.4,.4,.79,.66,1.06,1.46,2.12,2.12,3.18,.26,.26,.26,.4,.4,.66,.79,1.06,1.46,2.12,2.25,3.18,0,.26,.26,.26,.26,.26,3.31,4.76,7.01,9.4,10.85,13.5l.26,.26c.79,.79,1.72,1.85,2.51,2.65l.66,.66c.79,.79,1.46,1.72,2.25,2.51,.26,.26,.4,.66,.79,.79,.79,.79,1.46,1.46,2.12,2.25,.26,.26,.66,.66,.79,.79,.79,.79,1.46,1.46,2.12,2.12,.26,.26,.66,.66,.79,.79,.79,.66,1.46,1.46,2.12,2.12,.26,.26,.66,.66,1.06,.79,.79,.66,1.46,1.19,2.12,2.12,.26,.26,.79,.66,1.06,.79,.79,.66,1.46,1.19,2.12,1.85,.26,.26,.79,.66,1.06,.79,.79,.66,1.46,1.19,2.25,1.85,.26,.26,.66,.66,.79,.79,.79,.66,1.72,1.46,2.51,2.12,.26,.26,.66,.4,.79,.66,.79,.79,2.12,1.46,2.91,2.25q.26,.26,.4,.26c2.25,1.72,4.76,3.31,7.01,4.76q.26,.26,.4,.26c1.06,.66,2.12,1.46,3.18,2.12,.26,.26,.79,.4,1.06,.66,.79,.66,1.72,1.06,2.51,1.46,.4,.26,.79,.4,1.19,.79,.79,.4,1.46,.79,2.51,1.46,.4,.26,.79,.4,1.46,.79,.79,.4,1.46,.79,2.25,1.19,.4,.26,.79,.4,1.46,.79,.79,.4,1.46,.79,2.25,1.19,.4,.26,1.06,.4,1.46,.79,.79,.4,1.46,.79,2.25,1.06,.4,.26,1.06,.4,1.46,.79,.79,.26,1.46,.79,2.25,1.06,.66,.26,1.06,.4,1.72,.79,.79,.26,1.46,.79,2.25,1.06,.4,.26,1.06,.4,1.46,.79,.79,.26,1.72,.66,2.51,1.06,.4,.26,1.06,.4,1.46,.66,.79,.26,1.72,.66,2.51,.79,.4,.26,.79,.26,1.46,.66,.79,.26,2.12,.79,2.91,1.06,.4,.26,.79,.26,1.19,.4,2.65,.79,5.43,1.85,8.07,2.51,.4,.26,.79,.26,1.19,.26,.79,.26,2.12,.66,2.91,.79,.4,.26,1.06,.26,1.46,.4,.79,.26,1.72,.4,2.51,.66,.66,.26,1.19,.26,1.72,.4,.79,.26,1.72,.4,2.51,.66,.66,.26,1.19,.26,1.85,.4,.79,.26,1.72,.26,2.51,.4,.66,.26,1.19,.26,1.85,.26,.79,.26,1.72,.26,2.51,.4,.66,.26,1.19,.26,2.12,.26,.79,.26,1.72,.26,2.51,.4,.66,.26,1.19,.26,2.12,.26,.79,0,1.72,.26,2.51,.26,.66,.26,1.46,.26,2.12,.26,.79,.26,1.72,.26,2.51,.26,.66,0,1.19,.26,2.12,.26,.79,.26,1.72,.26,2.51,.26,.66,0,1.19,.26,1.85,.26,.79,0,1.85,.26,2.65,.26,.66,0,1.19,0,1.85,.26,1.06,0,2.12,.26,3.18,.26h12.18c1.06,0,2.12,0,3.18-.26,.66,0,1.19,0,1.85-.26,.79,0,1.85-.26,2.65-.26,.66,0,1.19-.26,1.85-.26,.79,0,1.72-.26,2.51-.26,.66,0,1.19-.26,2.12-.26,.79-.26,1.72-.26,2.51-.26,.66,0,1.46-.26,2.12-.26,.79-.26,1.72-.26,2.51-.26,.66-.26,1.46-.26,2.12-.26,.79-.26,1.72-.26,2.51-.26,.66-.26,1.46-.26,2.12-.26,.79-.26,1.46-.26,2.51-.4,.66-.26,1.19-.26,2.12-.26,.79-.26,1.46-.26,2.51-.4,.66-.26,1.19-.26,2.12-.4,.79-.26,1.46-.26,2.51-.66,.66-.26,1.19-.26,1.85-.4,.79-.26,1.72-.4,2.51-.66,.66-.26,1.19-.26,1.85-.4,.79-.26,1.72-.4,2.51-.79,.66-.26,1.06-.26,1.72-.4,.79-.26,1.85-.66,2.65-.79,.4-.26,.79-.26,1.46-.4,1.46-.4,2.51-.79,3.97-1.46h.26c1.46-.4,2.51-.79,3.97-1.46,.4-.26,.79-.26,1.46-.4,.79-.26,1.85-.66,2.51-1.06,.66-.26,1.06-.4,1.46-.66,.79-.26,1.46-.66,2.51-.79,.66-.26,1.06-.4,1.72-.79,.79-.26,1.46-.66,2.25-.79,.66-.26,1.19-.4,1.72-.79,.79-.26,1.46-.66,2.12-1.06,.66-.26,1.19-.66,1.72-.79,.79-.26,1.46-.79,2.12-1.06,.66-.26,1.19-.66,1.72-.79,.79-.26,1.46-.79,2.12-1.06,.66-.26,1.19-.66,1.72-.79,.66-.26,1.46-.79,2.12-1.06,.66-.26,1.06-.66,1.72-.79,.66-.4,1.46-.79,2.12-1.19,.66-.26,1.06-.66,1.72-.79,.66-.4,1.46-.79,2.12-1.19,.66-.26,1.06-.66,1.72-1.06s1.46-.79,2.12-1.46c.4-.26,1.06-.66,1.46-1.06,.79-.4,1.46-.79,2.12-1.46,.4-.26,.79-.66,1.46-.79,.79-.4,1.46-1.06,2.25-1.46,.4-.26,.79-.66,1.19-.79,1.06-.79,2.12-1.46,3.18-2.51l.26-.26c1.06-.79,2.12-1.72,3.18-2.51,.4-.26,.79-.66,1.19-.79,.79-.66,1.46-1.06,2.12-1.72,.4-.26,.79-.79,1.46-1.06,.66-.66,1.19-1.06,1.85-1.72,.4-.4,.79-.79,1.46-1.19s1.19-1.06,1.85-1.46c.4-.4,.79-.79,1.46-1.19s1.06-1.06,1.72-1.46c.4-.4,.79-.79,1.46-1.46s1.06-1.06,1.72-1.72c.4-.4,.79-.79,1.46-1.46s1.06-1.06,1.72-1.72c.4-.4,.79-.79,1.46-1.46,.4-.66,1.06-1.06,1.46-1.72,.4-.4,.79-.79,1.46-1.46,.4-.66,1.06-1.19,1.46-1.72,.4-.4,.79-.79,1.19-1.46,.4-.66,1.06-1.19,1.46-1.85,.4-.4,.79-.79,1.19-1.46s1.06-1.19,1.46-1.85c.26-.4,.79-.79,1.06-1.46,.4-.66,1.06-1.46,1.46-2.12,.26-.4,.79-.79,1.06-1.46,.66-.79,1.06-1.46,1.72-2.25,.26-.4,.66-.79,.79-1.19,.79-1.06,1.46-2.25,2.51-3.31,0,0,0-.26,.26-.26,.79-1.06,1.46-2.25,2.25-3.57,.26-.4,.4-.79,.79-1.19,.4-.79,1.06-1.46,1.46-2.25,.26-.4,.66-.79,.79-1.46,.4-.79,.79-1.46,1.46-2.12,.26-.4,.66-1.06,.79-1.46,.4-.79,.79-1.46,1.19-2.12,.26-.4,.66-1.06,.79-1.72,.4-.79,.79-1.46,1.19-2.12,.26-.66,.66-1.06,.79-1.72,.26-.79,.79-1.46,1.06-2.12,.26-.66,.66-1.06,.79-1.72,.26-.79,.79-1.46,1.06-2.12,.26-.66,.66-1.06,.79-1.72,.26-.79,.66-1.46,1.06-2.12,.26-.66,.4-1.19,.79-1.72,.26-.79,.66-1.46,.79-2.12,.26-.66,.4-1.19,.79-1.72,.26-.79,.66-1.46,.79-2.25,.26-.66,.4-1.06,.66-1.72,.26-.79,.66-1.46,.79-2.51,.26-.66,.4-1.06,.66-1.72,.26-.79,.66-1.72,.79-2.51,.26-.4,.26-1.06,.66-1.46,.26-.79,.66-2.12,.79-2.91,.26-.4,.26-.79,.4-1.19,.79-2.65,1.72-5.43,2.51-8.34,.26-.4,.26-.79,.26-1.19,.26-1.06,.66-2.12,.79-3.18,.26-.4,.26-1.06,.26-1.46,.26-.79,.4-1.85,.66-2.65,.26-.66,.26-1.06,.26-1.72,.26-.66,.26-1.46,.4-2.12h0c1.19-6.22,2.25-12.71,2.91-19.19-3.31,.79-4.37,1.46-5.56,1.98Z"/>
          <path class="cls-2" d="M511.8,322.27c50.82,0,96.88,20.12,131.03,52.81h0c.26-1.06,.66-2.12,1.19-3.18-34.54-32.69-81.13-52.81-132.36-52.81s-96.88,19.72-131.3,51.75c.66,.79,1.06,1.85,1.46,2.65,33.88-31.5,79.68-51.22,129.97-51.22Z"/>
        </g>
      </g>
      <path class="cls-1" d="M356.68,397.84c-1.85,2.25-3.71,4.76-6.88,5.56-.26,.26-.66,.26-.79,.26,.79,2.65,.26,5.16-.66,6.88q-.26,.26-.26,.66l-.26,.26c7.68,6.09,16.28,12.04,25.94,19.59,0,0-13.77-5.43-29.12-14.29-1.06,1.19-3.31,3.57-7.01,3.57-.79,0-1.85-.26-2.65-.4,1.72,3.31,2.51,7.01,2.12,10.59,9.93,6.49,22.63,12.71,38.91,18.93,0,0-17.21-.79-40.77-12.04v.26c-1.46,2.91-3.31,5.43-5.82,7.01,.4,1.46,.4,2.65,.26,4.1-.26,.66-.26,1.06-.26,1.72,9,5.43,21.18,10.46,37.46,14.56,0,0-22.1,.4-41.56-3.71,.4,1.46,.4,3.18,0,4.63-.4,1.85-.79,3.71-1.46,5.43-.26,.4-.26,1.06-.79,1.85,9.93,5.56,26.47,9.93,53.74,8.07,0,0-13.77,7.68-56.38,11.38-.26,.79-.26,1.46-.26,2.51l-.4,2.65c7.28,4.37,24.09,9.13,61.02,2.51,0,0-18.27,15.62-54.53,22.9,0,0,15.22,10.99,57.05-2.25,0,0-18.66,18.66-37.19,28.06,0,0,21.04,3.31,51.22-16.41,0,0-13.5,19.19-29.91,33.75,0,0,19.99-.26,39.71-20.12,0,0-4.76,11.65-6.49,30.84,0,0,4.1,1.06,19.72-19.99,0,0-1.06,17.47,.4,21.04,0,0,12.04-4.76,17.87-24.49,0,0,2.65,10.19,8.74,15.62,0,0,5.16-6.49,5.16-18.27,0,0,4.1,9.93,10.19,12.44,0,0,2.91-7.54,1.19-15.75,0,0,8.07,7.28,12.44,7.68,0,0-3.18-15.75,1.19-34.28,0,0-.26,22.24,2.12,27.4,0,0,.66-3.57,3.71-6.49,0,0,1.85,24.49,6.62,29.91,0,0-7.01-5.56-8.74-13.9,0,0-12.71,27.4-40.1,26.6,0,0,1.06,4.63,10.19,6.09,0,0-3.97,5.56-17.07,7.68,0,0,3.31,6.09,23.69,2.51,0,0,0,14.56,3.18,18.93,0,0,4.1-12.04,12.04-19.19,0,0,.26,10.59,6.49,12.84,0,0-1.85-18.13,18.27-26.87,0,0,2.51,10.99-7.68,26.87,0,0,5.03-.66,10.19-6.62,0,0-3.18,25.81-17.21,13.1,0,0-.79,13.9,18.27,8.74,0,0-10.46,17.21-23.03,5.16,0,0-2.12,10.46,11.25,12.31,10.46,1.46,16.02-9.13,16.02-9.13,0,0-.66,6.09-12.44,15.35-4.63,3.57-4.76,15.22-4.76,15.22l-.26,.4s12.31-6.49,16.41-14.96c0,0,2.12,3.18,3.71,8.74,1.46,5.43,4.37,10.85,4.37,10.85,0,0,3.18-5.43,4.37-10.85,1.46-5.43,3.71-8.74,3.71-8.74,4.1,8.47,16.41,14.96,16.41,14.96l-.26-.4s-.26-11.65-4.76-15.22c-11.91-9.4-12.44-15.35-12.44-15.35,0,0,5.43,10.59,16.02,9.13,13.37-2.12,11.25-12.31,11.25-12.31-12.71,12.04-23.03-5.16-23.03-5.16,19.19,5.16,18.27-8.74,18.27-8.74-13.9,12.71-17.21-13.1-17.21-13.1,5.16,6.22,10.19,6.62,10.19,6.62-10.19-16.02-7.68-26.87-7.68-26.87,20.12,8.74,18.27,26.87,18.27,26.87,6.22-2.25,6.49-12.84,6.49-12.84,7.68,7.01,12.04,19.19,12.04,19.19,3.18-4.37,3.18-18.93,3.18-18.93,20.38,3.57,23.69-2.51,23.69-2.51-13.1-2.12-17.07-7.68-17.07-7.68,9.13-1.19,10.19-6.09,10.19-6.09-27.4,.79-40.1-26.6-40.1-26.6-2.12,8.07-8.74,13.9-8.74,13.9,5.03-5.43,6.62-29.91,6.62-29.91,3.18,3.18,3.71,6.49,3.71,6.49,2.25-5.03,2.12-27.4,2.12-27.4,4.1,18.66,1.19,34.28,1.19,34.28,4.1-.66,12.44-7.68,12.44-7.68-1.72,8.34,1.19,15.75,1.19,15.75,6.09-2.51,10.19-12.44,10.19-12.44,0,11.91,5.16,18.27,5.16,18.27,6.09-5.43,8.74-15.62,8.74-15.62,5.82,19.72,17.87,24.49,17.87,24.49,1.46-3.57,.4-21.04,.4-21.04,15.62,21.04,19.72,19.99,19.72,19.99-1.72-19.19-6.49-30.84-6.49-30.84,19.72,19.72,39.71,20.12,39.71,20.12-16.41-14.29-29.91-33.75-29.91-33.75,30.18,19.72,51.22,16.41,51.22,16.41-18.66-9.4-37.19-28.06-37.19-28.06,41.56,13.37,57.05,2.25,57.05,2.25-36-7.28-54.53-22.9-54.53-22.9,36.13,6.62,53.07,2.12,60.49-2.12-.79-1.46-1.19-3.18-1.46-5.16v-.53c-41.56-3.71-55.19-11.25-55.19-11.25,26.87,1.72,43.28-2.51,53.21-8.07-.79-1.06-1.46-2.12-2.12-3.18-1.46-2.51-2.12-5.43-2.12-8.07-19.32,3.71-39.71,3.31-39.71,3.31,16.02-4.1,28.06-9.13,37.06-14.29-.66-1.46-1.19-3.18-2.12-5.03-.26-.26-.26-.4-.26-.79-.4-1.72-.26-3.18,0-4.63-1.46-.79-2.51-1.85-3.18-3.18-23.56,11.25-41.03,12.04-41.03,12.04,16.02-6.09,28.46-12.04,38.25-18.27q0-.26-.26-.26,0-.26-.26-.26c-.26-.66-.4-1.46-.4-2.51-.79-.79-1.46-1.46-2.12-2.51l-.26-.26q-.26-.26-.26-.4l-4.1-7.54c-15.22,8.74-28.46,13.9-28.46,13.9,9.53-7.01,18.13-13.37,25.54-19.19l-.26-.66-.26-.26c-.66-1.06-1.46-2.51-1.72-4.63-.26-.26-.79-.66-.79-.79l-.26-.26c-1.46-1.46-3.18-3.18-4.63-5.82,0,0,0-.26-.26-.26-.26-.66-.79-1.72-1.06-2.65-1.46-.79-3.18-2.12-4.63-4.1-17.07,20.65-39.97,34.54-39.97,34.54,.26,6.09-.79,10.85-3.71,15.75,3.57-2.12,6.62-3.57,9.4-3.57-1.46,7.68-5.03,14.56-10.46,21.04,5.03,.4,9,1.85,11.38,3.97-2.65,4.63-7.94,8.74-14.56,12.71,4.76,2.91,7.94,6.09,9.4,9.79-5.03,4.37-10.46,6.62-16.02,6.88,2.12,4.1,2.91,8.07,2.12,12.31-3.97,.66-8.07,.79-12.04,0-.26,5.03-1.19,9.53-3.18,14.16-4.1-1.06-7.54-3.18-10.46-6.09-1.46,3.57-3.57,6.49-6.49,9-5.03-4.37-4.1-6.62-4.1-6.62,1.46,1.46,2.91,2.12,4.37,2.25,3.18-2.51,4.76-6.09,5.43-9.53,3.71,3.31,7.28,5.43,9.93,5.43,1.46-2.65,2.25-6.88,2.51-12.04,3.57,1.19,7.28,1.19,11.65,.4-.26-3.71-1.06-7.54-3.18-10.99,6.49,.26,11.38-1.46,15.22-5.43-1.85-3.71-5.82-6.49-11.25-9,6.88-2.25,11.91-6.88,14.56-12.71-5.16-.26-9.4-.66-12.44-1.85,12.31-8.07,11.65-17.47,11.65-17.47-4.76,2.12-8.47,3.18-11.25,3.18,5.43-5.43,9.79-11.25,8.34-18.13-3.71,2.25-6.62,3.57-8.34,3.18,0,0,9.13-6.49,21.04-15.35,11.65-8.74,24.49-20.38,19.72-40.37-4.76,27.66-52.81,49.9-52.81,49.9-7.94,3.31-9.93,8.07-7.68,13.9,11.65,30.18,7.01,47.65-10.99,54.53-11.25,3.71-21.44,.66-30.31-11.25-3.97-.26-7.28-2.12-10.46-5.43-2.25,3.97-4.63,6.09-6.88,7.28,2.91-3.18,5.03-7.01,6.09-12.04,3.18,5.82,7.94,8.74,15.22,7.94-9.93-8.74-12.31-23.03-6.09-43.28-5.16,1.06-9.93,3.57-13.77,8.07-.26-5.03,.26-9.4,2.12-12.31-1.46,.79-3.18,1.06-4.76,.4,3.31-3.97,7.01-6.49,11.65-7.01-3.18,3.71-4.1,7.68-4.1,11.91,0,0,9.93-5.82,16.68-7.68,6.62-1.85,16.28-2.12,21.18,1.46-.26-5.56-5.03-9-14.29-10.19,0,0,5.03-6.88,12.04-8.74,7.01-2.12,10.99,3.71,10.99,3.71,0,0,2.25-2.51,1.72-8.74-.66-6.22-4.63-9.4-9.13-10.19-4.63-.79-10.85,2.12-10.85,2.12,0,0-1.46-6.09-6.09-6.09s-9.13,1.46-19.72,6.09c-10.59,4.63-19.72,3.18-19.72,3.18,0,0,2.25,3.57,12.84,4.1-4.37,1.46-9,2.12-13.37,1.72,2.25,3.31,6.49,4.37,12.04,4.37-3.71,4.1-9.4,8.07-16.28,11.65,2.91-.26,5.43,0,6.62,1.06-5.56,5.03-8.74,12.44-11.38,20.38-2.51-7.94-5.82-15.35-11.38-20.38,1.46-1.06,3.71-1.46,6.62-1.06-6.88-3.57-12.31-7.28-16.28-11.65,5.56,0,9.93-1.19,12.04-4.37-4.63,.26-9-.26-13.37-1.72,10.46-.79,12.84-4.1,12.84-4.1,0,0-9.13,1.46-19.72-3.18-10.59-4.63-15.22-6.09-19.72-6.09s-6.09,6.09-6.09,6.09c0,0-6.22-2.91-10.85-2.12-4.63,.79-8.47,3.97-9.13,10.19-.66,6.22,1.72,8.74,1.72,8.74,0,0,3.97-5.82,10.99-3.71,7.01,2.12,12.04,8.74,12.04,8.74-9.13,1.19-13.9,4.63-14.29,10.19,5.16-3.57,14.56-3.31,21.18-1.46,6.62,1.85,16.68,7.68,16.68,7.68,0-4.1-1.19-8.07-4.1-11.91,4.37,.79,8.07,3.18,11.65,7.01-1.72,.4-3.31,.26-4.76-.4,1.72,3.18,2.12,7.28,2.12,12.31-3.71-4.63-8.47-7.01-13.77-8.07,6.22,20.12,3.97,34.54-6.09,43.28,7.28,1.06,12.04-2.12,15.22-7.94,.79,5.16,3.18,9,6.09,12.04-2.25-1.19-4.63-3.31-6.88-7.28-3.18,3.31-6.49,5.43-10.46,5.43-8.74,11.91-18.93,14.96-30.31,11.25-18.13-7.01-22.63-24.49-10.99-54.53,2.25-5.82,.26-10.59-7.68-13.9,0,0-47.25-21.84-52.68-49.24l.26-.26-.26,.26c-4.1,19.32,8.34,30.57,19.99,39.57,11.65,9,21.04,15.35,21.04,15.35-1.72,.26-4.63-.79-8.34-3.18-1.46,6.88,3.18,12.71,8.34,18.13-2.65,.26-6.49-1.06-11.25-3.18,0,0-.79,9.4,11.65,17.47-3.18,1.46-7.28,1.46-12.44,1.85,2.65,6.09,7.68,10.46,14.56,12.71-5.43,2.51-9.4,5.43-11.25,9,3.71,3.97,9,5.82,15.22,5.43-2.12,3.57-3.18,7.01-3.18,10.99,4.1,.79,8.07,.79,11.65-.4,0,5.16,.79,9.4,2.51,12.04,2.51,.26,6.09-1.85,9.93-5.43,.4,3.71,2.12,7.01,5.43,9.53,1.46,0,2.91-.79,4.37-2.25,0,0,.79,2.25-4.1,6.62-3.18-2.51-5.16-5.43-6.49-9-2.91,2.65-6.49,4.76-10.46,6.09-2.12-4.37-3.18-9.13-3.18-14.16-3.97,.79-8.07,.79-12.04,0-.79-4.1,.26-8.07,2.12-12.31-5.56-.26-10.99-2.51-16.02-6.88,1.46-3.57,4.63-6.62,9.4-9.79-6.62-3.97-11.91-8.07-14.56-12.71,2.51-2.25,6.49-3.57,11.38-3.97-5.43-6.49-9-13.37-10.46-21.04,2.51,0,5.56,1.19,9.4,3.57-2.91-5.03-3.97-9.93-3.71-15.75,0,0-24.35-14.56-41.56-36.13-.26,0-.26,.26-.4,.26-.4,2.65-2.12,4.9-3.31,6.62Zm205.02,4.5c0,1.85-.26,3.18-.79,3.97-2.91,.26-5.43-.26-7.94-.79,3.31-.4,6.49-1.06,8.74-3.18Zm-97.28,4.24c-.66-.79-.79-2.12-.79-3.97,2.51,1.85,5.43,2.65,8.74,3.18-2.38,.26-5.03,.93-7.94,.79Zm35.07,162c-2.65-2.65-3.97-5.43-4.37-8.74,1.46,2.51,3.18,4.76,5.43,6.09,1.46-.66,3.18-2.51,4.63-4.37-1.06,3.04-2.78,5.16-5.69,7.01Zm13.1-5.03c-3.18-2.51-4.63-5.43-5.03-10.19,1.19,2.91,2.65,5.43,5.03,6.49,2.25-1.06,3.71-3.57,5.03-6.49-.4,5.03-2.12,7.94-5.03,10.19Zm0-17.47c-2.65-3.31-4.76-7.01-5.03-12.04,1.46,3.71,2.91,6.22,5.03,7.01,2.12-.79,3.71-3.31,5.03-7.01-.4,5.03-2.25,8.74-5.03,12.04Zm12.97,22.5c-2.91-2.12-4.63-4.1-5.56-7.28,1.46,2.12,3.18,3.71,4.63,4.37,2.51-1.19,4.1-3.31,5.43-6.09-.4,3.84-1.85,6.22-4.5,9Zm5.96-25.02c-3.18-3.31-4.76-7.01-5.56-10.85,1.72,2.65,3.31,5.03,5.16,6.49,2.12-1.72,3.31-5.03,4.63-8.74,0,5.29-1.32,9.66-4.24,13.1Zm-35.74-25.54c2.91-2.91,5.43-6.62,7.28-10.99,2.12,6.88,5.43,11.65,9.53,13.9,4.1-2.12,7.54-7.01,9.53-13.9,2.12,4.1,4.1,8.07,7.28,10.99,1.72-.79,3.18-3.18,4.76-5.82-.66,3.97-2.12,7.01-4.76,9.13-3.18-2.65-5.16-5.43-6.49-8.34-2.51,4.76-6.09,9.13-10.46,11.65-4.37-2.51-7.68-6.88-10.46-11.65-1.46,2.91-3.57,5.56-6.49,8.34-2.51-2.12-4.1-5.16-4.76-9.13,1.85,2.65,3.18,5.03,5.03,5.82Zm-1.72,21.18c1.72-1.46,3.57-3.71,5.16-6.49-.79,3.71-2.51,7.54-5.56,10.85-2.65-3.57-4.1-7.68-4.1-13.1,1.06,3.57,2.51,6.88,4.5,8.74Z"/>
      <g>
        <path class="cls-4" d="M318.17,457.93c-.26,1.85-.4,3.71-.93,5.56-.4,1.46-1.99,.93-3.71,.53l-8.87-1.59c-1.59-.26-3.04-.4-4.1,0-.26,0-.13,.13-.26,.26q0,.26,.13,.4c.26,.26,.79,.66,1.85,1.19l6.88,2.78c2.25,1.06,3.84,1.59,5.16,2.12,.53,.4,1.32,.79,1.59,1.19,.4,.79,0,2.78-.53,4.5-.26,1.32-.66,1.72-1.99,1.72-1.85,0-6.49,.13-7.41,.4-3.31,.13-5.96,.13-7.68,.4-.4,.13-.93,.26-1.85,.53-.66,.26-.53,1.06-.26,1.06,.26,.26,1.32,.53,2.51,.66l11.38,2.51c1.85,.26,3.71,.4,3.71,2.38-.4,1.72-.4,3.31-1.06,5.03-.53,1.59-1.99,1.19-4.37,.79l-40.77-7.54c-1.99-.4-3.84-.53-3.57-2.12l1.59-8.6c.13-.66,.79-1.32,1.72-1.19l5.16-.13,18.79-.26c.26,0,1.06-.13,1.72-.13,.93-.26,1.06-.93,.4-1.72-.13-.13-.26,0-.4-.13l-8.47-3.44c-3.44-1.46-6.49-2.65-8.47-3.44-.53-.4-1.59-.53-2.91-1.06-2.91-1.06-4.5-1.32-4.1-3.44,.53-3.18,1.06-5.82,1.46-7.81,.4-1.72,2.12-1.32,4.24-.93l39.84,7.81c1.72-.13,3.71-.13,3.57,1.72Z"/>
        <path class="cls-4" d="M325.97,431.99c1.46,.66,.79,2.12,.53,3.71l-5.29,14.29c-.4,.79-.93,2.12-1.46,2.38-.79,.4-1.59,0-3.97-.66l-38.38-14.03c-3.31-1.32-3.44-1.46-2.25-4.37l5.29-14.29c.53-1.59,1.19-2.38,1.46-2.65,.79-.4,4.1,.93,5.56,1.59,1.46,.66,.79,2.12,.13,3.97l-2.38,6.49c-.79,2.25-.4,3.04,1.85,3.97,2.25,.79,4.24,1.72,6.62,2.25,.79,.4,1.59,.26,2.12,.13,.93-.53,1.59-1.99,2.25-4.1,.4-1.19,.66-1.72,1.06-2.25,.53-1.59,1.32-1.72,2.78-1.32,1.46,.4,2.78,.93,4.1,1.59,.79,.4,1.06,.93,.93,1.99-.26,1.06-.79,2.65-1.46,4.37-.93,2.38-.79,3.44,1.99,4.63,1.46,.66,3.18,1.46,5.29,1.99,2.25,.79,3.04,.4,3.84-1.99l2.38-6.49c.93-2.12,1.32-3.31,2.65-2.91,1.19,.66,3.04,1.06,4.37,1.72Z"/>
        <path class="cls-4" d="M339.21,406.58c.53,.4,.93,.79,.79,1.59-.66,1.72-1.59,3.57-2.91,5.82-.93,1.06-2.38,.66-4.24,.13-1.06-.26-2.91-.79-5.69-1.46l-5.56-1.59c-1.32-.26-3.18-.79-3.84,.93-.79,1.99,.93,2.78,3.04,3.71l9,4.63c1.99,1.06,3.44,1.46,2.51,3.31-.66,1.46-1.59,3.04-2.38,4.5-1.06,1.72-2.25,.53-4.24-.4l-36.66-19.32c-1.59-.79-2.25-1.32-2.51-1.99-.4-.79,.79-2.65,2.65-6.22l1.72-3.44c.53-1.59,1.99-3.44,3.57-5.03,2.51-2.78,6.75-3.97,10.32-2.38,1.72,.66,5.43,2.78,11.12,5.82,1.46,.66,2.65,2.12,3.44,4.24,.66,1.32,1.72,2.38,3.44,2.78,2.38,.4,7.01,1.72,14.56,3.31,.53,.53,1.19,.66,1.85,1.06Zm-35.6-8.21c-2.12-.93-3.18-.53-4.9,1.32-.26,.26-.53,.66-.66,.79-2.38,3.18-.26,3.57,5.03,6.09,2.91,1.32,4.5,2.38,4.76,2.25,1.19,.66,1.99,.4,2.78-.53,1.72-2.12,1.59-4.9-.53-6.62-.26-.26-.53-.4-.66-.53l-5.82-2.78Z"/>
        <path class="cls-4" d="M348.21,381.03c6.88,7.28,2.51,20.12-9.66,20.25-1.72,.13-3.31-.66-5.29-1.99l-22.5-16.02c-3.71-2.38-5.69-7.41-4.37-12.31,.26-1.06,.53-1.59,1.06-1.99,1.19-1.85,2.12-2.91,2.51-3.57,.53-.4,.79-.93,1.32-1.32,1.59-1.06,3.97-1.85,7.54-2.12,3.18-.26,7.41,3.18,9.26,4.37,1.19,1.06,1.19,1.72,.4,2.91-.93,1.06-1.46,2.38-2.51,3.57-1.32,1.72-1.19,1.06-4.76-1.32-2.25-1.32-4.76-1.06-5.82,.66-.53,.66-.66,1.72-.53,2.65,.66,1.99,1.85,2.78,3.44,3.97,6.62,4.76,11.91,8.6,16.54,11.78,.66,.53,1.59,1.19,2.25,1.32,1.59,.79,3.71,1.19,5.16-.4,1.46-1.46,.93-4.37-1.32-5.96l-3.04-2.25c-1.06-.93-1.32-1.59-.53-2.78,.93-1.06,1.59-2.51,2.78-3.84,.53-.66,1.46-.93,2.38-.4,2.51,2.25,4.63,3.71,5.69,4.76Z"/>
        <path class="cls-4" d="M340.27,331.14c.66,.13,1.06,.93,1.59,1.85,3.84,7.68,7.54,14.96,12.31,23.43,.4,.79,.79,1.19,1.46,1.72,5.29,4.76,8.74,8.07,10.46,9.93q2.65,2.65,0,5.43l-1.72,1.85c-1.06,.93-1.59,1.06-2.65,.13-.26-.26-1.32-1.32-2.91-2.65l-7.54-7.15c-.93-1.06-2.25-2.25-3.71-2.65-2.12-1.19-4.1-1.85-8.74-3.97l-14.96-6.75c-.66-.53-1.46-.66-2.12-1.19-.4-.13-.66-1.06-.26-1.59,1.46-1.85,3.04-3.71,4.63-5.16,.66-.26,1.06-.4,2.12,.13,1.19,.4,2.51,1.06,4.63,2.12,.66,.53,3.44,1.72,4.63,2.12,.66,.53,1.99,1.06,2.51,.26,.26-.26,.4-.53,.13-1.19-.53-.93-1.19-1.99-1.85-3.31-1.99-3.57-3.18-5.82-3.84-6.88-.4-.79-.13-1.46,.13-2.12,1.72-1.85,3.18-3.31,4.24-4.24,.53,.13,.93-.13,1.46-.13Z"/>
        <path class="cls-4" d="M405.39,328.36c1.59,2.12,2.25,4.9,1.85,7.81-.93,6.22-3.57,7.54-14.69,14.69-.79,.4-1.32,.66-1.59,.26-.53-.4-1.19-1.06-2.65-3.04l-22.77-34.41c-.93-1.46-1.46-2.25-1.32-2.78,.26-1.06,1.59-1.72,5.96-4.63,1.59-1.06,2.78-1.85,3.71-2.38,2.65-1.99,5.29-2.78,8.21-2.25,6.09,.66,12.31,7.81,11.78,14.82-.13,1.72,.26,2.25,1.85,2.51,3.18,.79,5.69,2.78,7.68,5.69,.4,.93,1.19,2.12,1.99,3.71Zm-20.65-8.87c.53-.66,.79-1.59,.79-2.25-.13-1.46-.53-2.78-1.59-4.1l-1.72-1.59c-1.32-1.32-3.18-1.46-4.5-.53-1.59,1.06-1.72,1.85-1.32,3.31,1.85,3.44,5.16,9.4,8.34,5.16Zm8.87,8.07c-1.85-1.46-5.03-1.06-6.22,.4-1.06,1.99-.26,2.51,2.38,6.49,2.78,4.5,3.04,5.43,5.16,4.1,1.85-1.06,2.65-2.65,2.65-4.24-.13-2.65-1.59-5.03-3.97-6.75Z"/>
        <path class="cls-4" d="M436.76,323.86c.53,.66,.13,1.46-.4,1.72-1.72,1.19-3.31,1.85-5.69,2.65-1.46,.53-2.38-.93-3.57-2.51-.66-.79-1.85-2.51-3.71-4.5l-3.71-4.5c-.79-1.19-1.85-2.51-3.71-1.46-1.72,1.19-.79,2.65,.13,4.9l4.37,8.87c.93,1.99,1.85,3.31,.13,3.97-1.46,.93-2.91,1.46-4.37,2.25-1.72,.93-2.25-.79-3.18-2.78l-17.74-37.32c-.79-1.59-1.06-2.38-.79-3.18,.4-.79,2.12-1.59,5.69-3.31l3.31-1.59c1.59-1.06,3.71-1.46,5.82-1.85,3.71-.79,7.81,.93,9.53,4.63,1.06,1.59,2.65,5.69,5.43,11.25,.79,1.59,.79,3.18,.26,5.29-.4,1.46,.13,2.91,1.32,4.37,1.46,1.72,4.76,5.56,9.66,11.38,.26,.66,.79,1.32,1.19,1.72Zm-23.69-27.53c-1.19-1.99-2.51-2.51-4.63-1.85-.4,.13-.79,.4-.93,.26-3.84,1.32-2.12,2.65,.53,7.81,1.32,2.78,2.25,4.37,2.38,4.63,.53,1.19,1.32,1.59,2.51,1.32,2.65-.66,4.37-2.91,3.57-5.69-.13-.4-.4-.79-.4-.79l-3.04-5.69Z"/>
        <path class="cls-4" d="M459.26,310.09c.26,.66-.13,1.19-.13,2.12-2.65,10.32-13.77,13.1-20.65,6.62-1.19-1.06-2.12-2.78-2.91-4.9l-7.94-25.02c-1.46-3.97-.66-7.94,2.25-11.91,.53-.66,1.46-1.46,1.99-1.72,5.03-2.51,8.6-2.78,12.18-1.19,3.71,1.72,5.69,5.29,6.88,8.87l7.01,21.97c.26,.4,.66,2.25,1.32,5.16Zm-9.53-2.38l-7.28-22.63c-.4-.79-.53-1.46-1.19-2.25-2.12-3.04-6.88-.93-6.22,2.65,.13,.4,.26,.93,.53,2.25l7.01,21.71c.4,1.32,.93,2.25,1.32,2.78,1.85,2.51,5.96,1.19,6.22-1.72,.13-1.06,.13-1.85-.4-2.78Z"/>
        <path class="cls-4" d="M480.7,270.38c.26,.66,.13,1.06-.13,1.19-.53,.66-1.46,.93-2.38,1.06-1.46,.13-2.78,.53-3.84,1.32-.79,.93-.4,1.99,.13,4.9l5.29,30.84c.4,2.65,.93,4.24-.79,4.5-1.59,.26-3.57,.66-5.29,.93-1.72,.13-1.85-1.46-2.25-3.57l-5.69-31.9c-.4-2.38-.53-3.18-1.32-3.84-.66-.53-2.25-.26-3.57-.26-.93,.26-1.19,.26-1.59,.26-1.46,.13-2.12-.13-2.25-1.32-.4-1.32-.66-3.04-.66-4.63-.13-.4-.13-1.06,.13-1.19,.53-.66,1.32-.66,3.04-.66l16.54-2.78c3.18-.53,3.44-.53,3.97,2.65,.26,.79,.53,1.99,.66,2.51Z"/>
        <path class="cls-4" d="M511.67,311.15c-1.19-.13-2.12,.13-2.78,0-1.85,0-1.72-1.59-1.72-3.57l-.53-12.31c.13-1.19-.26-2.25-.53-2.78-.66-1.99-3.84-1.59-5.82-1.32-1.99,.26-1.72,2.12-1.72,3.97l.53,12.71c.13,3.31-.26,3.57-3.71,3.71-2.38,.13-3.71,.13-4.24-.13-.53-.66-.53-1.46-.79-3.97l-1.06-41.16c-.13-1.72,0-2.78,.4-3.04,.53-.66,4.9-.66,6.35-.53,2.12,.13,1.72,1.59,1.85,3.71l.66,11.51c0,2.25-.13,3.71,.93,4.5,.79,.66,3.31,.66,5.16,.26,2.12-.4,1.99-2.51,1.59-4.5l-.13-6.22c-.13-2.65-.13-4.9-.13-6.22-.13-1.72,0-2.78,.4-3.04,.53-.66,4.76-.79,6.09-.66,2.12,.13,1.72,1.59,1.72,3.57l1.46,41.69q-.13,3.84-3.97,3.84Z"/>
        <path class="cls-4" d="M541.32,311.55c-.26,1.59-1.99,1.46-3.57,1.19l-15.09-1.46c-1.06-.26-2.12-.13-2.78-.93-.53-.66-.26-1.59-.13-3.97l3.71-40.5q.26-3.57,3.97-3.44l15.09,1.46c1.72,.13,2.65,.53,2.91,.79,.53,.66,.13,3.97-.26,5.69-.4,1.72-1.85,1.32-3.71,1.06l-6.75-.53c-2.25,0-2.78,.53-3.31,2.51-.13,2.38-.53,4.5-.66,6.88,0,.93,.13,1.72,.66,1.99,.79,.66,2.25,1.06,4.5,1.06,1.19,.13,2.12,.13,2.51,.26,1.72,.13,2.12,.93,1.85,2.51,0,1.32-.26,2.91-.4,4.24-.26,1.06-.66,1.46-1.72,1.19-1.19-.13-2.91-.26-4.37-.26-2.65-.13-3.31,.13-3.71,3.04-.4,1.72-.26,3.57-.53,5.69,0,2.25,.53,2.78,2.78,3.18l6.88,.66c2.12,.13,3.57,.26,3.57,1.85-.93,2.65-1.06,4.37-1.46,5.82Z"/>
        <path class="cls-4" d="M569.64,317.9c.13,.79-.53,1.32-1.19,1.06-1.85-.26-3.97-.66-6.09-1.32-1.59-.53-1.32-2.12-1.32-4.1,.13-1.19,.13-3.04-.13-5.96v-5.69c0-1.32-.13-3.31-1.99-3.57-1.85-.26-2.38,1.72-3.04,3.71l-1.99,9.79c-.4,1.99-.4,3.71-2.65,3.31-1.59-.26-3.18-.53-4.76-1.06-1.85-.53-1.32-2.12-.79-4.37l9.26-40.63c.53-1.59,.79-2.65,1.06-2.91,.79-.4,2.91,.26,6.75,1.06l3.57,.93c1.72,.4,3.57,.93,5.69,2.12,3.44,1.72,5.56,5.69,4.76,9.26-.4,1.72-1.32,5.82-2.78,12.04-.26,1.59-1.46,3.18-2.91,4.5-1.19,.79-1.85,2.38-1.59,4.1,.13,2.38,.26,7.28,.53,14.96-.26,1.19-.4,2.12-.4,2.78Zm-1.32-36.4c.26-2.25-.26-3.44-2.38-4.24-.4-.13-.53-.4-1.06-.53-3.84-1.32-3.31,.66-4.63,6.49-.66,3.04-.93,4.9-1.06,5.03-.13,1.19,.13,2.12,1.19,2.65,2.38,1.19,5.16,.26,6.35-2.25,0-.26,.4-.53,.4-.53l1.19-6.62Z"/>
        <path class="cls-4" d="M597.17,319.36c-1.06,1.99-2.78,3.44-4.76,4.63-4.1,2.51-5.43,1.46-9.93,0-2.65-.79-4.63-2.12-6.09-3.84-.79-1.19-1.46-1.99-1.59-3.04-.66-3.04-.79-5.69-.13-7.81,.26-1.06,.79-2.65,2.12-2.38,2.38,.4,3.84,.79,4.5,1.32,1.46,.4,1.72,1.06,1.46,2.65q0,.26-.26,1.06c0,.93-.13,1.19-.13,2.12,.4,2.38,1.32,3.44,3.18,3.57,1.72,.4,3.44-1.06,4.5-2.78,1.46-3.97,.4-5.03-1.85-9.66l-3.44-8.07c-1.99-4.63-1.72-9.26,.26-13.37,2.25-5.03,7.01-7.41,11.51-7.01,10.32,1.19,12.44,9.26,10.99,14.96-.4,.79-.66,1.19-1.46,1.19-2.12-.13-3.97-.4-5.43-.79-.79-.4-1.06-.93-1.19-1.72l-.13-2.12c-.13-3.97-4.5-4.9-6.49-1.46-1.32,2.25-1.19,4.9-.13,8.07,.79,2.12,4.1,7.94,5.16,10.72,2.12,4.63,1.85,9.26-.66,13.77Z"/>
        <path class="cls-4" d="M636.22,343.05c-7.01,7.15-19.85,3.44-20.65-8.87-.13-1.72,.4-3.31,1.72-5.29l15.22-23.43c2.25-3.84,7.15-5.96,11.78-4.76,1.06,.26,1.59,.53,2.25,1.06,1.85,1.19,2.91,2.12,3.71,2.38,.4,.53,.93,.79,1.46,1.46,1.06,1.59,1.99,3.84,2.25,7.41,.26,3.44-3.04,7.54-4.24,9.4-.93,1.46-1.59,1.32-2.78,.53-1.32-.79-2.38-1.46-3.71-2.38-1.72-1.32-1.06-1.19,1.19-4.9,1.32-2.25,.79-4.76-.66-5.82-.66-.53-1.59-.53-2.78-.4-1.99,.66-2.65,1.99-3.84,3.57-4.63,6.75-8.07,12.57-11.25,16.94-.53,.66-1.06,1.72-1.32,2.25-.79,1.59-.93,3.57,.79,5.03,1.72,1.32,4.37,.66,5.82-1.46l2.25-3.04c.93-1.06,1.59-1.32,2.65-.66,1.19,.66,2.65,1.85,3.97,2.65,.66,.53,.93,1.46,.4,2.38-1.72,2.51-3.18,4.9-4.24,5.96Z"/>
        <path class="cls-4" d="M654.35,367.93c-.4,.53-1.19,.79-1.59,.26-1.59-1.19-3.04-2.25-4.76-4.1-.93-1.06-.13-2.65,.93-4.37,.53-1.06,1.32-2.91,2.51-5.29l2.78-5.16c.79-1.32,1.72-2.78-.13-3.97-1.85-1.19-2.78,.53-4.37,1.85l-6.49,7.54c-1.46,1.46-2.25,3.04-3.71,1.85-1.19-1.06-2.38-2.12-3.84-3.18-1.46-1.46-.13-2.38,1.46-3.97l27.13-31.24c1.32-1.32,2.12-2.12,2.38-1.99,.93,0,2.25,1.32,5.29,3.97l2.78,2.51c1.32,1.32,2.65,2.65,3.97,4.5,2.12,3.04,2.25,7.41-.26,10.46-1.46,1.46-3.97,4.63-8.21,9.66-.93,1.06-2.65,1.99-4.9,2.25-1.59,.26-2.65,1.19-3.44,2.65-1.06,1.99-3.18,6.62-6.75,13.5,0,1.06-.53,1.72-.79,2.25Zm16.02-32.56c1.46-1.85,1.46-3.18-.13-4.9-.26-.26-.53-.66-.66-.79-2.51-2.78-3.31-1.32-7.15,3.44-2.12,2.38-3.18,3.84-3.44,4.1-.66,.79-.93,1.85-.26,2.91,1.46,1.99,4.24,2.65,6.35,1.06,.4-.13,.66-.53,.66-.53l4.63-5.29Z"/>
        <path class="cls-4" d="M670.5,386.73c-1.46,.93-2.38-.4-3.18-1.46l-10.06-11.38c-.53-.66-1.32-1.59-1.46-2.65,0-.93,.66-1.46,2.51-3.04l30.57-26.87c2.65-2.65,2.91-2.25,5.16,.26l10.06,11.38c.93,1.06,1.46,1.99,1.59,2.51,0,.93-2.78,3.18-4.1,4.1-1.46,.93-2.12-.13-3.71-1.72l-4.63-5.29c-1.46-1.72-2.51-1.59-4.37-.26-1.72,1.46-3.57,3.18-5.29,4.63-.66,.53-1.06,1.19-1.06,1.99-.13,1.19,1.19,2.25,2.38,3.97,.66,.79,1.32,1.59,1.59,1.85,1.06,1.19,1.06,1.85-.13,3.04-1.06,.93-2.25,1.85-3.44,2.65-.66,.53-1.46,.53-2.12-.13-.79-.66-1.85-1.72-3.31-3.44-1.59-1.85-2.51-2.25-4.9-.53-1.46,.93-2.65,2.38-4.37,3.84-1.59,1.72-1.59,2.51-.13,4.24l4.5,5.16c1.19,1.72,2.51,2.51,1.32,3.84-.53,.79-1.99,1.99-3.44,3.31Z"/>
        <path class="cls-4" d="M686.64,412.14c-.79-.4-3.57-4.37-3.71-4.76-.4-.79-.53-.93-.13-1.46,.13-.66,.93-1.46,2.65-2.91,.79-.66,1.46-1.19,1.85-1.59,.66-.53,3.31-2.51,1.99-4.5-.13-.13-.26-.66-.26-.66-1.99-3.18-2.51-3.31-5.69-1.72-.66,.26-2.25,.93-5.29,2.38-.93,.53-1.59,.26-2.51-.66-1.19-1.72-2.25-3.31-2.91-4.63-1.19-1.72,.53-2.12,2.38-2.91,9-3.97,36-15.88,39.57-17.6,2.12-.79,2.65-.66,4.1,1.19l3.57,5.43c.4,.79,.53,1.19,.53,1.46-.4,.53-1.06,1.72-1.85,2.38-8.74,8.07-30.44,28.46-30.97,28.85-1.32,1.06-2.65,1.59-3.31,1.72Zm11.12-20.52c1.06-.66,3.57-3.44,3.97-3.71,0-.26,.4-.53,.66-.79,.53-.66-.26-1.19-.79-1.19-1.46,.13-3.44,1.06-6.09,2.51-.13,.13-.79,.4-.79,.4-.93,.53,1.32,3.84,2.25,3.57,0,0,.4-.26,.79-.79Z"/>
        <path class="cls-4" d="M735.35,414.65c-.66,.26-.93,.53-1.46,.13-.53-.4-1.06-.93-1.72-2.38-.66-1.32-1.19-2.65-2.25-2.91s-2.25,.26-4.63,1.32l-28.19,14.03c-2.25,1.19-3.71,2.12-4.5,.53-1.06-1.59-1.59-3.04-2.38-4.63-.93-1.72,.93-2.12,2.78-3.18l28.85-14.29c2.25-1.19,2.91-1.46,3.31-2.25,.4-.79-.26-2.25-.79-3.44-.4-.79-.66-1.32-.79-1.59-.66-1.32-.53-1.85,.79-2.65,1.19-.79,2.78-1.32,4.24-2.12,.66-.26,.93-.26,1.19-.26,.53,.4,.93,1.06,1.72,2.65l7.54,14.96c1.46,2.91,1.59,3.04-1.46,4.63-.79,.79-1.72,1.32-2.25,1.46Z"/>
        <path class="cls-4" d="M699.75,441.79c-.66-1.32-.79-2.12-.79-2.91-.53-1.85,1.19-2.12,3.04-2.91l39.04-14.96c1.46-.53,2.51-.79,3.04-.66,.79,.4,2.25,4.37,2.65,5.69,.53,1.85-1.06,1.99-3.44,3.04l-38.78,14.69q-3.44,1.19-4.76-1.99Z"/>
        <path class="cls-4" d="M707.95,455.42l24.88-11.38c3.84-1.59,11.78-5.16,14.16-6.49,.13-.13,.66-.26,.79-.4,1.85-.79,2.65-.4,3.18,1.46,.26,1.59,.66,3.04,1.06,4.37,.26,1.19,0,1.85-1.19,2.38-3.04,1.59-5.43,2.51-14.43,6.22-3.71,1.46-6.62,2.78-9,3.71-.66,.26-1.19,.79-2.12,1.32-.66,.26-.53,1.32,.66,1.32,1.32,0,2.25,0,3.18-.26,5.16-.4,17.34-1.59,21.18-1.85,1.32,0,4.63-.66,5.29,.93,.66,1.99,.93,3.84,1.19,5.29,.26,.93-.4,1.72-1.32,1.72-1.06,.13-2.51,.26-4.1,.26-.79,.13-5.56,.13-39.71,2.78-1.46,.13-4.24,.53-4.63-1.19l-1.99-7.68c-.26-1.72,1.85-2.25,2.91-2.51Z"/>
        <path class="cls-4" d="M714.04,500.42c-1.72,.13-1.72-1.59-1.99-3.18l-1.59-15.09c-.13-1.06-.26-2.25,.26-2.91,.53-.66,1.32-.66,4.1-1.06l40.37-4.24c3.57-.4,3.71-.53,4.1,3.04l1.59,15.09c.26,1.59,.13,2.65-.26,2.91-.53,.66-4.24,.93-5.82,.93-1.72,.13-1.72-1.59-1.99-3.57l-.79-7.01c-.26-2.51-1.19-2.91-3.31-2.65-2.38,.13-4.63,.4-7.01,.79-.93,.26-1.59,.26-2.12,.79-.66,.79-.66,2.51-.13,4.5,.13,1.06,.26,1.99,.26,2.51,.26,1.59-.26,2.25-2.12,2.38-1.46,.13-2.78,.53-4.37,.4-1.06,.13-1.46-.4-1.46-1.46-.26-.93-.26-2.51-.53-4.5-.26-2.51-.66-3.31-3.71-3.04-1.72,.13-3.57,.4-5.69,.53-2.38,.4-2.91,1.19-2.65,3.31l.79,6.75c.13,2.12,.53,3.44-1.19,3.71-1.32,1.19-3.18,1.06-4.76,1.06Z"/>
        <path class="cls-4" d="M738,503.86l14.16,10.32-14.56,9.93-14.16-10.32,14.56-9.93Z"/>
        <path class="cls-4" d="M706.23,564.35c.26-1.85,.26-3.57,.93-5.56,.4-1.46,1.99-.93,3.71-.53l9,1.46c1.59,.26,2.91,.26,4.1,0,.26,0,.13-.13,.26-.26q0-.26-.13-.4c-.26-.26-.79-.66-1.85-1.19l-6.75-2.65c-2.25-1.06-3.84-1.59-5.16-2.12-.53-.4-1.32-.79-1.59-1.19-.4-.79,0-2.78,.53-4.5,.26-1.32,.66-1.72,1.99-1.72,1.85,0,6.49-.4,7.54-.53,3.31-.13,5.96-.13,7.68-.4,.4-.13,.93-.26,1.85-.53,.66-.26,.53-1.06,.26-1.06-.26-.26-1.32-.53-2.51-.66l-11.78-2.12c-1.85-.26-3.71-.4-3.71-2.38,.13-1.72,.4-3.31,1.06-5.03,.53-1.59,1.99-1.19,4.37-.79l40.5,7.28c1.99,.4,3.84,.53,3.57,2.12l-1.46,8.47c-.13,.66-.79,1.32-1.72,1.19l-4.9,.13-18.79,.26c-.26,0-1.06,.13-1.99,.26-.93,.26-1.06,.93-.4,1.72,.13,.13,.26,0,.4,.13l8.47,3.44c3.57,1.32,6.49,2.38,8.47,3.44,.53,.4,1.59,.53,2.91,1.06,2.91,1.06,4.5,1.06,4.24,3.18-.53,3.18-.79,5.69-1.46,7.81-.4,1.72-1.99,1.46-4.24,.93l-40.5-7.28c-1.19-.26-3.18-.4-2.91-1.99Z"/>
        <path class="cls-4" d="M698.69,590.16c-1.46-.66-.79-2.12-.53-3.71l5.16-14.43c.4-.79,.93-2.12,1.32-2.25,.79-.4,1.59,0,3.97,.66l38.52,13.63c3.31,1.32,3.44,1.46,2.25,4.37l-5.29,14.29c-.53,1.59-1.19,2.38-1.46,2.65-.79,.4-3.97-.66-5.56-1.59-1.46-.66-.79-2.12-.13-3.97l2.25-6.62c.79-2.25,.26-2.91-1.85-3.97-2.25-.79-4.5-1.59-6.62-2.25-.79-.4-1.59-.26-2.12-.13-1.06,.66-1.46,2.12-2.25,4.1-.4,1.19-.66,1.72-1.06,2.25-.53,1.59-1.32,1.72-2.78,1.32s-2.78-.93-3.97-1.46c-.79-.4-1.06-.93-.93-1.99,.26-1.06,.79-2.65,1.46-4.37,.93-2.38,.66-3.31-1.99-4.63-1.46-.66-3.44-1.46-5.29-1.99-2.25-.79-2.91-.26-3.84,1.99l-2.38,6.49c-.93,2.12-1.19,3.44-2.65,2.91-1.32,0-2.91-.53-4.24-1.32Z"/>
        <path class="cls-4" d="M685.45,615.97c-.53-.4-.93-.79-.79-1.59,.66-1.72,1.59-3.57,2.91-5.82,.93-1.06,2.38-.66,4.24-.13,1.06,.26,2.91,.79,5.82,1.32l5.69,1.46c1.32,.26,3.18,.79,3.71-1.06,.79-1.99-.93-2.78-3.04-3.71l-9-4.63c-1.99-1.06-3.44-1.46-2.51-3.31,.66-1.46,1.59-3.04,2.38-4.5,1.06-1.72,2.25-.53,4.24,.4l37.06,18.79c1.59,.79,2.25,1.32,2.65,1.85,.4,.79-.79,2.65-2.51,6.35l-1.72,3.44c-.53,1.59-1.99,3.44-3.57,5.03-2.51,2.78-6.75,3.97-10.32,2.38-1.72-.66-5.43-2.78-11.12-5.82-1.46-.66-2.65-2.12-3.44-4.24-.66-1.32-1.72-2.38-3.44-2.78-2.38-.4-7.01-1.72-14.56-3.31-1.19,.26-1.85,.13-2.65-.13Zm35.74,7.81c2.12,.93,3.18,.53,4.9-1.32,.26-.26,.53-.66,.66-.79,2.25-3.04,.13-3.44-5.03-6.09-2.91-1.32-4.5-2.38-4.76-2.25-1.19-.66-1.85-.26-2.78,.53-1.72,2.12-1.59,4.9,.53,6.62,.26,.26,.53,.4,.66,.53l5.82,2.78Z"/>
        <path class="cls-4" d="M676.72,641.51c-6.88-7.28-2.78-19.99,9.26-20.38,1.72-.13,3.44,.53,5.29,1.99l22.77,15.75c3.71,2.38,5.69,7.41,4.5,12.04-.26,1.06-.53,1.59-1.06,2.25-1.19,1.85-2.12,2.91-2.51,3.57-.53,.4-.79,.93-1.32,1.32-1.59,1.06-3.97,1.85-7.54,2.12-3.44,.26-7.68-3.18-9.26-4.37-1.19-1.06-1.32-1.59-.4-2.91,.79-1.32,1.46-2.38,2.51-3.57,1.32-1.72,1.19-1.06,4.76,1.32,2.25,1.32,4.76,.79,5.82-.66,.53-.66,.66-1.72,.53-2.65-.66-1.99-1.85-2.78-3.44-3.97-6.62-4.76-12.04-8.47-16.68-11.65-.66-.53-1.59-1.19-2.25-1.32-1.59-.79-3.71-1.19-5.03,.53-1.46,1.46-.93,4.37,1.32,5.96l3.04,2.25c1.06,.93,1.32,1.59,.53,2.78-.79,1.32-1.59,2.51-2.78,3.84-.53,.66-1.46,.93-2.38,.4-2.51-2.12-4.5-3.71-5.69-4.63Z"/>
        <path class="cls-4" d="M685.06,691.28c-.66-.13-1.06-.93-1.85-1.72-3.84-7.68-7.54-14.96-12.44-23.56-.4-.79-.93-1.06-1.46-1.72-5.29-4.76-8.87-7.94-10.59-10.06q-2.65-2.65-.26-5.29l1.72-1.85c1.06-.93,1.59-1.06,2.65-.13,.26,.26,1.32,1.32,2.91,2.65l7.54,7.15c.93,1.06,2.25,2.25,3.71,2.65,2.12,1.19,4.1,1.85,8.74,3.97l15.22,6.62c.66,.53,1.46,.66,2.12,1.19,.4,.13,.66,1.06,.26,1.59-1.46,1.85-3.04,3.71-4.63,5.16-.66,.26-1.06,.4-2.12-.13-1.19-.4-2.51-1.06-4.5-1.99-.66-.53-3.31-1.59-4.63-2.12-.79-.4-1.99-1.06-2.51-.26-.26,.26-.4,.53-.13,1.19,.53,.93,1.19,1.99,1.85,3.31,1.99,3.57,3.31,5.69,3.84,6.88,.4,.79,.13,1.46-.13,2.12-1.72,1.85-3.18,3.31-4.1,4.37-.13,0-.53,.13-1.19,0Z"/>
        <path class="cls-4" d="M619.8,694.85c-1.59-2.12-2.25-4.9-1.99-7.68,.53-6.35,3.57-7.54,14.69-14.69,.79-.4,1.32-.66,1.59-.26,.53,.4,1.19,1.06,2.65,3.04l23.16,34.15c.93,1.46,1.46,2.25,1.32,2.78-.26,1.06-1.59,1.72-5.82,4.76-1.59,1.06-2.65,1.99-3.57,2.51-2.65,1.99-5.29,2.78-8.21,2.25-6.09-.66-12.44-7.68-12.04-14.82,.13-1.72-.26-2.25-1.85-2.51-3.18-.79-5.69-2.78-7.68-5.69-.66-1.32-1.19-2.51-2.25-3.84Zm11.78,.53c1.85,1.46,5.03,1.06,6.09-.66,1.06-1.99,.26-2.51-2.51-6.35-2.78-4.5-3.18-5.29-5.29-3.97-1.72,1.19-2.65,2.65-2.65,4.24,.79,2.65,2.12,5.16,4.37,6.75Zm9,7.81c-.53,.66-.79,1.59-.66,2.51,.13,1.46,.53,2.78,1.59,4.1l1.72,1.59c1.59,1.19,3.18,1.46,4.5,.53,1.32-.93,1.72-1.85,1.19-3.44-1.46-3.44-5.16-9.13-8.34-5.29Z"/>
        <path class="cls-4" d="M588.83,699.22c-.53-.66-.4-1.32,.4-1.72,1.72-1.19,3.57-1.99,5.56-2.91,1.46-.53,2.38,.93,3.71,2.38,.66,.79,1.85,2.51,3.97,4.5l3.71,4.5c.79,1.19,1.85,2.51,3.71,1.46,1.72-1.19,.79-2.65-.13-4.9l-4.37-8.87c-.93-1.99-1.85-3.31-.13-3.97,1.46-.93,2.91-1.46,4.37-2.25,1.72-.93,2.25,.79,3.18,2.78l18.4,37.32c.93,1.72,1.06,2.38,.79,3.18-.4,.79-2.12,1.59-5.69,3.31l-3.31,1.59c-1.59,1.06-3.71,1.46-5.69,1.99-3.71,.79-7.81-.93-9.79-4.24-1.06-1.59-2.91-5.56-5.43-11.25-.79-1.59-.79-3.18-.26-5.29,.4-1.46-.13-2.91-1.32-4.37-1.46-1.72-4.76-5.56-9.66-11.38-1.19-.66-1.72-1.32-1.99-1.85Zm23.69,27.53c1.19,1.99,2.51,2.51,4.63,1.85,.4-.13,.79-.4,.93-.26,3.84-1.32,2.12-2.65-.53-7.81-1.32-2.78-2.25-4.37-2.38-4.63-.53-1.19-1.32-1.59-2.51-1.32-2.65,.66-4.24,3.04-3.31,5.69,.13,.4,.4,.79,.4,.79l2.78,5.69Z"/>
        <path class="cls-4" d="M566.46,713.38c-.26-.66,.13-1.19,.13-2.12,2.65-10.32,13.77-13.37,20.52-6.88,1.19,1.06,2.12,2.78,2.91,4.9l8.07,24.88c1.46,3.97,.66,7.94-2.12,11.78-.53,.66-1.46,1.46-1.99,1.72-5.03,2.51-8.6,2.78-12.18,1.19-3.71-1.72-5.82-5.16-6.88-8.6l-7.28-22.1c-.53-.13-.79-2.12-1.19-4.76Zm9.26,2.38l7.28,22.63c.4,.79,.79,1.59,1.19,2.25,2.25,2.91,7.15,.93,6.22-2.65-.13-.4-.26-.93-.79-2.12l-7.28-21.71c-.4-1.32-.93-2.25-1.32-2.78-1.85-2.51-5.96-1.19-6.22,1.72,.66,.79,.53,1.59,.93,2.65Z"/>
        <path class="cls-4" d="M545.29,753.09c-.26-.66-.13-1.06,.13-1.19,.53-.66,1.46-.93,2.38-1.06,1.46-.13,2.78-.53,3.71-1.46,.66-.79,.4-1.99-.13-4.9l-5.69-30.57c-.4-2.65-.93-4.24,.66-4.37,1.59-.26,3.44-.79,5.03-1.06,1.59-.26,1.85,1.46,2.25,3.57l5.82,31.77c.4,2.38,.53,3.18,1.32,3.84,.66,.53,2.25,.26,3.57,.26,.93-.26,1.19-.26,1.59-.26,1.46-.13,2.12,.13,2.25,1.32,.13,1.46,.66,3.04,1.06,4.63,.13,.4,.13,1.06-.13,1.19-.53,.66-1.32,.66-2.91,.79l-16.41,3.04c-3.18,.53-3.44,.53-3.97-2.65-.4-1.19-.79-2.25-.53-2.91Z"/>
        <path class="cls-4" d="M513.92,712.45c1.19,.13,2.12-.13,2.78,0,1.85,0,1.72,1.59,1.72,3.57l.79,12.31c-.13,1.19,.26,2.25,.53,2.78,.66,1.99,3.84,1.59,5.82,1.32,1.99-.26,1.72-2.12,1.59-3.84l-.53-12.71c-.13-3.31,.26-3.57,3.31-3.71,2.38-.13,3.57-.4,4.24,.13,.53,.66,.53,1.46,.79,3.97l1.85,41.16c.13,1.72,0,2.78-.4,3.04-.53,.66-4.76,.79-6.22,.79-2.12-.13-1.72-1.59-1.85-3.71l-.66-11.51c0-2.25,.13-3.71-.93-4.5-.79-.66-3.18-.53-5.16-.26-2.12,.4-1.99,2.51-1.59,4.5l.13,6.22c.13,2.65,.13,4.9,.13,6.22,.13,1.72,0,2.78-.4,3.04-.53,.66-4.76,.79-6.09,.66-2.12-.13-1.72-1.59-1.85-3.31l-2.12-41.69c-.13-4.1,.4-4.24,4.1-4.5Z"/>
        <path class="cls-4" d="M484.14,712.19c.4-1.72,1.99-1.46,3.57-1.19l15.22,1.32c1.06,.26,2.12,.13,2.78,.93,.53,.66,.26,1.59,.13,3.97l-3.31,40.63q-.26,3.57-3.84,3.57l-15.22-1.32c-1.72-.13-2.65-.53-2.78-.66-.53-.66-.13-3.97,0-5.69,.4-1.72,1.85-1.32,3.84-1.32l6.88,.66c2.25,0,2.78-.53,3.31-2.51,.13-2.38,.53-4.5,.66-6.88,0-.93-.13-1.72-.66-1.99-.79-.66-2.25-1.06-4.5-1.06-1.19-.13-2.12-.13-2.51-.26-1.72-.13-2.25-.79-1.99-2.38,0-1.32,.26-2.91,.26-4.37,.26-1.06,.66-1.46,1.59-1.32,1.19,.13,2.91,.26,4.63,.26,2.65,.13,3.31-.13,3.71-3.04,.4-1.72,.26-3.57,.53-5.69,0-2.25-.53-2.78-2.78-3.18l-6.88-.66c-2.12-.13-3.44-.13-3.71-1.72,.66-2.65,.79-4.24,1.06-6.09Z"/>
        <path class="cls-4" d="M455.82,706.23c-.13-.79,.53-1.32,1.19-1.06,1.85,.26,3.97,.66,6.09,1.32,1.59,.53,1.32,2.12,1.32,4.1-.13,1.19-.13,3.04,.13,5.96l.13,5.96c0,1.32,.13,3.31,1.99,3.57,2.12,.13,2.38-1.72,3.04-3.71l1.99-9.79c.4-1.99,.4-3.71,2.65-3.31,1.59,.26,3.18,.53,4.76,1.06,1.85,.53,1.32,2.12,.79,4.37l-8.74,40.37c-.4,1.72-.79,2.65-1.06,2.91-.79,.4-2.78,0-6.62-.93l-3.57-.66c-1.72-.4-3.57-.93-5.96-1.99-3.44-1.72-5.56-5.69-4.76-9.26,.26-1.85,1.19-5.96,2.65-12.18,.26-1.59,1.46-3.18,2.91-4.5,1.19-.79,1.85-2.38,1.59-4.1-.13-2.38-.26-7.28-.53-14.96-.13-1.72-.13-2.25,0-3.18Zm1.72,36.53c-.26,2.25,.26,3.44,2.51,4.1,.4,.13,.53,.4,1.06,.53,3.84,1.32,3.44-.79,4.63-6.49,.66-3.04,.93-4.9,1.06-5.03,.13-1.19-.13-2.12-1.19-2.65-2.38-1.19-5.16-.26-6.35,2.25,0,.26-.4,.53-.4,.53l-1.32,6.75Z"/>
        <path class="cls-4" d="M428.42,704.91c1.06-1.99,2.65-3.71,4.63-4.9,4.1-2.51,5.43-1.46,10.06-.13,2.65,.79,4.63,2.12,6.09,3.84,.79,1.19,1.46,1.99,1.72,3.18,.66,3.04,.79,5.69,.53,7.81-.26,1.06-.66,2.78-2.12,2.38-2.38-.4-3.84-.79-4.63-.93-1.46-.4-1.72-1.06-1.59-2.51q0-.26,.26-1.06c0-.93,.13-1.19,.13-2.12-.4-2.38-1.32-3.44-3.18-3.57-1.72-.4-3.44,1.06-4.5,2.78-1.46,3.97-.4,5.03,1.99,9.53l3.71,8.07c1.99,4.63,1.85,9.13,0,13.24-2.12,4.9-7.01,7.41-11.51,7.01-10.59-1.06-12.44-9-11.12-15.09,.4-.79,.66-1.19,1.46-1.19,2.12,.13,3.97,.4,5.43,.79,.79,.4,1.06,.93,1.19,1.72v1.85c.13,3.97,4.37,4.76,6.35,1.32,1.32-2.25,1.19-4.9,.13-8.07-.79-2.12-4.24-8.07-5.29-10.85-2.65-3.44-2.25-8.47,.26-13.1Z"/>
        <path class="cls-4" d="M388.84,682.01c6.88-7.28,19.85-3.44,20.78,8.74,.13,1.72-.4,3.31-1.72,5.29l-14.96,23.43c-2.25,3.84-7.15,5.96-11.78,4.76-1.06-.26-1.59-.53-2.25-.79-1.99-1.06-2.91-1.85-3.71-2.38-.4-.53-.93-.79-1.46-1.46-1.06-1.59-1.99-3.84-2.25-7.41-.4-3.31,2.78-7.68,4.24-9.4,.93-1.46,1.59-1.32,2.78-.53,1.32,.79,2.38,1.46,3.71,2.38,1.72,1.32,1.06,1.19-1.19,4.9-1.32,2.25-.79,4.76,.66,5.82,.66,.53,1.59,.53,2.91,.26,1.99-.66,2.65-1.99,3.57-3.44,4.63-6.75,8.07-12.57,11.12-17.07,.53-.66,1.06-1.72,1.32-2.25,.66-1.72,.79-3.84-.79-5.03s-4.37-.66-5.69,1.72l-2.12,3.18c-.93,1.06-1.59,1.32-2.65,.66-1.32-.79-2.65-1.85-3.97-2.38-.66-.53-.93-1.46-.4-2.38,1.59-3.57,2.91-5.82,3.84-6.62Z"/>
        <path class="cls-4" d="M370.71,657c.4-.53,1.19-.79,1.59-.26,1.59,1.19,3.04,2.25,4.76,4.1,.93,1.06,.26,2.51-.93,4.37-.53,1.06-1.32,2.91-2.51,5.29l-2.51,5.29c-.79,1.32-1.72,2.78,.13,3.97,1.85,1.19,2.78-.53,4.37-1.85l6.49-7.54c1.46-1.46,2.25-3.04,3.71-1.85,1.19,1.06,2.51,1.99,3.84,3.18,1.46,1.46,.13,2.38-1.46,3.97l-27,31.5c-1.32,1.32-2.12,2.12-2.38,1.99-.93,0-2.25-1.32-5.43-4.1l-2.78-2.51c-1.32-1.32-2.65-2.65-3.97-4.5-2.25-2.91-2.25-7.41,.13-10.59,1.32-1.72,3.84-4.76,8.07-9.53,1.06-1.19,2.65-1.99,4.9-2.25,1.59-.26,2.65-1.19,3.44-2.65,1.06-1.99,2.91-6.49,6.35-13.5,.53-1.46,1.06-2.12,1.19-2.51Zm-15.88,32.69c-1.46,1.85-1.46,3.18,.13,4.9,.26,.26,.53,.66,.66,.79,2.78,2.91,3.44,.79,7.15-3.44,2.12-2.38,3.18-3.84,3.44-4.1,.66-.79,.93-1.85,.26-2.91-1.46-1.99-4.37-2.51-6.35-1.06-.4,.13-.66,.53-.66,.53l-4.63,5.29Z"/>
        <path class="cls-4" d="M354.3,638.73c1.46-.93,2.38,.4,3.18,1.46l10.06,11.38c.53,.66,1.32,1.59,1.46,2.65,0,.93-.66,1.46-2.51,3.04l-30.57,27.4c-2.38,1.99-2.51,2.12-5.03-.4l-9.93-11.12c-.93-1.06-1.46-1.99-1.59-2.51,0-.93,2.78-3.18,3.97-3.97,1.46-.93,2.12,.13,3.57,1.59l4.63,5.29c1.72,1.59,2.51,1.59,4.37,.26,1.72-1.46,3.57-3.18,5.16-4.76,.66-.53,1.06-1.19,1.06-1.99,.13-1.19-1.19-2.25-2.51-3.84-.79-.66-1.32-1.59-1.59-1.85-1.06-1.19-1.06-1.85,.13-3.04,1.06-.93,2.25-1.85,3.44-2.65,.66-.53,1.46-.53,2.12,.13,.79,.66,1.85,1.72,3.31,3.44,1.85,1.72,2.51,2.25,4.9,.53,1.46-.93,2.65-2.38,4.37-3.84,1.59-1.72,1.59-2.51,.13-4.24l-4.5-5.16c-1.19-1.72-2.51-2.51-1.32-3.84,1.06-1.99,2.38-3.04,3.71-3.97Z"/>
        <path class="cls-4" d="M338.02,613.19c.79,.4,3.57,4.37,3.84,4.63,.4,.79,.53,.93,.13,1.46-.13,.66-.93,1.46-2.65,2.91-.79,.66-1.46,1.19-1.85,1.59-.66,.53-3.31,2.51-1.99,4.5,.13,.13,.26,.66,.26,.66,2.12,3.04,2.51,3.31,5.69,1.72,.66-.26,2.25-.93,5.29-2.38,.93-.53,1.59-.26,2.51,.66,1.19,1.72,2.25,3.31,2.91,4.63,1.19,1.72-.4,1.99-2.38,2.91-9,3.97-35.87,16.02-39.44,17.74-2.12,.79-2.65,.66-4.1-1.19l-3.31-5.16c-.4-.79-.53-1.19-.53-1.46,.4-.53,1.06-1.72,1.85-2.38,8.47-7.94,30.18-28.72,30.71-29.12,1.19-1.19,2.25-1.85,3.04-1.72Zm-10.85,20.52c-1.06,.66-3.57,3.44-3.97,3.71,0,.26-.4,.53-.66,.79-.53,.66,.26,1.19,.79,1.19,1.46-.13,3.31-1.19,5.96-2.65,.13-.13,.79-.4,.79-.4,.93-.53-1.32-3.84-2.25-3.57,0,.26-.26,.53-.66,.93Z"/>
        <path class="cls-4" d="M289.31,610.8c.66-.26,.93-.53,1.46-.13,.53,.4,1.06,.93,1.72,2.38,.66,1.32,1.19,2.65,2.25,2.91,1.19,.4,2.25-.26,4.63-1.32l27.93-14.16c2.25-1.19,3.71-2.12,4.5-.53,1.06,1.59,1.72,3.18,2.25,4.9,.93,1.72-.93,2.12-2.78,3.18l-28.59,14.69c-2.25,1.19-2.91,1.46-3.18,2.38-.4,.79,.26,2.51,.93,3.31,.4,.79,.79,1.19,.79,1.59,.66,1.32,.53,1.85-.79,2.65-1.19,.79-2.78,1.32-4.24,2.12-.66,.26-.93,.26-1.19,.26-.53-.4-.93-1.06-1.72-2.65l-7.54-14.96c-1.46-2.91-1.59-3.04,1.46-4.63,.79-1.32,1.72-1.85,2.12-1.99Z"/>
        <path class="cls-4" d="M324.78,583.41c.66,1.32,.79,2.12,1.19,2.91,.53,1.85-1.19,2.12-3.04,2.91l-38.91,15.09c-1.46,.53-2.51,.79-3.04,.66-.79-.4-2.38-4.24-2.65-5.69-.53-1.85,1.06-1.99,3.18-3.04l38.78-14.96c3.04-1.06,3.31-1.06,4.5,2.12Z"/>
        <path class="cls-4" d="M316.44,570.17l-25.15,11.65c-3.84,1.59-11.65,5.43-14.03,6.75-.13,.13-.66,.26-.79,.4-1.85,.79-2.65,.4-3.18-1.46-.26-1.59-.66-3.04-1.06-4.37-.26-1.19,0-1.85,1.19-2.38,3.04-1.59,5.29-2.78,14.29-6.35,3.71-1.46,6.49-2.91,9-3.97,.66-.26,1.19-.79,2.12-1.32,.66-.26,.53-1.32-.66-1.32-1.32,0-2.25,0-3.18,.26-5.16,.4-17.21,1.72-21.57,2.12-1.32,0-4.76,.79-5.29-.93-.66-1.99-1.06-3.71-1.46-5.43-.26-.93,.4-1.72,1.32-1.72,1.06-.13,2.51-.26,4.1-.26,.79-.13,5.56-.13,39.71-3.18,1.46-.13,4.37-.79,4.63,1.19l1.99,7.68c1.06,1.32-.93,2.25-1.99,2.65Z"/>
        <path class="cls-4" d="M310.22,524.9c1.72-.13,1.85,1.72,1.99,3.18l1.72,15.35c.13,1.06,.26,2.25-.26,2.91s-1.19,.79-4.1,1.06l-40.63,4.63c-3.57,.4-3.71,.53-4.1-3.04l-1.72-14.96c-.26-1.59-.13-2.65,.26-2.91,.53-.66,4.1-1.06,5.69-1.06,1.72-.13,1.72,1.59,1.99,3.57l.79,7.01c.26,2.51,1.19,2.91,3.31,2.65,2.38-.13,4.63-.4,7.01-.79,.93-.26,1.59-.26,1.99-.93,.66-.79,.26-2.51,.13-4.5-.13-1.06-.26-1.99-.26-2.51-.26-1.59,.13-2.12,2.12-2.38,1.46-.13,2.78-.53,4.37-.4,1.06-.13,1.46,.4,1.46,1.46,.26,.93,.26,2.51,.66,4.63,.26,2.51,.66,3.31,3.71,3.04,1.72-.13,3.57-.4,5.69-.79,2.38-.4,2.91-1.19,2.65-3.31l-.79-6.75c-.26-2.25-.66-3.57,1.06-3.97,1.59-1.06,3.57-1.32,5.29-1.19Z"/>
        <path class="cls-4" d="M286.14,521.6l-14.29-10.19,14.43-10.06,14.29,10.19-14.43,10.06Z"/>
      </g>
    </g>
  </g>
</svg>