<svg width="56" height="57" viewBox="0 0 56 57" fill="none" xmlns="http://www.w3.org/2000/svg">
<mask id="mask0_1721_1876" style="mask-type:alpha" maskUnits="userSpaceOnUse" x="0" y="0" width="56" height="57">
<rect y="0.358643" width="56" height="56" fill="#D9D9D9"/>
</mask>
<g mask="url(#mask0_1721_1876)">
<path d="M45.7333 49.3586L31.0333 34.6586C29.8667 35.592 28.525 36.3309 27.0083 36.8753C25.4917 37.4198 23.8778 37.692 22.1667 37.692C17.9278 37.692 14.3403 36.2239 11.4042 33.2878C8.46806 30.3517 7 26.7642 7 22.5253C7 18.2864 8.46806 14.6989 11.4042 11.7628C14.3403 8.8267 17.9278 7.35864 22.1667 7.35864C26.4056 7.35864 29.9931 8.8267 32.9292 11.7628C35.8653 14.6989 37.3333 18.2864 37.3333 22.5253C37.3333 24.2364 37.0611 25.8503 36.5167 27.367C35.9722 28.8836 35.2333 30.2253 34.3 31.392L49 46.092L45.7333 49.3586ZM22.1667 33.0253C25.0833 33.0253 27.5625 32.0045 29.6042 29.9628C31.6458 27.9211 32.6667 25.442 32.6667 22.5253C32.6667 19.6086 31.6458 17.1295 29.6042 15.0878C27.5625 13.0461 25.0833 12.0253 22.1667 12.0253C19.25 12.0253 16.7708 13.0461 14.7292 15.0878C12.6875 17.1295 11.6667 19.6086 11.6667 22.5253C11.6667 25.442 12.6875 27.9211 14.7292 29.9628C16.7708 32.0045 19.25 33.0253 22.1667 33.0253Z" fill="#FEFEFE"/>
</g>
</svg>
