<svg width="1440" height="722" viewBox="0 0 1440 722" fill="none" xmlns="http://www.w3.org/2000/svg">
<g clip-path="url(#clip0_1792_13169)">
<rect width="1440" height="723" transform="translate(-0.5 -0.582031)" fill="#0D151E"/>
<path d="M1652.52 -565.351C1652.52 -565.351 1232.46 -691.829 757.926 -191.912C142.945 455.971 1812.81 340.274 1812.81 340.274" stroke="url(#paint0_linear_1792_13169)" stroke-width="1.24023" stroke-linecap="round" stroke-linejoin="round"/>
<path d="M1656.53 -559.269C1656.53 -559.269 1236.46 -685.747 761.93 -185.83C146.949 462.053 1816.82 346.356 1816.82 346.356" stroke="url(#paint1_linear_1792_13169)" stroke-width="1.24023" stroke-linecap="round" stroke-linejoin="round"/>
<path d="M1660.53 -553.188C1660.53 -553.188 1240.46 -679.666 765.932 -179.749C150.951 468.134 1820.82 352.437 1820.82 352.437" stroke="url(#paint2_linear_1792_13169)" stroke-width="1.24023" stroke-linecap="round" stroke-linejoin="round"/>
<path d="M1664.53 -547.105C1664.53 -547.105 1244.47 -673.583 769.936 -173.665C154.955 474.217 1824.82 358.52 1824.82 358.52" stroke="url(#paint3_linear_1792_13169)" stroke-width="1.24023" stroke-linecap="round" stroke-linejoin="round"/>
<path d="M1668.54 -541.023C1668.54 -541.023 1248.47 -667.501 773.94 -167.583C158.959 480.299 1828.83 364.602 1828.83 364.602" stroke="url(#paint4_linear_1792_13169)" stroke-width="1.24023" stroke-linecap="round" stroke-linejoin="round"/>
<path d="M1672.54 -534.942C1672.54 -534.942 1252.47 -661.42 777.944 -161.502C162.963 486.38 1832.83 370.683 1832.83 370.683" stroke="url(#paint5_linear_1792_13169)" stroke-width="1.24023" stroke-linecap="round" stroke-linejoin="round"/>
<path d="M1676.54 -528.859C1676.54 -528.859 1256.48 -655.338 781.948 -155.42C166.967 492.462 1836.83 376.766 1836.83 376.766" stroke="url(#paint6_linear_1792_13169)" stroke-width="1.24023" stroke-linecap="round" stroke-linejoin="round"/>
<path d="M1680.55 -522.777C1680.55 -522.777 1260.48 -649.255 785.95 -149.338C170.969 498.544 1840.84 382.848 1840.84 382.848" stroke="url(#paint7_linear_1792_13169)" stroke-width="1.24023" stroke-linecap="round" stroke-linejoin="round"/>
<path d="M1684.55 -516.694C1684.55 -516.694 1264.48 -643.172 789.954 -143.255C174.973 504.627 1844.84 388.931 1844.84 388.931" stroke="url(#paint8_linear_1792_13169)" stroke-width="1.24023" stroke-linecap="round" stroke-linejoin="round"/>
<path d="M1688.55 -510.613C1688.55 -510.613 1268.49 -637.091 793.958 -137.174C178.977 510.708 1848.84 395.012 1848.84 395.012" stroke="url(#paint9_linear_1792_13169)" stroke-width="1.24023" stroke-linecap="round" stroke-linejoin="round"/>
<path d="M1692.56 -504.531C1692.56 -504.531 1272.49 -631.009 797.962 -131.092C182.981 516.79 1852.85 401.094 1852.85 401.094" stroke="url(#paint10_linear_1792_13169)" stroke-width="1.24023" stroke-linecap="round" stroke-linejoin="round"/>
<path d="M1696.56 -498.449C1696.56 -498.449 1276.49 -624.927 801.964 -125.01C186.983 522.873 1856.85 407.176 1856.85 407.176" stroke="url(#paint11_linear_1792_13169)" stroke-width="1.24023" stroke-linecap="round" stroke-linejoin="round"/>
<path d="M1700.56 -492.368C1700.56 -492.368 1280.5 -618.846 805.967 -118.929C190.986 528.954 1860.85 413.257 1860.85 413.257" stroke="url(#paint12_linear_1792_13169)" stroke-width="1.24023" stroke-linecap="round" stroke-linejoin="round"/>
<path opacity="0.9" d="M1704.57 -486.285C1704.57 -486.285 1284.5 -612.763 809.971 -112.846C194.99 535.037 1864.86 419.34 1864.86 419.34" stroke="url(#paint13_linear_1792_13169)" stroke-width="1.24023" stroke-linecap="round" stroke-linejoin="round"/>
<path opacity="0.8" d="M1708.57 -480.203C1708.57 -480.203 1288.5 -606.682 813.975 -106.764C198.994 541.118 1868.86 425.422 1868.86 425.422" stroke="url(#paint14_linear_1792_13169)" stroke-width="1.24023" stroke-linecap="round" stroke-linejoin="round"/>
<path opacity="0.7" d="M1712.58 -474.122C1712.58 -474.122 1292.51 -600.6 817.979 -100.683C202.998 547.2 1872.86 431.503 1872.86 431.503" stroke="url(#paint15_linear_1792_13169)" stroke-width="1.24023" stroke-linecap="round" stroke-linejoin="round"/>
<path opacity="0.6" d="M1716.58 -468.04C1716.58 -468.04 1296.51 -594.518 821.981 -94.601C207 553.282 1876.87 437.585 1876.87 437.585" stroke="url(#paint16_linear_1792_13169)" stroke-width="1.24023" stroke-linecap="round" stroke-linejoin="round"/>
<path opacity="0.55" d="M1720.58 -461.958C1720.58 -461.958 1300.51 -588.436 825.985 -88.519C211.004 559.364 1880.87 443.667 1880.87 443.667" stroke="url(#paint17_linear_1792_13169)" stroke-width="1.24023" stroke-linecap="round" stroke-linejoin="round"/>
<path opacity="0.5" d="M1724.59 -455.875C1724.59 -455.875 1304.52 -582.353 829.989 -82.436C215.008 565.447 1884.87 449.75 1884.87 449.75" stroke="url(#paint18_linear_1792_13169)" stroke-width="1.24023" stroke-linecap="round" stroke-linejoin="round"/>
<path opacity="0.45" d="M1728.59 -449.794C1728.59 -449.794 1308.52 -576.272 833.993 -76.355C219.012 571.528 1888.88 455.831 1888.88 455.831" stroke="url(#paint19_linear_1792_13169)" stroke-width="1.24023" stroke-linecap="round" stroke-linejoin="round"/>
<path opacity="0.4" d="M1732.59 -443.712C1732.59 -443.712 1312.53 -570.19 837.997 -70.2729C223.016 577.61 1892.88 461.913 1892.88 461.913" stroke="url(#paint20_linear_1792_13169)" stroke-width="1.24023" stroke-linecap="round" stroke-linejoin="round"/>
<path opacity="0.35" d="M1736.59 -437.63C1736.59 -437.63 1316.53 -564.108 841.999 -64.1909C227.018 583.692 1896.88 467.995 1896.88 467.995" stroke="url(#paint21_linear_1792_13169)" stroke-width="1.24023" stroke-linecap="round" stroke-linejoin="round"/>
<path opacity="0.3" d="M1740.6 -431.549C1740.6 -431.549 1320.53 -558.027 846.003 -58.1096C231.022 589.773 1900.89 474.076 1900.89 474.076" stroke="url(#paint22_linear_1792_13169)" stroke-width="1.24023" stroke-linecap="round" stroke-linejoin="round"/>
<path opacity="0.25" d="M1744.6 -425.467C1744.6 -425.467 1324.54 -551.945 850.007 -52.028C235.026 595.855 1904.89 480.158 1904.89 480.158" stroke="url(#paint23_linear_1792_13169)" stroke-width="1.24023" stroke-linecap="round" stroke-linejoin="round"/>
<path opacity="0.2" d="M1748.61 -419.384C1748.61 -419.384 1328.54 -545.862 854.01 -45.945C239.029 601.938 1908.9 486.241 1908.9 486.241" stroke="url(#paint24_linear_1792_13169)" stroke-width="1.24023" stroke-linecap="round" stroke-linejoin="round"/>
<path opacity="0.15" d="M1752.61 -413.302C1752.61 -413.302 1332.54 -539.78 858.014 -39.8628C243.033 608.02 1912.9 492.323 1912.9 492.323" stroke="url(#paint25_linear_1792_13169)" stroke-width="1.24023" stroke-linecap="round" stroke-linejoin="round"/>
<path opacity="0.12" d="M1756.61 -407.221C1756.61 -407.221 1336.55 -533.699 862.016 -33.7815C247.035 614.101 1916.9 498.404 1916.9 498.404" stroke="url(#paint26_linear_1792_13169)" stroke-width="1.24023" stroke-linecap="round" stroke-linejoin="round"/>
<path opacity="0.11" d="M1760.62 -401.139C1760.62 -401.139 1340.55 -527.617 866.02 -27.6999C251.039 620.183 1920.91 504.486 1920.91 504.486" stroke="url(#paint27_linear_1792_13169)" stroke-width="1.24023" stroke-linecap="round" stroke-linejoin="round"/>
<path opacity="0.1" d="M1764.62 -395.058C1764.62 -395.058 1344.55 -521.536 870.024 -21.6186C255.043 626.264 1924.91 510.567 1924.91 510.567" stroke="url(#paint28_linear_1792_13169)" stroke-width="1.24023" stroke-linecap="round" stroke-linejoin="round"/>
</g>
<defs>
<linearGradient id="paint0_linear_1792_13169" x1="611.024" y1="163.393" x2="1155.51" y2="425.213" gradientUnits="userSpaceOnUse">
<stop stop-color="#01C7ED"/>
<stop offset="1" stop-color="#04F76E"/>
</linearGradient>
<linearGradient id="paint1_linear_1792_13169" x1="615.028" y1="169.475" x2="1159.52" y2="431.295" gradientUnits="userSpaceOnUse">
<stop stop-color="#01C7ED"/>
<stop offset="1" stop-color="#04F76E"/>
</linearGradient>
<linearGradient id="paint2_linear_1792_13169" x1="619.03" y1="175.556" x2="1163.52" y2="437.376" gradientUnits="userSpaceOnUse">
<stop stop-color="#01C7ED"/>
<stop offset="1" stop-color="#04F76E"/>
</linearGradient>
<linearGradient id="paint3_linear_1792_13169" x1="623.034" y1="181.64" x2="1167.52" y2="443.459" gradientUnits="userSpaceOnUse">
<stop stop-color="#01C7ED"/>
<stop offset="1" stop-color="#04F76E"/>
</linearGradient>
<linearGradient id="paint4_linear_1792_13169" x1="627.038" y1="187.722" x2="1171.53" y2="449.541" gradientUnits="userSpaceOnUse">
<stop stop-color="#01C7ED"/>
<stop offset="1" stop-color="#04F76E"/>
</linearGradient>
<linearGradient id="paint5_linear_1792_13169" x1="631.042" y1="193.803" x2="1175.53" y2="455.622" gradientUnits="userSpaceOnUse">
<stop stop-color="#01C7ED"/>
<stop offset="1" stop-color="#04F76E"/>
</linearGradient>
<linearGradient id="paint6_linear_1792_13169" x1="635.046" y1="199.885" x2="1179.54" y2="461.704" gradientUnits="userSpaceOnUse">
<stop stop-color="#01C7ED"/>
<stop offset="1" stop-color="#04F76E"/>
</linearGradient>
<linearGradient id="paint7_linear_1792_13169" x1="639.048" y1="205.967" x2="1183.54" y2="467.786" gradientUnits="userSpaceOnUse">
<stop stop-color="#01C7ED"/>
<stop offset="1" stop-color="#04F76E"/>
</linearGradient>
<linearGradient id="paint8_linear_1792_13169" x1="643.052" y1="212.05" x2="1187.54" y2="473.869" gradientUnits="userSpaceOnUse">
<stop stop-color="#01C7ED"/>
<stop offset="1" stop-color="#04F76E"/>
</linearGradient>
<linearGradient id="paint9_linear_1792_13169" x1="647.056" y1="218.131" x2="1191.55" y2="479.95" gradientUnits="userSpaceOnUse">
<stop stop-color="#01C7ED"/>
<stop offset="1" stop-color="#04F76E"/>
</linearGradient>
<linearGradient id="paint10_linear_1792_13169" x1="651.06" y1="224.213" x2="1195.55" y2="486.032" gradientUnits="userSpaceOnUse">
<stop stop-color="#01C7ED"/>
<stop offset="1" stop-color="#04F76E"/>
</linearGradient>
<linearGradient id="paint11_linear_1792_13169" x1="655.062" y1="230.295" x2="1199.55" y2="492.114" gradientUnits="userSpaceOnUse">
<stop stop-color="#01C7ED"/>
<stop offset="1" stop-color="#04F76E"/>
</linearGradient>
<linearGradient id="paint12_linear_1792_13169" x1="659.065" y1="236.376" x2="1203.56" y2="498.196" gradientUnits="userSpaceOnUse">
<stop stop-color="#01C7ED"/>
<stop offset="1" stop-color="#04F76E"/>
</linearGradient>
<linearGradient id="paint13_linear_1792_13169" x1="663.069" y1="242.459" x2="1207.56" y2="504.279" gradientUnits="userSpaceOnUse">
<stop stop-color="#01C7ED"/>
<stop offset="1" stop-color="#04F76E"/>
</linearGradient>
<linearGradient id="paint14_linear_1792_13169" x1="667.073" y1="248.541" x2="1211.56" y2="510.36" gradientUnits="userSpaceOnUse">
<stop stop-color="#01C7ED"/>
<stop offset="1" stop-color="#04F76E"/>
</linearGradient>
<linearGradient id="paint15_linear_1792_13169" x1="671.077" y1="254.622" x2="1215.57" y2="516.442" gradientUnits="userSpaceOnUse">
<stop stop-color="#01C7ED"/>
<stop offset="1" stop-color="#04F76E"/>
</linearGradient>
<linearGradient id="paint16_linear_1792_13169" x1="675.079" y1="260.704" x2="1219.57" y2="522.524" gradientUnits="userSpaceOnUse">
<stop stop-color="#01C7ED"/>
<stop offset="1" stop-color="#04F76E"/>
</linearGradient>
<linearGradient id="paint17_linear_1792_13169" x1="679.083" y1="266.786" x2="1223.57" y2="528.606" gradientUnits="userSpaceOnUse">
<stop stop-color="#01C7ED"/>
<stop offset="1" stop-color="#04F76E"/>
</linearGradient>
<linearGradient id="paint18_linear_1792_13169" x1="683.087" y1="272.869" x2="1227.58" y2="534.689" gradientUnits="userSpaceOnUse">
<stop stop-color="#01C7ED"/>
<stop offset="1" stop-color="#04F76E"/>
</linearGradient>
<linearGradient id="paint19_linear_1792_13169" x1="687.091" y1="278.95" x2="1231.58" y2="540.77" gradientUnits="userSpaceOnUse">
<stop stop-color="#01C7ED"/>
<stop offset="1" stop-color="#04F76E"/>
</linearGradient>
<linearGradient id="paint20_linear_1792_13169" x1="691.095" y1="285.032" x2="1235.58" y2="546.852" gradientUnits="userSpaceOnUse">
<stop stop-color="#01C7ED"/>
<stop offset="1" stop-color="#04F76E"/>
</linearGradient>
<linearGradient id="paint21_linear_1792_13169" x1="695.097" y1="291.114" x2="1239.59" y2="552.934" gradientUnits="userSpaceOnUse">
<stop stop-color="#01C7ED"/>
<stop offset="1" stop-color="#04F76E"/>
</linearGradient>
<linearGradient id="paint22_linear_1792_13169" x1="699.101" y1="297.195" x2="1243.59" y2="559.015" gradientUnits="userSpaceOnUse">
<stop stop-color="#01C7ED"/>
<stop offset="1" stop-color="#04F76E"/>
</linearGradient>
<linearGradient id="paint23_linear_1792_13169" x1="703.105" y1="303.277" x2="1247.59" y2="565.097" gradientUnits="userSpaceOnUse">
<stop stop-color="#01C7ED"/>
<stop offset="1" stop-color="#04F76E"/>
</linearGradient>
<linearGradient id="paint24_linear_1792_13169" x1="707.108" y1="309.36" x2="1251.6" y2="571.18" gradientUnits="userSpaceOnUse">
<stop stop-color="#01C7ED"/>
<stop offset="1" stop-color="#04F76E"/>
</linearGradient>
<linearGradient id="paint25_linear_1792_13169" x1="711.112" y1="315.442" x2="1255.6" y2="577.262" gradientUnits="userSpaceOnUse">
<stop stop-color="#01C7ED"/>
<stop offset="1" stop-color="#04F76E"/>
</linearGradient>
<linearGradient id="paint26_linear_1792_13169" x1="715.114" y1="321.524" x2="1259.6" y2="583.343" gradientUnits="userSpaceOnUse">
<stop stop-color="#01C7ED"/>
<stop offset="1" stop-color="#04F76E"/>
</linearGradient>
<linearGradient id="paint27_linear_1792_13169" x1="719.118" y1="327.605" x2="1263.61" y2="589.425" gradientUnits="userSpaceOnUse">
<stop stop-color="#01C7ED"/>
<stop offset="1" stop-color="#04F76E"/>
</linearGradient>
<linearGradient id="paint28_linear_1792_13169" x1="723.122" y1="333.686" x2="1267.61" y2="595.506" gradientUnits="userSpaceOnUse">
<stop stop-color="#01C7ED"/>
<stop offset="1" stop-color="#04F76E"/>
</linearGradient>
<clipPath id="clip0_1792_13169">
<rect width="1440" height="723" fill="white" transform="translate(-0.5 -0.582031)"/>
</clipPath>
</defs>
</svg>
