<svg width="1440" height="710" viewBox="0 0 1440 710" fill="none" xmlns="http://www.w3.org/2000/svg">
<g clip-path="url(#clip0_1784_2605)">
<rect width="1440" height="710" fill="#0D151E"/>
<g opacity="0.2" clip-path="url(#clip1_1784_2605)">
<path d="M1875.26 575.5C1875.26 575.5 1247.19 508.214 938.74 234.685C523.935 -133.161 -156.445 76.0537 -90.4789 209.74" stroke="url(#paint0_linear_1784_2605)" stroke-width="1.25299"/>
<path d="M1872.07 580.176C1872.07 580.176 1244.01 512.89 935.557 239.361C520.751 -128.485 -159.628 80.7298 -93.6625 214.416" stroke="url(#paint1_linear_1784_2605)" stroke-width="1.25299"/>
<path d="M1868.89 584.852C1868.89 584.852 1240.82 517.566 932.373 244.036C517.567 -123.809 -162.812 85.4055 -96.8461 219.092" stroke="url(#paint2_linear_1784_2605)" stroke-width="1.25299"/>
<path d="M1865.71 589.528C1865.71 589.528 1237.64 522.242 929.19 248.712C514.384 -119.133 -165.996 90.0816 -100.03 223.768" stroke="url(#paint3_linear_1784_2605)" stroke-width="1.25299"/>
<path d="M1862.52 594.204C1862.52 594.204 1234.46 526.918 926.006 253.389C511.2 -114.457 -169.179 94.7576 -103.213 228.444" stroke="url(#paint4_linear_1784_2605)" stroke-width="1.25299"/>
<path d="M1859.34 598.88C1859.34 598.88 1231.27 531.594 922.822 258.065C508.017 -109.781 -172.363 99.4336 -106.397 233.12" stroke="url(#paint5_linear_1784_2605)" stroke-width="1.25299"/>
<path d="M1856.15 603.556C1856.15 603.556 1228.09 536.27 919.639 262.74C504.833 -105.105 -175.546 104.109 -109.581 237.796" stroke="url(#paint6_linear_1784_2605)" stroke-width="1.25299"/>
<path d="M1852.97 608.232C1852.97 608.232 1224.9 540.946 916.455 267.416C501.649 -100.429 -178.73 108.785 -112.764 242.472" stroke="url(#paint7_linear_1784_2605)" stroke-width="1.25299"/>
<path d="M1849.79 612.908C1849.79 612.908 1221.72 545.622 913.272 272.092C498.466 -95.7533 -181.914 113.461 -115.948 247.148" stroke="url(#paint8_linear_1784_2605)" stroke-width="1.25299"/>
<path d="M1846.6 617.584C1846.6 617.584 1218.54 550.298 910.088 276.768C495.282 -91.0773 -185.097 118.137 -119.131 251.824" stroke="url(#paint9_linear_1784_2605)" stroke-width="1.25299"/>
<path d="M1843.42 622.26C1843.42 622.26 1215.35 554.974 906.904 281.444C492.099 -86.4015 -188.281 122.813 -122.315 256.5" stroke="url(#paint10_linear_1784_2605)" stroke-width="1.25299"/>
<path d="M1840.24 626.936C1840.24 626.936 1212.17 559.65 903.721 286.12C488.915 -81.7255 -191.464 127.489 -125.498 261.176" stroke="url(#paint11_linear_1784_2605)" stroke-width="1.25299"/>
<path d="M1837.05 631.612C1837.05 631.612 1208.99 564.326 900.537 290.796C485.732 -77.0495 -194.648 132.165 -128.682 265.852" stroke="url(#paint12_linear_1784_2605)" stroke-width="1.25299"/>
<path d="M1833.87 636.287C1833.87 636.287 1205.8 569.002 897.354 295.472C482.548 -72.3737 -197.832 136.841 -131.866 270.528" stroke="url(#paint13_linear_1784_2605)" stroke-width="1.25299"/>
<path d="M1830.69 640.963C1830.69 640.963 1202.62 573.678 894.17 300.148C479.364 -67.6977 -201.015 141.517 -135.049 275.204" stroke="url(#paint14_linear_1784_2605)" stroke-width="1.25299"/>
<path d="M1827.5 645.639C1827.5 645.639 1199.44 578.354 890.986 304.824C476.181 -63.0216 -204.199 146.193 -138.233 279.88" stroke="url(#paint15_linear_1784_2605)" stroke-width="1.25299"/>
<path d="M1824.32 650.315C1824.32 650.315 1196.25 583.03 887.803 309.5C472.997 -58.3456 -207.382 150.869 -141.416 284.556" stroke="url(#paint16_linear_1784_2605)" stroke-width="1.25299"/>
<path d="M1821.13 654.991C1821.13 654.991 1193.07 587.706 884.619 314.176C469.814 -53.6698 -210.566 155.545 -144.6 289.232" stroke="url(#paint17_linear_1784_2605)" stroke-width="1.25299"/>
<path d="M1817.95 659.667C1817.95 659.667 1189.88 592.382 881.436 318.852C466.63 -48.9938 -213.749 160.221 -147.784 293.908" stroke="url(#paint18_linear_1784_2605)" stroke-width="1.25299"/>
<path d="M1814.77 664.343C1814.77 664.343 1186.7 597.058 878.252 323.528C463.446 -44.3178 -216.933 164.897 -150.967 298.584" stroke="url(#paint19_linear_1784_2605)" stroke-width="1.25299"/>
<path opacity="0.9" d="M1811.58 669.019C1811.58 669.019 1183.52 601.734 875.068 328.204C460.263 -39.6417 -220.117 169.573 -154.151 303.26" stroke="url(#paint20_linear_1784_2605)" stroke-width="1.25299"/>
<path opacity="0.8" d="M1808.4 673.695C1808.4 673.695 1180.33 606.409 871.885 332.88C457.079 -34.966 -223.3 174.249 -157.334 307.935" stroke="url(#paint21_linear_1784_2605)" stroke-width="1.25299"/>
<path opacity="0.7" d="M1805.22 678.371C1805.22 678.371 1177.15 611.085 868.701 337.556C453.896 -30.2899 -226.484 178.925 -160.518 312.611" stroke="url(#paint22_linear_1784_2605)" stroke-width="1.25299"/>
<path opacity="0.6" d="M1802.03 683.047C1802.03 683.047 1173.96 615.761 865.516 342.232C450.71 -25.6139 -229.669 183.601 -163.704 317.287" stroke="url(#paint23_linear_1784_2605)" stroke-width="1.25299"/>
<path opacity="0.5" d="M1798.85 687.723C1798.85 687.723 1170.78 620.437 862.332 346.908C447.526 -20.9381 -232.853 188.277 -166.887 321.963" stroke="url(#paint24_linear_1784_2605)" stroke-width="1.25299"/>
<path opacity="0.4" d="M1795.67 692.399C1795.67 692.399 1167.6 625.113 859.151 351.584C444.345 -16.2621 -236.035 192.953 -170.069 326.639" stroke="url(#paint25_linear_1784_2605)" stroke-width="1.25299"/>
<path opacity="0.3" d="M1792.48 697.075C1792.48 697.075 1164.41 629.789 855.965 356.26C441.159 -11.5861 -239.22 197.629 -173.254 331.315" stroke="url(#paint26_linear_1784_2605)" stroke-width="1.25299"/>
<path opacity="0.2" d="M1789.3 701.751C1789.3 701.751 1161.23 634.465 852.781 360.936C437.976 -6.91006 -242.404 202.305 -176.438 335.991" stroke="url(#paint27_linear_1784_2605)" stroke-width="1.25299"/>
<path opacity="0.1" d="M1786.11 706.427C1786.11 706.427 1158.05 639.141 849.598 365.611C434.792 -2.23427 -245.587 206.98 -179.622 340.667" stroke="url(#paint28_linear_1784_2605)" stroke-width="1.25299"/>
</g>
</g>
<defs>
<linearGradient id="paint0_linear_1784_2605" x1="528.274" y1="1281.46" x2="192.094" y2="699.175" gradientUnits="userSpaceOnUse">
<stop stop-color="#01C7ED"/>
<stop offset="1" stop-color="#04F76E"/>
</linearGradient>
<linearGradient id="paint1_linear_1784_2605" x1="525.091" y1="1286.13" x2="188.911" y2="703.851" gradientUnits="userSpaceOnUse">
<stop stop-color="#01C7ED"/>
<stop offset="1" stop-color="#04F76E"/>
</linearGradient>
<linearGradient id="paint2_linear_1784_2605" x1="521.907" y1="1290.81" x2="185.727" y2="708.526" gradientUnits="userSpaceOnUse">
<stop stop-color="#01C7ED"/>
<stop offset="1" stop-color="#04F76E"/>
</linearGradient>
<linearGradient id="paint3_linear_1784_2605" x1="518.724" y1="1295.48" x2="182.544" y2="713.202" gradientUnits="userSpaceOnUse">
<stop stop-color="#01C7ED"/>
<stop offset="1" stop-color="#04F76E"/>
</linearGradient>
<linearGradient id="paint4_linear_1784_2605" x1="515.54" y1="1300.16" x2="179.36" y2="717.878" gradientUnits="userSpaceOnUse">
<stop stop-color="#01C7ED"/>
<stop offset="1" stop-color="#04F76E"/>
</linearGradient>
<linearGradient id="paint5_linear_1784_2605" x1="512.357" y1="1304.84" x2="176.177" y2="722.554" gradientUnits="userSpaceOnUse">
<stop stop-color="#01C7ED"/>
<stop offset="1" stop-color="#04F76E"/>
</linearGradient>
<linearGradient id="paint6_linear_1784_2605" x1="509.173" y1="1309.51" x2="172.993" y2="727.23" gradientUnits="userSpaceOnUse">
<stop stop-color="#01C7ED"/>
<stop offset="1" stop-color="#04F76E"/>
</linearGradient>
<linearGradient id="paint7_linear_1784_2605" x1="505.989" y1="1314.19" x2="169.809" y2="731.906" gradientUnits="userSpaceOnUse">
<stop stop-color="#01C7ED"/>
<stop offset="1" stop-color="#04F76E"/>
</linearGradient>
<linearGradient id="paint8_linear_1784_2605" x1="502.806" y1="1318.86" x2="166.626" y2="736.582" gradientUnits="userSpaceOnUse">
<stop stop-color="#01C7ED"/>
<stop offset="1" stop-color="#04F76E"/>
</linearGradient>
<linearGradient id="paint9_linear_1784_2605" x1="499.622" y1="1323.54" x2="163.442" y2="741.258" gradientUnits="userSpaceOnUse">
<stop stop-color="#01C7ED"/>
<stop offset="1" stop-color="#04F76E"/>
</linearGradient>
<linearGradient id="paint10_linear_1784_2605" x1="496.439" y1="1328.21" x2="160.259" y2="745.934" gradientUnits="userSpaceOnUse">
<stop stop-color="#01C7ED"/>
<stop offset="1" stop-color="#04F76E"/>
</linearGradient>
<linearGradient id="paint11_linear_1784_2605" x1="493.255" y1="1332.89" x2="157.075" y2="750.61" gradientUnits="userSpaceOnUse">
<stop stop-color="#01C7ED"/>
<stop offset="1" stop-color="#04F76E"/>
</linearGradient>
<linearGradient id="paint12_linear_1784_2605" x1="490.071" y1="1337.57" x2="153.891" y2="755.286" gradientUnits="userSpaceOnUse">
<stop stop-color="#01C7ED"/>
<stop offset="1" stop-color="#04F76E"/>
</linearGradient>
<linearGradient id="paint13_linear_1784_2605" x1="486.888" y1="1342.24" x2="150.708" y2="759.962" gradientUnits="userSpaceOnUse">
<stop stop-color="#01C7ED"/>
<stop offset="1" stop-color="#04F76E"/>
</linearGradient>
<linearGradient id="paint14_linear_1784_2605" x1="483.704" y1="1346.92" x2="147.524" y2="764.638" gradientUnits="userSpaceOnUse">
<stop stop-color="#01C7ED"/>
<stop offset="1" stop-color="#04F76E"/>
</linearGradient>
<linearGradient id="paint15_linear_1784_2605" x1="480.521" y1="1351.59" x2="144.341" y2="769.314" gradientUnits="userSpaceOnUse">
<stop stop-color="#01C7ED"/>
<stop offset="1" stop-color="#04F76E"/>
</linearGradient>
<linearGradient id="paint16_linear_1784_2605" x1="477.337" y1="1356.27" x2="141.157" y2="773.99" gradientUnits="userSpaceOnUse">
<stop stop-color="#01C7ED"/>
<stop offset="1" stop-color="#04F76E"/>
</linearGradient>
<linearGradient id="paint17_linear_1784_2605" x1="474.153" y1="1360.95" x2="137.973" y2="778.666" gradientUnits="userSpaceOnUse">
<stop stop-color="#01C7ED"/>
<stop offset="1" stop-color="#04F76E"/>
</linearGradient>
<linearGradient id="paint18_linear_1784_2605" x1="470.97" y1="1365.62" x2="134.79" y2="783.342" gradientUnits="userSpaceOnUse">
<stop stop-color="#01C7ED"/>
<stop offset="1" stop-color="#04F76E"/>
</linearGradient>
<linearGradient id="paint19_linear_1784_2605" x1="467.786" y1="1370.3" x2="131.606" y2="788.018" gradientUnits="userSpaceOnUse">
<stop stop-color="#01C7ED"/>
<stop offset="1" stop-color="#04F76E"/>
</linearGradient>
<linearGradient id="paint20_linear_1784_2605" x1="464.603" y1="1374.97" x2="128.423" y2="792.694" gradientUnits="userSpaceOnUse">
<stop stop-color="#01C7ED"/>
<stop offset="1" stop-color="#04F76E"/>
</linearGradient>
<linearGradient id="paint21_linear_1784_2605" x1="461.419" y1="1379.65" x2="125.239" y2="797.37" gradientUnits="userSpaceOnUse">
<stop stop-color="#01C7ED"/>
<stop offset="1" stop-color="#04F76E"/>
</linearGradient>
<linearGradient id="paint22_linear_1784_2605" x1="458.235" y1="1384.33" x2="122.055" y2="802.046" gradientUnits="userSpaceOnUse">
<stop stop-color="#01C7ED"/>
<stop offset="1" stop-color="#04F76E"/>
</linearGradient>
<linearGradient id="paint23_linear_1784_2605" x1="455.05" y1="1389" x2="118.87" y2="806.722" gradientUnits="userSpaceOnUse">
<stop stop-color="#01C7ED"/>
<stop offset="1" stop-color="#04F76E"/>
</linearGradient>
<linearGradient id="paint24_linear_1784_2605" x1="451.866" y1="1393.68" x2="115.686" y2="811.397" gradientUnits="userSpaceOnUse">
<stop stop-color="#01C7ED"/>
<stop offset="1" stop-color="#04F76E"/>
</linearGradient>
<linearGradient id="paint25_linear_1784_2605" x1="448.685" y1="1398.35" x2="112.505" y2="816.073" gradientUnits="userSpaceOnUse">
<stop stop-color="#01C7ED"/>
<stop offset="1" stop-color="#04F76E"/>
</linearGradient>
<linearGradient id="paint26_linear_1784_2605" x1="445.499" y1="1403.03" x2="109.319" y2="820.75" gradientUnits="userSpaceOnUse">
<stop stop-color="#01C7ED"/>
<stop offset="1" stop-color="#04F76E"/>
</linearGradient>
<linearGradient id="paint27_linear_1784_2605" x1="442.315" y1="1407.71" x2="106.136" y2="825.426" gradientUnits="userSpaceOnUse">
<stop stop-color="#01C7ED"/>
<stop offset="1" stop-color="#04F76E"/>
</linearGradient>
<linearGradient id="paint28_linear_1784_2605" x1="439.132" y1="1412.38" x2="102.952" y2="830.101" gradientUnits="userSpaceOnUse">
<stop stop-color="#01C7ED"/>
<stop offset="1" stop-color="#04F76E"/>
</linearGradient>
<clipPath id="clip0_1784_2605">
<rect width="1440" height="710" fill="white"/>
</clipPath>
<clipPath id="clip1_1784_2605">
<rect width="1395.99" height="1458.81" fill="white" transform="matrix(-0.5 -0.866025 -0.866025 0.5 1875.26 575.5)"/>
</clipPath>
</defs>
</svg>
