<svg fill="none" height="64" viewBox="0 0 1601 64" width="1601" xmlns="http://www.w3.org/2000/svg" xmlns:xlink="http://www.w3.org/1999/xlink"><linearGradient id="a"><stop offset="0" stop-color="#01c7ed"/><stop offset="1" stop-color="#04f76e"/></linearGradient><linearGradient id="b" gradientUnits="userSpaceOnUse" x1="1378.8" x2="1316.67" xlink:href="#a" y1="33.227" y2="33.227"/><linearGradient id="c" gradientUnits="userSpaceOnUse" x1="1596.41" x2="1551.68" xlink:href="#a" y1="33.227" y2="33.227"/><linearGradient id="d" gradientUnits="userSpaceOnUse" x1="1586.31" x2="1583.83" xlink:href="#a" y1="28.0277" y2="28.0277"/><linearGradient id="e" gradientUnits="userSpaceOnUse" x1="1487.27" x2="1484.29" xlink:href="#a" y1="33.227" y2="33.227"/><linearGradient id="f" gradientUnits="userSpaceOnUse" x1="1529.31" x2="1526.83" xlink:href="#a" y1="38.4262" y2="38.4262"/><linearGradient id="g" gradientUnits="userSpaceOnUse" x1="1543.31" x2="1540.83" xlink:href="#a" y1="38.4262" y2="38.4262"/><linearGradient id="h" gradientUnits="userSpaceOnUse" x1="1559.22" x2="1555.74" xlink:href="#a" y1="38.4262" y2="38.4262"/><linearGradient id="i" gradientUnits="userSpaceOnUse" x1="1478.31" x2="1475.83" xlink:href="#a" y1="28.0277" y2="28.0277"/><linearGradient id="j" gradientUnits="userSpaceOnUse" x1="1365.18" x2="1361.2" xlink:href="#a" y1="28.0277" y2="28.0277"/><linearGradient id="k" gradientUnits="userSpaceOnUse" x1="1413.31" x2="1410.83" xlink:href="#a" y1="33.227" y2="33.227"/><linearGradient id="l" gradientUnits="userSpaceOnUse" x1="1331.44" x2="1319.51" xlink:href="#a" y1="38.4262" y2="38.4262"/><linearGradient id="m" gradientUnits="userSpaceOnUse" x1="1373.31" x2="1370.83" xlink:href="#a" y1="38.4262" y2="38.4262"/><linearGradient id="n" gradientUnits="userSpaceOnUse" x1="1387.36" x2="1385.37" xlink:href="#a" y1="38.4262" y2="38.4262"/><linearGradient id="o" gradientUnits="userSpaceOnUse" x1="1346.27" x2="1343.29" xlink:href="#a" y1="38.4262" y2="38.4262"/><linearGradient id="p" gradientUnits="userSpaceOnUse" x1="1283.22" x2="1279.74" xlink:href="#a" y1="38.4262" y2="38.4262"/><linearGradient id="q" gradientUnits="userSpaceOnUse" x1="1523.53" x2="1512.6" xlink:href="#a" y1="28.0277" y2="28.0277"/><linearGradient id="r" gradientUnits="userSpaceOnUse" x1="1599.07" x2="1583.17" xlink:href="#a" y1="38.4262" y2="38.4262"/><clipPath id="s"><path d="m0 0h341v14h-341z" transform="matrix(-1 0 0 1 1600.54 25)"/></clipPath><g clip-path="url(#s)"><path d="m1423.84 30.877h20.4c.58 0 1.05.4701 1.05 1.05 0 .5799-.47 1.05-1.05 1.05h-20.4c-.58 0-1.05-.4701-1.05-1.05s.47-1.05 1.05-1.05z" fill="#99f3ff"/><path d="m1444.24 30.877h-20.4c-.58 0-1.05.4701-1.05 1.05 0 .5799.47 1.05 1.05 1.05h20.4c.58 0 1.05-.4701 1.05-1.05 0-.5799-.47-1.05-1.05-1.05z" stroke="#061178" stroke-width=".5"/><path d="m1260.84 30.877h122.4c.58 0 1.05.4701 1.05 1.05 0 .5799-.47 1.05-1.05 1.05h-122.4c-.58 0-1.05-.4701-1.05-1.05s.47-1.05 1.05-1.05z" fill="url(#b)"/><path d="m1383.24 30.877h-122.4c-.58 0-1.05.4701-1.05 1.05 0 .5799.47 1.05 1.05 1.05h122.4c.58 0 1.05-.4701 1.05-1.05 0-.5799-.47-1.05-1.05-1.05z" stroke="#061178" stroke-width=".5"/><path d="m1534.84 25.6777h35.4c.58 0 1.05.4701 1.05 1.05 0 .5799-.47 1.05-1.05 1.05h-35.4c-.58 0-1.05-.4701-1.05-1.05s.47-1.05 1.05-1.05z" fill="#ed7cff"/><path d="m1570.24 25.6777h-35.4c-.58 0-1.05.4701-1.05 1.05 0 .5799.47 1.05 1.05 1.05h35.4c.58 0 1.05-.4701 1.05-1.05 0-.5799-.47-1.05-1.05-1.05z" stroke="#061178" stroke-width=".5"/><path d="m1374.84 25.6777h88.4c.58 0 1.05.4701 1.05 1.05 0 .5799-.47 1.05-1.05 1.05h-88.4c-.58 0-1.05-.4701-1.05-1.05s.47-1.05 1.05-1.05z" fill="#99f3ff"/><path d="m1463.24 25.6777h-88.4c-.58 0-1.05.4701-1.05 1.05 0 .5799.47 1.05 1.05 1.05h88.4c.58 0 1.05-.4701 1.05-1.05 0-.5799-.47-1.05-1.05-1.05z" stroke="#061178" stroke-width=".5"/><path d="m1511.84 30.877h87.4c.58 0 1.05.4701 1.05 1.05 0 .5799-.47 1.05-1.05 1.05h-87.4c-.58 0-1.05-.4701-1.05-1.05s.47-1.05 1.05-1.05z" fill="url(#c)"/><g stroke="#061178" stroke-width=".5"><path d="m1599.24 30.877h-87.4c-.58 0-1.05.4701-1.05 1.05 0 .5799.47 1.05 1.05 1.05h87.4c.58 0 1.05-.4701 1.05-1.05 0-.5799-.47-1.05-1.05-1.05z"/><path d="m1582.84 25.6777h2.4c.58 0 1.05.4701 1.05 1.05 0 .5799-.47 1.05-1.05 1.05h-2.4c-.58 0-1.05-.4701-1.05-1.05 0-.5799.47-1.05 1.05-1.05z" fill="url(#d)"/><path d="m1596.84 25.6777h2.4c.58 0 1.05.4701 1.05 1.05 0 .5799-.47 1.05-1.05 1.05h-2.4c-.58 0-1.05-.4701-1.05-1.05 0-.5799.47-1.05 1.05-1.05z" fill="#ed7cff"/><path d="m1482.84 30.877h3.4c.58 0 1.05.4701 1.05 1.05 0 .5799-.47 1.05-1.05 1.05h-3.4c-.58 0-1.05-.4701-1.05-1.05 0-.5799.47-1.05 1.05-1.05z" fill="url(#e)"/><path d="m1496.84 30.877h2.4c.58 0 1.05.4701 1.05 1.05 0 .5799-.47 1.05-1.05 1.05h-2.4c-.58 0-1.05-.4701-1.05-1.05 0-.5799.47-1.05 1.05-1.05z" fill="#ed7cff"/><path d="m1455.84 30.877h2.4c.58 0 1.05.4701 1.05 1.05 0 .5799-.47 1.05-1.05 1.05h-2.4c-.58 0-1.05-.4701-1.05-1.05 0-.5799.47-1.05 1.05-1.05z" fill="#ed7cff"/><path d="m1469.84 30.877h2.4c.58 0 1.05.4701 1.05 1.05 0 .5799-.47 1.05-1.05 1.05h-2.4c-.58 0-1.05-.4701-1.05-1.05 0-.5799.47-1.05 1.05-1.05z" fill="#ed7cff"/><path d="m1525.84 36.0762h2.4c.58 0 1.05.4701 1.05 1.05 0 .5799-.47 1.05-1.05 1.05h-2.4c-.58 0-1.05-.4701-1.05-1.05 0-.5799.47-1.05 1.05-1.05z" fill="url(#f)"/><path d="m1539.84 36.0762h2.4c.58 0 1.05.4701 1.05 1.05 0 .5799-.47 1.05-1.05 1.05h-2.4c-.58 0-1.05-.4701-1.05-1.05 0-.5799.47-1.05 1.05-1.05z" fill="url(#g)"/><path d="m1553.84 36.0762h4.4c.58 0 1.05.4701 1.05 1.05 0 .5799-.47 1.05-1.05 1.05h-4.4c-.58 0-1.05-.4701-1.05-1.05 0-.5799.47-1.05 1.05-1.05z" fill="url(#h)"/><path d="m1496.84 36.0762h2.4c.58 0 1.05.4701 1.05 1.05 0 .5799-.47 1.05-1.05 1.05h-2.4c-.58 0-1.05-.4701-1.05-1.05 0-.5799.47-1.05 1.05-1.05z" fill="#ed7cff"/><path d="m1511.84 36.0762h1.4c.58 0 1.05.4701 1.05 1.05 0 .5799-.47 1.05-1.05 1.05h-1.4c-.58 0-1.05-.4701-1.05-1.05 0-.5799.47-1.05 1.05-1.05z" fill="#ed7cff"/><path d="m1474.84 25.6777h2.4c.58 0 1.05.4701 1.05 1.05 0 .5799-.47 1.05-1.05 1.05h-2.4c-.58 0-1.05-.4701-1.05-1.05 0-.5799.47-1.05 1.05-1.05z" fill="url(#i)"/><path d="m1358.84 25.6777h5.4c.58 0 1.05.4701 1.05 1.05 0 .5799-.47 1.05-1.05 1.05h-5.4c-.58 0-1.05-.4701-1.05-1.05 0-.5799.47-1.05 1.05-1.05z" fill="url(#j)"/><path d="m1488.84 25.6777h2.4c.58 0 1.05.4701 1.05 1.05 0 .5799-.47 1.05-1.05 1.05h-2.4c-.58 0-1.05-.4701-1.05-1.05 0-.5799.47-1.05 1.05-1.05z" fill="#ed7cff"/><path d="m1395.84 30.877h2.4c.58 0 1.05.4701 1.05 1.05 0 .5799-.47 1.05-1.05 1.05h-2.4c-.58 0-1.05-.4701-1.05-1.05 0-.5799.47-1.05 1.05-1.05z" fill="#ed7cff"/><path d="m1409.84 30.877h2.4c.58 0 1.05.4701 1.05 1.05 0 .5799-.47 1.05-1.05 1.05h-2.4c-.58 0-1.05-.4701-1.05-1.05 0-.5799.47-1.05 1.05-1.05z" fill="url(#k)"/></g><path d="m1309.84 36.0762h21.4c.58 0 1.05.4701 1.05 1.05 0 .5799-.47 1.05-1.05 1.05h-21.4c-.58 0-1.05-.4701-1.05-1.05s.47-1.05 1.05-1.05z" fill="url(#l)"/><path d="m1331.24 36.0762h-21.4c-.58 0-1.05.4701-1.05 1.05 0 .5799.47 1.05 1.05 1.05h21.4c.58 0 1.05-.4701 1.05-1.05 0-.5799-.47-1.05-1.05-1.05z" stroke="#061178" stroke-width=".5"/><path d="m1398.84 36.0762h87.4c.58 0 1.05.4701 1.05 1.05 0 .5799-.47 1.05-1.05 1.05h-87.4c-.58 0-1.05-.4701-1.05-1.05s.47-1.05 1.05-1.05z" fill="#99f3ff"/><path d="m1486.24 36.0762h-87.4c-.58 0-1.05.4701-1.05 1.05 0 .5799.47 1.05 1.05 1.05h87.4c.58 0 1.05-.4701 1.05-1.05 0-.5799-.47-1.05-1.05-1.05z" stroke="#061178" stroke-width=".5"/><path d="m1369.84 36.0762h2.4c.58 0 1.05.4701 1.05 1.05 0 .5799-.47 1.05-1.05 1.05h-2.4c-.58 0-1.05-.4701-1.05-1.05 0-.5799.47-1.05 1.05-1.05z" fill="url(#m)" stroke="#061178" stroke-width=".5"/><path d="m1384.84 36.0762h1.4c.58 0 1.05.4701 1.05 1.05 0 .5799-.47 1.05-1.05 1.05h-1.4c-.58 0-1.05-.4701-1.05-1.05 0-.5799.47-1.05 1.05-1.05z" fill="url(#n)" stroke="#061178" stroke-width=".5"/><path d="m1341.84 36.0762h3.4c.58 0 1.05.4701 1.05 1.05 0 .5799-.47 1.05-1.05 1.05h-3.4c-.58 0-1.05-.4701-1.05-1.05 0-.5799.47-1.05 1.05-1.05z" fill="url(#o)" stroke="#061178" stroke-width=".5"/><path d="m1355.84 36.0762h2.4c.58 0 1.05.4701 1.05 1.05 0 .5799-.47 1.05-1.05 1.05h-2.4c-.58 0-1.05-.4701-1.05-1.05 0-.5799.47-1.05 1.05-1.05z" fill="#ed7cff" stroke="#061178" stroke-width=".5"/><path d="m1277.84 36.0762h4.4c.58 0 1.05.4701 1.05 1.05 0 .5799-.47 1.05-1.05 1.05h-4.4c-.58 0-1.05-.4701-1.05-1.05 0-.5799.47-1.05 1.05-1.05z" fill="url(#p)" stroke="#061178" stroke-width=".5"/><path d="m1293.84 36.0762h5.4c.58 0 1.05.4701 1.05 1.05 0 .5799-.47 1.05-1.05 1.05h-5.4c-.58 0-1.05-.4701-1.05-1.05 0-.5799.47-1.05 1.05-1.05z" fill="#ed7cff" stroke="#061178" stroke-width=".5"/><path d="m1503.84 25.6777h19.4c.58 0 1.05.4701 1.05 1.05 0 .5799-.47 1.05-1.05 1.05h-19.4c-.58 0-1.05-.4701-1.05-1.05s.47-1.05 1.05-1.05z" fill="url(#q)"/><path d="m1523.24 25.6777h-19.4c-.58 0-1.05.4701-1.05 1.05 0 .5799.47 1.05 1.05 1.05h19.4c.58 0 1.05-.4701 1.05-1.05 0-.5799-.47-1.05-1.05-1.05z" stroke="#061178" stroke-width=".5"/><path d="m1569.84 36.0762h29.4c.58 0 1.05.4701 1.05 1.05 0 .5799-.47 1.05-1.05 1.05h-29.4c-.58 0-1.05-.4701-1.05-1.05s.47-1.05 1.05-1.05z" fill="url(#r)"/><path d="m1599.24 36.0762h-29.4c-.58 0-1.05.4701-1.05 1.05 0 .5799.47 1.05 1.05 1.05h29.4c.58 0 1.05-.4701 1.05-1.05 0-.5799-.47-1.05-1.05-1.05z" stroke="#061178" stroke-width=".5"/></g></svg>