<svg fill="none" height="64" viewBox="0 0 1601 64" width="1601" xmlns="http://www.w3.org/2000/svg" xmlns:xlink="http://www.w3.org/1999/xlink"><linearGradient id="a"><stop offset="0" stop-color="#01c7ed"/><stop offset="1" stop-color="#04f76e"/></linearGradient><linearGradient id="b" gradientUnits="userSpaceOnUse" x1="222.284" x2="284.413" xlink:href="#a" y1="33.227" y2="33.227"/><linearGradient id="c" gradientUnits="userSpaceOnUse" x1="4.67659" x2="49.4096" xlink:href="#a" y1="33.227" y2="33.227"/><linearGradient id="d" gradientUnits="userSpaceOnUse" x1="14.7735" x2="17.2587" xlink:href="#a" y1="28.0277" y2="28.0277"/><linearGradient id="e" gradientUnits="userSpaceOnUse" x1="113.82" x2="116.802" xlink:href="#a" y1="33.227" y2="33.227"/><linearGradient id="f" gradientUnits="userSpaceOnUse" x1="71.7735" x2="74.2587" xlink:href="#a" y1="38.4262" y2="38.4262"/><linearGradient id="g" gradientUnits="userSpaceOnUse" x1="57.7735" x2="60.2587" xlink:href="#a" y1="38.4262" y2="38.4262"/><linearGradient id="h" gradientUnits="userSpaceOnUse" x1="41.8653" x2="45.3446" xlink:href="#a" y1="38.4262" y2="38.4262"/><linearGradient id="i" gradientUnits="userSpaceOnUse" x1="122.774" x2="125.259" xlink:href="#a" y1="28.0277" y2="28.0277"/><linearGradient id="j" gradientUnits="userSpaceOnUse" x1="235.911" x2="239.888" xlink:href="#a" y1="28.0277" y2="28.0277"/><linearGradient id="k" gradientUnits="userSpaceOnUse" x1="187.774" x2="190.259" xlink:href="#a" y1="33.227" y2="33.227"/><linearGradient id="l" gradientUnits="userSpaceOnUse" x1="269.646" x2="281.575" xlink:href="#a" y1="38.4262" y2="38.4262"/><linearGradient id="m" gradientUnits="userSpaceOnUse" x1="227.774" x2="230.259" xlink:href="#a" y1="38.4262" y2="38.4262"/><linearGradient id="n" gradientUnits="userSpaceOnUse" x1="213.728" x2="215.716" xlink:href="#a" y1="38.4262" y2="38.4262"/><linearGradient id="o" gradientUnits="userSpaceOnUse" x1="254.82" x2="257.802" xlink:href="#a" y1="38.4262" y2="38.4262"/><linearGradient id="p" gradientUnits="userSpaceOnUse" x1="317.865" x2="321.345" xlink:href="#a" y1="38.4262" y2="38.4262"/><linearGradient id="q" gradientUnits="userSpaceOnUse" x1="77.5541" x2="88.4888" xlink:href="#a" y1="28.0277" y2="28.0277"/><linearGradient id="r" gradientUnits="userSpaceOnUse" x1="2.01333" x2="17.9184" xlink:href="#a" y1="38.4262" y2="38.4262"/><clipPath id="s"><path d="m.543945 25h341v14h-341z"/></clipPath><g clip-path="url(#s)"><path d="m177.244 30.877h-20.4c-.58 0-1.05.4701-1.05 1.05 0 .5799.47 1.05 1.05 1.05h20.4c.58 0 1.05-.4701 1.05-1.05s-.47-1.05-1.05-1.05z" fill="#99f3ff"/><path d="m156.844 30.877h20.4c.58 0 1.05.4701 1.05 1.05 0 .5799-.47 1.05-1.05 1.05h-20.4c-.58 0-1.05-.4701-1.05-1.05 0-.5799.47-1.05 1.05-1.05z" stroke="#061178" stroke-width=".5"/><path d="m340.244 30.877h-122.4c-.58 0-1.05.4701-1.05 1.05 0 .5799.47 1.05 1.05 1.05h122.4c.58 0 1.05-.4701 1.05-1.05s-.47-1.05-1.05-1.05z" fill="url(#b)"/><path d="m217.844 30.877h122.4c.58 0 1.05.4701 1.05 1.05 0 .5799-.47 1.05-1.05 1.05h-122.4c-.58 0-1.05-.4701-1.05-1.05 0-.5799.47-1.05 1.05-1.05z" stroke="#061178" stroke-width=".5"/><path d="m66.2439 25.6777h-35.4c-.5799 0-1.05.4701-1.05 1.05 0 .5799.4701 1.05 1.05 1.05h35.4c.5799 0 1.05-.4701 1.05-1.05s-.4701-1.05-1.05-1.05z" fill="#ed7cff"/><path d="m30.8439 25.6777h35.4c.5799 0 1.05.4701 1.05 1.05 0 .5799-.4701 1.05-1.05 1.05h-35.4c-.5799 0-1.05-.4701-1.05-1.05 0-.5799.4701-1.05 1.05-1.05z" stroke="#061178" stroke-width=".5"/><path d="m226.244 25.6777h-88.4c-.58 0-1.05.4701-1.05 1.05 0 .5799.47 1.05 1.05 1.05h88.4c.58 0 1.05-.4701 1.05-1.05s-.47-1.05-1.05-1.05z" fill="#99f3ff"/><path d="m137.844 25.6777h88.4c.58 0 1.05.4701 1.05 1.05 0 .5799-.47 1.05-1.05 1.05h-88.4c-.58 0-1.05-.4701-1.05-1.05 0-.5799.47-1.05 1.05-1.05z" stroke="#061178" stroke-width=".5"/><path d="m89.2439 30.877h-87.39995c-.5799 0-1.050005.4701-1.050005 1.05 0 .5799.470105 1.05 1.050005 1.05h87.39995c.5799 0 1.05-.4701 1.05-1.05s-.4701-1.05-1.05-1.05z" fill="url(#c)"/><g stroke="#061178" stroke-width=".5"><path d="m1.84395 30.877h87.39995c.5799 0 1.05.4701 1.05 1.05 0 .5799-.4701 1.05-1.05 1.05h-87.39995c-.5799 0-1.050005-.4701-1.050005-1.05 0-.5799.470105-1.05 1.050005-1.05z"/><path d="m18.2439 25.6777h-2.4c-.5799 0-1.05.4701-1.05 1.05 0 .5799.4701 1.05 1.05 1.05h2.4c.5799 0 1.05-.4701 1.05-1.05 0-.5799-.4701-1.05-1.05-1.05z" fill="url(#d)"/><path d="m4.24395 25.6777h-2.4c-.5799 0-1.050005.4701-1.050005 1.05 0 .5799.470105 1.05 1.050005 1.05h2.4c.57989 0 1.05-.4701 1.05-1.05 0-.5799-.47011-1.05-1.05-1.05z" fill="#ed7cff"/><path d="m118.244 30.877h-3.4c-.58 0-1.05.4701-1.05 1.05 0 .5799.47 1.05 1.05 1.05h3.4c.58 0 1.05-.4701 1.05-1.05 0-.5799-.47-1.05-1.05-1.05z" fill="url(#e)"/><path d="m104.244 30.877h-2.4c-.58 0-1.05.4701-1.05 1.05 0 .5799.47 1.05 1.05 1.05h2.4c.58 0 1.05-.4701 1.05-1.05 0-.5799-.47-1.05-1.05-1.05z" fill="#ed7cff"/><path d="m145.244 30.877h-2.4c-.58 0-1.05.4701-1.05 1.05 0 .5799.47 1.05 1.05 1.05h2.4c.58 0 1.05-.4701 1.05-1.05 0-.5799-.47-1.05-1.05-1.05z" fill="#ed7cff"/><path d="m131.244 30.877h-2.4c-.58 0-1.05.4701-1.05 1.05 0 .5799.47 1.05 1.05 1.05h2.4c.58 0 1.05-.4701 1.05-1.05 0-.5799-.47-1.05-1.05-1.05z" fill="#ed7cff"/><path d="m75.2439 36.0762h-2.4c-.5799 0-1.05.4701-1.05 1.05 0 .5799.4701 1.05 1.05 1.05h2.4c.5799 0 1.05-.4701 1.05-1.05 0-.5799-.4701-1.05-1.05-1.05z" fill="url(#f)"/><path d="m61.2439 36.0762h-2.4c-.5799 0-1.05.4701-1.05 1.05 0 .5799.4701 1.05 1.05 1.05h2.4c.5799 0 1.05-.4701 1.05-1.05 0-.5799-.4701-1.05-1.05-1.05z" fill="url(#g)"/><path d="m47.2439 36.0762h-4.4c-.5799 0-1.05.4701-1.05 1.05 0 .5799.4701 1.05 1.05 1.05h4.4c.5799 0 1.05-.4701 1.05-1.05 0-.5799-.4701-1.05-1.05-1.05z" fill="url(#h)"/><path d="m104.244 36.0762h-2.4c-.58 0-1.05.4701-1.05 1.05 0 .5799.47 1.05 1.05 1.05h2.4c.58 0 1.05-.4701 1.05-1.05 0-.5799-.47-1.05-1.05-1.05z" fill="#ed7cff"/><path d="m89.2439 36.0762h-1.4c-.5799 0-1.05.4701-1.05 1.05 0 .5799.4701 1.05 1.05 1.05h1.4c.5799 0 1.05-.4701 1.05-1.05 0-.5799-.4701-1.05-1.05-1.05z" fill="#ed7cff"/><path d="m126.244 25.6777h-2.4c-.58 0-1.05.4701-1.05 1.05 0 .5799.47 1.05 1.05 1.05h2.4c.58 0 1.05-.4701 1.05-1.05 0-.5799-.47-1.05-1.05-1.05z" fill="url(#i)"/><path d="m242.244 25.6777h-5.4c-.58 0-1.05.4701-1.05 1.05 0 .5799.47 1.05 1.05 1.05h5.4c.58 0 1.05-.4701 1.05-1.05 0-.5799-.47-1.05-1.05-1.05z" fill="url(#j)"/><path d="m112.244 25.6777h-2.4c-.58 0-1.05.4701-1.05 1.05 0 .5799.47 1.05 1.05 1.05h2.4c.58 0 1.05-.4701 1.05-1.05 0-.5799-.47-1.05-1.05-1.05z" fill="#ed7cff"/><path d="m205.244 30.877h-2.4c-.58 0-1.05.4701-1.05 1.05 0 .5799.47 1.05 1.05 1.05h2.4c.58 0 1.05-.4701 1.05-1.05 0-.5799-.47-1.05-1.05-1.05z" fill="#ed7cff"/><path d="m191.244 30.877h-2.4c-.58 0-1.05.4701-1.05 1.05 0 .5799.47 1.05 1.05 1.05h2.4c.58 0 1.05-.4701 1.05-1.05 0-.5799-.47-1.05-1.05-1.05z" fill="url(#k)"/></g><path d="m291.244 36.0762h-21.4c-.58 0-1.05.4701-1.05 1.05 0 .5799.47 1.05 1.05 1.05h21.4c.58 0 1.05-.4701 1.05-1.05s-.47-1.05-1.05-1.05z" fill="url(#l)"/><path d="m269.844 36.0762h21.4c.58 0 1.05.4701 1.05 1.05 0 .5799-.47 1.05-1.05 1.05h-21.4c-.58 0-1.05-.4701-1.05-1.05 0-.5799.47-1.05 1.05-1.05z" stroke="#061178" stroke-width=".5"/><path d="m202.244 36.0762h-87.4c-.58 0-1.05.4701-1.05 1.05 0 .5799.47 1.05 1.05 1.05h87.4c.58 0 1.05-.4701 1.05-1.05s-.47-1.05-1.05-1.05z" fill="#99f3ff"/><path d="m114.844 36.0762h87.4c.58 0 1.05.4701 1.05 1.05 0 .5799-.47 1.05-1.05 1.05h-87.4c-.58 0-1.05-.4701-1.05-1.05 0-.5799.47-1.05 1.05-1.05z" stroke="#061178" stroke-width=".5"/><path d="m231.244 36.0762h-2.4c-.58 0-1.05.4701-1.05 1.05 0 .5799.47 1.05 1.05 1.05h2.4c.58 0 1.05-.4701 1.05-1.05 0-.5799-.47-1.05-1.05-1.05z" fill="url(#m)" stroke="#061178" stroke-width=".5"/><path d="m216.244 36.0762h-1.4c-.58 0-1.05.4701-1.05 1.05 0 .5799.47 1.05 1.05 1.05h1.4c.58 0 1.05-.4701 1.05-1.05 0-.5799-.47-1.05-1.05-1.05z" fill="url(#n)" stroke="#061178" stroke-width=".5"/><path d="m259.244 36.0762h-3.4c-.58 0-1.05.4701-1.05 1.05 0 .5799.47 1.05 1.05 1.05h3.4c.58 0 1.05-.4701 1.05-1.05 0-.5799-.47-1.05-1.05-1.05z" fill="url(#o)" stroke="#061178" stroke-width=".5"/><path d="m245.244 36.0762h-2.4c-.58 0-1.05.4701-1.05 1.05 0 .5799.47 1.05 1.05 1.05h2.4c.58 0 1.05-.4701 1.05-1.05 0-.5799-.47-1.05-1.05-1.05z" fill="#ed7cff" stroke="#061178" stroke-width=".5"/><path d="m323.244 36.0762h-4.4c-.58 0-1.05.4701-1.05 1.05 0 .5799.47 1.05 1.05 1.05h4.4c.58 0 1.05-.4701 1.05-1.05 0-.5799-.47-1.05-1.05-1.05z" fill="url(#p)" stroke="#061178" stroke-width=".5"/><path d="m307.244 36.0762h-5.4c-.58 0-1.05.4701-1.05 1.05 0 .5799.47 1.05 1.05 1.05h5.4c.58 0 1.05-.4701 1.05-1.05 0-.5799-.47-1.05-1.05-1.05z" fill="#ed7cff" stroke="#061178" stroke-width=".5"/><path d="m97.2439 25.6777h-19.4c-.5799 0-1.05.4701-1.05 1.05 0 .5799.4701 1.05 1.05 1.05h19.4c.5799 0 1.05-.4701 1.05-1.05s-.4701-1.05-1.05-1.05z" fill="url(#q)"/><path d="m77.8439 25.6777h19.4c.5799 0 1.05.4701 1.05 1.05 0 .5799-.4701 1.05-1.05 1.05h-19.4c-.5799 0-1.05-.4701-1.05-1.05 0-.5799.4701-1.05 1.05-1.05z" stroke="#061178" stroke-width=".5"/><path d="m31.2439 36.0762h-29.39995c-.5799 0-1.050005.4701-1.050005 1.05 0 .5799.470105 1.05 1.050005 1.05h29.39995c.5799 0 1.05-.4701 1.05-1.05s-.4701-1.05-1.05-1.05z" fill="url(#r)"/><path d="m1.84395 36.0762h29.39995c.5799 0 1.05.4701 1.05 1.05 0 .5799-.4701 1.05-1.05 1.05h-29.39995c-.5799 0-1.050005-.4701-1.050005-1.05 0-.5799.470105-1.05 1.050005-1.05z" stroke="#061178" stroke-width=".5"/></g></svg>