<svg fill="none" height="16" viewBox="0 0 17 16" width="17" xmlns="http://www.w3.org/2000/svg" xmlns:xlink="http://www.w3.org/1999/xlink"><linearGradient id="a" gradientUnits="userSpaceOnUse" x1="2.5" x2="14.5" y1="16.6395" y2="16.6395"><stop offset="0" stop-color="#01c7ed"/><stop offset="1" stop-color="#04f76e"/></linearGradient><clipPath id="b"><path d="m.5 0h16v16h-16z"/></clipPath><g clip-path="url(#b)"><path d="m10.5 7.33398v-4l-2-2-2 2v1.33334h-4v9.33338h12v-6.66672zm-5.33333 5.33332h-1.33334v-1.3333h1.33334zm0-2.6666h-1.33334v-1.33338h1.33334zm0-2.66672h-1.33334v-1.33333h1.33334zm4 5.33332h-1.33334v-1.3333h1.33334zm0-2.6666h-1.33334v-1.33338h1.33334zm0-2.66672h-1.33334v-1.33333h1.33334zm0-2.66666h-1.33334v-1.33334h1.33334zm4.00003 7.99998h-1.3334v-1.3333h1.3334zm0-2.6666h-1.3334v-1.33338h1.3334z" fill="url(#a)"/></g></svg>