<svg fill="none" height="16" viewBox="0 0 17 16" width="17" xmlns="http://www.w3.org/2000/svg" xmlns:xlink="http://www.w3.org/1999/xlink"><linearGradient id="a" gradientUnits="userSpaceOnUse" x1="2.5" x2="14.5" y1="16.7771" y2="16.7771"><stop offset="0" stop-color="#01c7ed"/><stop offset="1" stop-color="#04f76e"/></linearGradient><clipPath id="b"><path d="m.5 0h16v16h-16z"/></clipPath><g clip-path="url(#b)"><path d="m13.1667 1.99935h-.6667v-1.333334h-1.3333v1.333334h-5.33337v-1.333334h-1.33333v1.333334h-.66667c-.73666 0-1.33333.59667-1.33333 1.33333v9.33332c0 .7367.59667 1.3333 1.33333 1.3333h9.33337c.7366 0 1.3333-.5966 1.3333-1.3333v-9.33332c0-.73666-.5967-1.33333-1.3333-1.33333zm-4.6667 2c1.10333 0 2 .89667 2 2 0 1.10667-.89667 2-2 2s-2-.89333-2-2c0-1.10333.89667-2 2-2zm4 7.99995h-8v-.6666c0-1.33335 2.66667-2.06669 4-2.06669s4 .73334 4 2.06669z" fill="url(#a)"/></g></svg>