<svg fill="none" height="16" viewBox="0 0 17 16" width="17" xmlns="http://www.w3.org/2000/svg" xmlns:xlink="http://www.w3.org/1999/xlink"><linearGradient id="a"><stop offset="0" stop-color="#01c7ed"/><stop offset="1" stop-color="#04f76e"/></linearGradient><linearGradient id="b" gradientUnits="userSpaceOnUse" x1="3.16663" x2="6.07329" xlink:href="#a" y1="13.938" y2="13.938"/><linearGradient id="c" gradientUnits="userSpaceOnUse" x1="3.16663" x2="13.54" xlink:href="#a" y1="15.4973" y2="15.4973"/><clipPath id="d"><path d="m.5 0h16v16h-16z"/></clipPath><g clip-path="url(#d)"><path d="m4.61996 13.3324c.80265 0 1.45333-.6506 1.45333-1.4533 0-.8026-.65068-1.4533-1.45333-1.4533s-1.45333.6507-1.45333 1.4533c0 .8027.65068 1.4533 1.45333 1.4533z" fill="url(#b)"/><path d="m3.16663 2.96289v1.88667c4.68666 0 8.48667 3.8 8.48667 8.48664h1.8867c-.0034-5.72998-4.64671-10.37331-10.37337-10.37331zm0 3.77v1.88667c2.60333 0 4.71333 2.11334 4.71333 4.71334h1.88667c0-3.64334-2.95667-6.60001-6.6-6.60001z" fill="url(#c)"/></g></svg>